M48
;DRILL file {KiCad (2017-09-09 revision 8c7175b)-master} date Monday, September 11, 2017 'PMt' 12:48:52 PM
;FORMAT={2:4/ absolute / inch / suppress leading zeros}
FMAT,2
INCH,TZ
T1C0.020
T2C0.039
T3C0.047
%
G90
G05
M72
T1
X38220Y-27880
X38250Y-25719
X38260Y-29060
X38750Y-30120
X38830Y-29180
X38982Y-26164
X39278Y-30934
X39280Y-30170
X40667Y-31666
X41248Y-27174
X41328Y-31518
X41429Y-27875
X41547Y-28544
X41690Y-30020
X41824Y-28203
X42154Y-27130
X42250Y-29980
X42620Y-31630
X42833Y-25342
X43166Y-28822
X43252Y-26295
X43928Y-25399
X44212Y-26791
X44894Y-28992
X45019Y-25924
X45036Y-31290
X45122Y-30461
X45444Y-28681
X45572Y-31127
X45743Y-26626
X45861Y-26026
X45937Y-27590
X45979Y-28299
X45991Y-26990
X46509Y-27147
X46567Y-29340
X46983Y-30373
X47126Y-25367
X48069Y-26893
X48724Y-31195
X49296Y-28043
X49296Y-28549
X49372Y-25984
X49431Y-26420
X49802Y-28043
X49802Y-28549
X49985Y-25266
X50045Y-29989
X50979Y-26724
X51074Y-31036
X51251Y-25566
X51479Y-27987
X51678Y-30106
X51924Y-27873
X52391Y-27897
X52512Y-30972
X54150Y-30167
T2
X42500Y-24500
X43500Y-24500
X44500Y-24500
X45500Y-24500
X46500Y-24500
X47500Y-24500
X48500Y-24500
X49500Y-24500
X38500Y-32500
X39500Y-32500
X40500Y-32500
X41500Y-32500
X42500Y-32500
X43500Y-32500
X44500Y-32500
X45500Y-32500
X46500Y-32500
X47500Y-32500
X48500Y-32500
X49500Y-32500
X50500Y-24500
X51500Y-24500
X52500Y-24500
X53500Y-24500
X50500Y-32500
X51500Y-32500
X52500Y-32500
X53500Y-32500
X55472Y-27012
X55472Y-28012
X55472Y-29012
X55472Y-30012
T3
X36572Y-27201
X36572Y-29799
T0
M30
