G04 #@! TF.GenerationSoftware,KiCad,Pcbnew,(2017-09-09 revision 8c7175b)-master*
G04 #@! TF.CreationDate,2017-09-11T12:48:41-07:00*
G04 #@! TF.ProjectId,feather_ice40,666561746865725F69636534302E6B69,rev?*
G04 #@! TF.SameCoordinates,Original*
G04 #@! TF.FileFunction,Copper,L1,Top,Signal*
G04 #@! TF.FilePolarity,Positive*
%FSLAX46Y46*%
G04 Gerber Fmt 4.6, Leading zero omitted, Abs format (unit mm)*
G04 Created by KiCad (PCBNEW (2017-09-09 revision 8c7175b)-master) date Monday, September 11, 2017 'PMt' 12:48:41 PM*
%MOMM*%
%LPD*%
G01*
G04 APERTURE LIST*
%ADD10R,1.000000X0.900000*%
%ADD11R,1.600000X1.000000*%
%ADD12O,1.700000X1.700000*%
%ADD13R,1.700000X1.700000*%
%ADD14R,0.600000X1.550000*%
%ADD15R,0.500000X0.900000*%
%ADD16R,0.900000X0.500000*%
%ADD17R,0.750000X0.800000*%
%ADD18R,0.800000X0.750000*%
%ADD19R,1.287500X1.287500*%
%ADD20R,0.700000X0.250000*%
%ADD21R,0.250000X0.700000*%
%ADD22R,1.300000X0.700000*%
%ADD23R,0.650000X1.060000*%
%ADD24R,1.060000X0.650000*%
%ADD25R,0.600000X0.800000*%
%ADD26R,1.400000X1.800000*%
%ADD27R,1.350000X0.400000*%
%ADD28R,1.900000X1.900000*%
%ADD29O,1.600000X1.900000*%
%ADD30R,1.500000X3.400000*%
%ADD31R,1.000000X3.500000*%
%ADD32R,1.200000X0.900000*%
%ADD33R,1.725000X1.725000*%
%ADD34C,0.914400*%
%ADD35C,0.254000*%
%ADD36C,0.203200*%
%ADD37C,0.250000*%
G04 APERTURE END LIST*
D10*
X101684040Y-79712720D03*
X101684040Y-78112720D03*
X97584040Y-79712720D03*
X97584040Y-78112720D03*
D11*
X131424040Y-75049580D03*
X131424040Y-78249580D03*
X136424040Y-75049580D03*
X136424040Y-78249580D03*
D12*
X140898880Y-76230480D03*
X140898880Y-73690480D03*
X140898880Y-71150480D03*
D13*
X140898880Y-68610480D03*
X97790000Y-82550000D03*
D12*
X100330000Y-82550000D03*
X102870000Y-82550000D03*
X105410000Y-82550000D03*
X107950000Y-82550000D03*
X110490000Y-82550000D03*
X113030000Y-82550000D03*
X115570000Y-82550000D03*
X118110000Y-82550000D03*
X120650000Y-82550000D03*
X123190000Y-82550000D03*
X125730000Y-82550000D03*
X128270000Y-82550000D03*
X130810000Y-82550000D03*
X133350000Y-82550000D03*
X135890000Y-82550000D03*
D13*
X107950000Y-62230000D03*
D12*
X110490000Y-62230000D03*
X113030000Y-62230000D03*
X115570000Y-62230000D03*
X118110000Y-62230000D03*
X120650000Y-62230000D03*
X123190000Y-62230000D03*
X125730000Y-62230000D03*
X128270000Y-62230000D03*
X130810000Y-62230000D03*
X133350000Y-62230000D03*
X135890000Y-62230000D03*
D14*
X133134100Y-67094120D03*
X134404100Y-67094120D03*
X135674100Y-67094120D03*
X136944100Y-67094120D03*
X136944100Y-72494120D03*
X135674100Y-72494120D03*
X134404100Y-72494120D03*
X133134100Y-72494120D03*
D15*
X115075400Y-68943220D03*
X113575400Y-68943220D03*
X119324820Y-75839320D03*
X117824820Y-75839320D03*
D16*
X120835420Y-77163360D03*
X120835420Y-75663360D03*
D17*
X131127500Y-68110800D03*
X131127500Y-66610800D03*
D18*
X119503760Y-74236580D03*
X121003760Y-74236580D03*
X129154620Y-77012800D03*
X127654620Y-77012800D03*
D17*
X124934980Y-78518320D03*
X124934980Y-80018320D03*
D18*
X128141160Y-78638400D03*
X126641160Y-78638400D03*
X127151700Y-66903600D03*
X128651700Y-66903600D03*
X128651700Y-65402460D03*
X127151700Y-65402460D03*
D19*
X127785710Y-69940590D03*
X126498210Y-69940590D03*
X125210710Y-69940590D03*
X123923210Y-69940590D03*
X127785710Y-71228090D03*
X126498210Y-71228090D03*
X125210710Y-71228090D03*
X123923210Y-71228090D03*
X127785710Y-72515590D03*
X126498210Y-72515590D03*
X125210710Y-72515590D03*
X123923210Y-72515590D03*
X127785710Y-73803090D03*
X126498210Y-73803090D03*
X125210710Y-73803090D03*
X123923210Y-73803090D03*
D20*
X129254460Y-69121840D03*
X129254460Y-69621840D03*
X129254460Y-70121840D03*
X129254460Y-70621840D03*
X129254460Y-71121840D03*
X129254460Y-71621840D03*
X129254460Y-72121840D03*
X129254460Y-72621840D03*
X129254460Y-73121840D03*
X129254460Y-73621840D03*
X129254460Y-74121840D03*
X129254460Y-74621840D03*
D21*
X128604460Y-75271840D03*
X128104460Y-75271840D03*
X127604460Y-75271840D03*
X127104460Y-75271840D03*
X126604460Y-75271840D03*
X126104460Y-75271840D03*
X125604460Y-75271840D03*
X125104460Y-75271840D03*
X124604460Y-75271840D03*
X124104460Y-75271840D03*
X123604460Y-75271840D03*
X123104460Y-75271840D03*
D20*
X122454460Y-74621840D03*
X122454460Y-74121840D03*
X122454460Y-73621840D03*
X122454460Y-73121840D03*
X122454460Y-72621840D03*
X122454460Y-72121840D03*
X122454460Y-71621840D03*
X122454460Y-71121840D03*
X122454460Y-70621840D03*
X122454460Y-70121840D03*
X122454460Y-69621840D03*
X122454460Y-69121840D03*
D21*
X123104460Y-68471840D03*
X123604460Y-68471840D03*
X124104460Y-68471840D03*
X124604460Y-68471840D03*
X125104460Y-68471840D03*
X125604460Y-68471840D03*
X126104460Y-68471840D03*
X126604460Y-68471840D03*
X127104460Y-68471840D03*
X127604460Y-68471840D03*
X128104460Y-68471840D03*
X128604460Y-68471840D03*
D15*
X113575400Y-67157600D03*
X115075400Y-67157600D03*
X124789500Y-77048360D03*
X126289500Y-77048360D03*
D22*
X105714800Y-73294200D03*
X105714800Y-75194200D03*
D16*
X106781600Y-79617000D03*
X106781600Y-78117000D03*
D17*
X112301020Y-68861240D03*
X112301020Y-70361240D03*
X122041920Y-67000820D03*
X122041920Y-65500820D03*
X104876600Y-78169200D03*
X104876600Y-76669200D03*
X112273080Y-65650680D03*
X112273080Y-67150680D03*
D18*
X102959600Y-71932800D03*
X101459600Y-71932800D03*
D15*
X110681200Y-65775840D03*
X109181200Y-65775840D03*
D16*
X97180400Y-74942000D03*
X97180400Y-76442000D03*
X97028000Y-66560000D03*
X97028000Y-68060000D03*
D23*
X110632280Y-70193080D03*
X108732280Y-70193080D03*
X108732280Y-67993080D03*
X109682280Y-67993080D03*
X110632280Y-67993080D03*
D24*
X118229200Y-66067900D03*
X118229200Y-67017900D03*
X118229200Y-67967900D03*
X120429200Y-67967900D03*
X120429200Y-66067900D03*
D23*
X103159600Y-75725200D03*
X101259600Y-75725200D03*
X101259600Y-73525200D03*
X102209600Y-73525200D03*
X103159600Y-73525200D03*
D25*
X95490400Y-67056000D03*
X93790400Y-67056000D03*
X93790400Y-77724000D03*
X95490400Y-77724000D03*
D26*
X95342500Y-68990000D03*
X95342500Y-75790000D03*
D27*
X95567500Y-71090000D03*
X95567500Y-71740000D03*
X95567500Y-72390000D03*
X95567500Y-73040000D03*
X95567500Y-73690000D03*
D28*
X92892500Y-71190000D03*
X92892500Y-73590000D03*
D29*
X92892500Y-68940000D03*
X92892500Y-75840000D03*
D30*
X99012000Y-63165000D03*
X105712000Y-63165000D03*
D31*
X101362000Y-68915000D03*
X103362000Y-68915000D03*
D32*
X99161600Y-72010000D03*
X99161600Y-75310000D03*
D33*
X110021500Y-78533100D03*
X111746500Y-78533100D03*
X110021500Y-76808100D03*
X111746500Y-76808100D03*
D20*
X108484000Y-79420600D03*
X108484000Y-78920600D03*
X108484000Y-78420600D03*
X108484000Y-77920600D03*
X108484000Y-77420600D03*
X108484000Y-76920600D03*
X108484000Y-76420600D03*
X108484000Y-75920600D03*
D21*
X109134000Y-75270600D03*
X109634000Y-75270600D03*
X110134000Y-75270600D03*
X110634000Y-75270600D03*
X111134000Y-75270600D03*
X111634000Y-75270600D03*
X112134000Y-75270600D03*
X112634000Y-75270600D03*
D20*
X113284000Y-75920600D03*
X113284000Y-76420600D03*
X113284000Y-76920600D03*
X113284000Y-77420600D03*
X113284000Y-77920600D03*
X113284000Y-78420600D03*
X113284000Y-78920600D03*
X113284000Y-79420600D03*
D21*
X112634000Y-80070600D03*
X112134000Y-80070600D03*
X111634000Y-80070600D03*
X111134000Y-80070600D03*
X110634000Y-80070600D03*
X110134000Y-80070600D03*
X109634000Y-80070600D03*
X109134000Y-80070600D03*
D34*
X106233569Y-71634794D03*
X115752880Y-79062580D03*
X119336820Y-77147420D03*
X127115378Y-76172816D03*
X130176572Y-64937650D03*
X114348260Y-65846960D03*
X99771200Y-76631800D03*
X105528279Y-72501755D03*
X107071160Y-68910200D03*
X116486940Y-66106040D03*
X99766120Y-78572360D03*
X109860080Y-66789300D03*
X123758960Y-79235300D03*
X137541000Y-76624180D03*
X118280180Y-74523600D03*
X129487432Y-67879229D03*
X122095281Y-68308230D03*
X125210710Y-71228090D03*
X125210710Y-72515590D03*
X126498210Y-72515590D03*
X126498210Y-71228090D03*
X112298480Y-68049140D03*
X99014280Y-66456560D03*
X114390857Y-79476703D03*
X105892600Y-76250800D03*
X97180400Y-73812400D03*
X104769194Y-69021957D03*
X111577120Y-64513460D03*
X108795820Y-64368680D03*
X97155000Y-65326260D03*
X105229660Y-70802500D03*
X130756888Y-71087059D03*
X119698963Y-64432667D03*
X126961900Y-64175640D03*
X129727960Y-78831440D03*
X133380480Y-78668880D03*
X116186811Y-67630052D03*
X103294180Y-80431640D03*
X125405589Y-65999157D03*
X109641034Y-73207212D03*
X98628198Y-74117200D03*
X97078800Y-70815200D03*
X108254800Y-80340200D03*
X104973216Y-80055919D03*
X98425000Y-76504800D03*
X133073140Y-70858380D03*
X131887867Y-70796844D03*
X116786660Y-71879460D03*
X115426541Y-72849965D03*
X114031546Y-73639964D03*
X116680905Y-70077703D03*
X118132249Y-68953303D03*
X107315000Y-76149200D03*
X116816054Y-68553691D03*
X125555276Y-67106699D03*
X131262120Y-76469240D03*
X114609880Y-77370940D03*
D35*
X110632280Y-70193080D02*
X110632280Y-70398080D01*
X106880147Y-71634794D02*
X106233569Y-71634794D01*
X109395566Y-71634794D02*
X106880147Y-71634794D01*
X110632280Y-70398080D02*
X109395566Y-71634794D01*
X113284000Y-79420600D02*
X113284000Y-79484402D01*
X113284000Y-79484402D02*
X114038303Y-80238705D01*
X115752880Y-79709158D02*
X115752880Y-79062580D01*
X115192959Y-80269079D02*
X115752880Y-79709158D01*
X114038303Y-80238705D02*
X114187985Y-80238705D01*
X114187985Y-80238705D02*
X114218359Y-80269079D01*
X114218359Y-80269079D02*
X115192959Y-80269079D01*
X127115378Y-76172816D02*
X127115378Y-75282758D01*
X127115378Y-75282758D02*
X127104460Y-75271840D01*
X119336820Y-77147420D02*
X119336820Y-75851320D01*
X119336820Y-75851320D02*
X119324820Y-75839320D01*
X127654620Y-77012800D02*
X127654620Y-76712058D01*
X127654620Y-76712058D02*
X127115378Y-76172816D01*
X137478040Y-78249580D02*
X136424040Y-78249580D01*
X138633189Y-77094431D02*
X137478040Y-78249580D01*
X138633189Y-72909221D02*
X138633189Y-77094431D01*
X137680700Y-71956732D02*
X138633189Y-72909221D01*
X137680700Y-68676520D02*
X137680700Y-71956732D01*
X133134100Y-66619120D02*
X131452630Y-64937650D01*
X131452630Y-64937650D02*
X130823150Y-64937650D01*
X130823150Y-64937650D02*
X130176572Y-64937650D01*
X133134100Y-67094120D02*
X133134100Y-66619120D01*
X135674100Y-72494120D02*
X135674100Y-72969120D01*
X122454460Y-74621840D02*
X121389020Y-74621840D01*
X121389020Y-74621840D02*
X121003760Y-74236580D01*
X122454460Y-73621840D02*
X121618500Y-73621840D01*
X121618500Y-73621840D02*
X121003760Y-74236580D01*
X120835420Y-75663360D02*
X120835420Y-74404920D01*
X120835420Y-74404920D02*
X121003760Y-74236580D01*
X120835420Y-75663360D02*
X119500780Y-75663360D01*
X119500780Y-75663360D02*
X119324820Y-75839320D01*
X131127500Y-68110800D02*
X130424460Y-68110800D01*
X129868621Y-68666639D02*
X128799259Y-68666639D01*
X130424460Y-68110800D02*
X129868621Y-68666639D01*
X128799259Y-68666639D02*
X128604460Y-68471840D01*
X113575400Y-67157600D02*
X113575400Y-66619820D01*
X113575400Y-66619820D02*
X114348260Y-65846960D01*
X134404100Y-67094120D02*
X134404100Y-66619120D01*
X137350500Y-65735200D02*
X137680700Y-66065400D01*
X134404100Y-66619120D02*
X135288020Y-65735200D01*
X135288020Y-65735200D02*
X137350500Y-65735200D01*
X137680700Y-66065400D02*
X137680700Y-68676520D01*
X137680700Y-68676520D02*
X135674100Y-70683120D01*
X135674100Y-70683120D02*
X135674100Y-72494120D01*
X133134100Y-67094120D02*
X132144180Y-67094120D01*
X132144180Y-67094120D02*
X131127500Y-68110800D01*
X134404100Y-67094120D02*
X133134100Y-67094120D01*
X112301020Y-70361240D02*
X110800440Y-70361240D01*
X110800440Y-70361240D02*
X110632280Y-70193080D01*
X113575400Y-68943220D02*
X113575400Y-69086860D01*
X113575400Y-69086860D02*
X112301020Y-70361240D01*
X113575400Y-67157600D02*
X113575400Y-68943220D01*
X98501200Y-77317599D02*
X99085401Y-77317599D01*
X98262161Y-77317599D02*
X98501200Y-77317599D01*
X98501200Y-77317599D02*
X98501200Y-80721200D01*
X98501200Y-80721200D02*
X100330000Y-82550000D01*
X106781600Y-78117000D02*
X104928800Y-78117000D01*
X104928800Y-78117000D02*
X104876600Y-78169200D01*
X108484000Y-77920600D02*
X106978000Y-77920600D01*
X106978000Y-77920600D02*
X106781600Y-78117000D01*
X108484000Y-78420600D02*
X107085200Y-78420600D01*
X107085200Y-78420600D02*
X106781600Y-78117000D01*
X103301800Y-77126400D02*
X103833800Y-77126400D01*
X103833800Y-77126400D02*
X104876600Y-78169200D01*
X99771200Y-76631800D02*
X102103200Y-76631800D01*
X102103200Y-76631800D02*
X102597800Y-77126400D01*
X102597800Y-77126400D02*
X103301800Y-77126400D01*
X96652401Y-77261399D02*
X98205961Y-77261399D01*
X96393000Y-78115762D02*
X96393000Y-77520800D01*
X96054561Y-78454201D02*
X96393000Y-78115762D01*
X96393000Y-77520800D02*
X96652401Y-77261399D01*
X99314001Y-77088999D02*
X99771200Y-76631800D01*
X93790400Y-77824000D02*
X94420601Y-78454201D01*
X94420601Y-78454201D02*
X96054561Y-78454201D01*
X98205961Y-77261399D02*
X98262161Y-77317599D01*
X99085401Y-77317599D02*
X99314001Y-77088999D01*
X93790400Y-77724000D02*
X93790400Y-77824000D01*
X104876600Y-78169200D02*
X105118600Y-77927200D01*
X108477400Y-77927200D02*
X108484000Y-77920600D01*
X92892500Y-71190000D02*
X93342500Y-71190000D01*
X93342500Y-71190000D02*
X95342500Y-69190000D01*
X95342500Y-69190000D02*
X95342500Y-68990000D01*
X106151682Y-69829678D02*
X106613961Y-69367399D01*
X106613961Y-69367399D02*
X107071160Y-68910200D01*
X105075301Y-72310341D02*
X105266715Y-72501755D01*
X105266715Y-72501755D02*
X105528279Y-72501755D01*
X105075301Y-72308720D02*
X105075301Y-72310341D01*
X103613600Y-71932800D02*
X104256838Y-71289562D01*
X102959600Y-71932800D02*
X103613600Y-71932800D01*
X104256838Y-71289562D02*
X104256838Y-70267066D01*
X104694226Y-69829678D02*
X106151682Y-69829678D01*
X104256838Y-70267066D02*
X104694226Y-69829678D01*
X117398800Y-67017900D02*
X116486940Y-66106040D01*
X118229200Y-67017900D02*
X117398800Y-67017900D01*
X101684040Y-78112720D02*
X100225760Y-78112720D01*
X100225760Y-78112720D02*
X99766120Y-78572360D01*
X97584040Y-78112720D02*
X97534040Y-78112720D01*
X97534040Y-78112720D02*
X96358120Y-79288640D01*
X109682280Y-67993080D02*
X109682280Y-66967100D01*
X109682280Y-66967100D02*
X109860080Y-66789300D01*
X124541980Y-80018320D02*
X123758960Y-79235300D01*
X124934980Y-80018320D02*
X124541980Y-80018320D01*
X129154620Y-77012800D02*
X129887260Y-77012800D01*
X129887260Y-77012800D02*
X131124040Y-78249580D01*
X131124040Y-78249580D02*
X131424040Y-78249580D01*
X137899140Y-72895160D02*
X137899140Y-76266040D01*
X137899140Y-76266040D02*
X137541000Y-76624180D01*
X136944100Y-72494120D02*
X137498100Y-72494120D01*
X137498100Y-72494120D02*
X137899140Y-72895160D01*
X119503760Y-74236580D02*
X118567200Y-74236580D01*
X118567200Y-74236580D02*
X118280180Y-74523600D01*
X113836037Y-79019504D02*
X113933658Y-79019504D01*
X113933658Y-79019504D02*
X114390857Y-79476703D01*
X113284000Y-78920600D02*
X113737133Y-78920600D01*
X113737133Y-78920600D02*
X113836037Y-79019504D01*
X131127500Y-66635800D02*
X129884071Y-67879229D01*
X131127500Y-66610800D02*
X131127500Y-66635800D01*
X128651700Y-66903600D02*
X128676700Y-66903600D01*
X129884071Y-67879229D02*
X129487432Y-67879229D01*
X129487432Y-67714332D02*
X129487432Y-67879229D01*
X128676700Y-66903600D02*
X129487432Y-67714332D01*
X122041920Y-67000820D02*
X122041920Y-68254869D01*
X122041920Y-68254869D02*
X122095281Y-68308230D01*
X128651700Y-65402460D02*
X128651700Y-66903600D01*
X125210710Y-72515590D02*
X125210710Y-71228090D01*
X126498210Y-72515590D02*
X125210710Y-72515590D01*
X126498210Y-71228090D02*
X126498210Y-72515590D01*
X125210710Y-71228090D02*
X126498210Y-71228090D01*
X112301020Y-68861240D02*
X112301020Y-68051680D01*
X112301020Y-68051680D02*
X112298480Y-68049140D01*
X101362000Y-68915000D02*
X101362000Y-67665000D01*
X100153560Y-66456560D02*
X99014280Y-66456560D01*
X101362000Y-67665000D02*
X100153560Y-66456560D01*
X104876600Y-76669200D02*
X105505600Y-76669200D01*
X105505600Y-76669200D02*
X106207700Y-77371300D01*
X106207700Y-77371300D02*
X107013100Y-77371300D01*
X104851200Y-76669200D02*
X105474200Y-76669200D01*
X105474200Y-76669200D02*
X105892600Y-76250800D01*
X108484000Y-77420600D02*
X107880000Y-77420600D01*
X107880000Y-77420600D02*
X107830700Y-77371300D01*
X107830700Y-77371300D02*
X107013100Y-77371300D01*
X107013100Y-77371300D02*
X106349799Y-76707999D01*
X106349799Y-76707999D02*
X105892600Y-76250800D01*
X95567500Y-73690000D02*
X97058000Y-73690000D01*
X97058000Y-73690000D02*
X97180400Y-73812400D01*
X95342500Y-75790000D02*
X95342500Y-73915000D01*
X95342500Y-73915000D02*
X95567500Y-73690000D01*
X102209600Y-73525200D02*
X102209600Y-72682800D01*
X102209600Y-72682800D02*
X102959600Y-71932800D01*
X101459600Y-69012600D02*
X101362000Y-68915000D01*
X104769194Y-68395306D02*
X104769194Y-69021957D01*
X108795820Y-64368680D02*
X104769194Y-68395306D01*
X112273080Y-65625680D02*
X112273080Y-65650680D01*
X116609447Y-64653147D02*
X113245613Y-64653147D01*
X113245613Y-64653147D02*
X112273080Y-65625680D01*
X118024200Y-66067900D02*
X116609447Y-64653147D01*
X118229200Y-66067900D02*
X118024200Y-66067900D01*
X110681200Y-67160160D02*
X110681200Y-65775840D01*
X110632280Y-67209080D02*
X110681200Y-67160160D01*
X110632280Y-67993080D02*
X110632280Y-67209080D01*
X111577120Y-64513460D02*
X111577120Y-64879920D01*
X111577120Y-64879920D02*
X110681200Y-65775840D01*
X111577120Y-64513460D02*
X111577120Y-64954720D01*
X111577120Y-64954720D02*
X112273080Y-65650680D01*
X110681200Y-65575840D02*
X110681200Y-65775840D01*
X112273080Y-65650680D02*
X112273080Y-62986920D01*
X112273080Y-62986920D02*
X113030000Y-62230000D01*
X112273080Y-65650680D02*
X110806360Y-65650680D01*
X110806360Y-65650680D02*
X110681200Y-65775840D01*
X107950000Y-62230000D02*
X107950000Y-64327000D01*
X107950000Y-64327000D02*
X106610325Y-65666675D01*
X105360325Y-65666675D02*
X103362000Y-67665000D01*
X106610325Y-65666675D02*
X105360325Y-65666675D01*
X103362000Y-67665000D02*
X103362000Y-68915000D01*
D36*
X118229200Y-67967900D02*
X117660754Y-67967900D01*
X110954820Y-69105780D02*
X109111780Y-69105780D01*
X111358680Y-68701920D02*
X110954820Y-69105780D01*
X113982498Y-65084958D02*
X113586258Y-65481198D01*
X112768797Y-66402799D02*
X111709621Y-66402799D01*
X108732280Y-68726280D02*
X108732280Y-67993080D01*
X117660754Y-67967900D02*
X116560896Y-66868042D01*
X114777812Y-65084958D02*
X113982498Y-65084958D01*
X116560896Y-66868042D02*
X116121178Y-66868042D01*
X111709621Y-66402799D02*
X111358680Y-66753740D01*
X109111780Y-69105780D02*
X108732280Y-68726280D01*
X113586258Y-65481198D02*
X113586258Y-65585338D01*
X116121178Y-66868042D02*
X115724938Y-66471802D01*
X115724938Y-66471802D02*
X115724938Y-66032084D01*
X113586258Y-65585338D02*
X112768797Y-66402799D01*
X111358680Y-66753740D02*
X111358680Y-68701920D01*
X115724938Y-66032084D02*
X114777812Y-65084958D01*
X109181200Y-65775840D02*
X109181200Y-65575840D01*
X110490000Y-64267040D02*
X110490000Y-63432081D01*
X109181200Y-65575840D02*
X110490000Y-64267040D01*
X110490000Y-63432081D02*
X110490000Y-62230000D01*
X109181200Y-65775840D02*
X109181200Y-66429040D01*
X109181200Y-66429040D02*
X108732280Y-66877960D01*
X108732280Y-66877960D02*
X108732280Y-67259880D01*
X108732280Y-67259880D02*
X108732280Y-67993080D01*
X97155000Y-65326260D02*
X97134681Y-65346579D01*
X97134681Y-65346579D02*
X96003021Y-65346579D01*
X96003021Y-65346579D02*
X94293600Y-67056000D01*
X94293600Y-67056000D02*
X93790400Y-67056000D01*
X119301260Y-65736318D02*
X116644941Y-63079999D01*
X119301260Y-68447906D02*
X119301260Y-65736318D01*
X119975194Y-69121840D02*
X119301260Y-68447906D01*
X122454460Y-69121840D02*
X119975194Y-69121840D01*
X116419999Y-63079999D02*
X115570000Y-62230000D01*
X116644941Y-63079999D02*
X116419999Y-63079999D01*
X105229660Y-71250140D02*
X105229660Y-70802500D01*
X103159600Y-73320200D02*
X105229660Y-71250140D01*
X103159600Y-73525200D02*
X103159600Y-73320200D01*
X95490400Y-67056000D02*
X96532000Y-67056000D01*
X96532000Y-67056000D02*
X97028000Y-66560000D01*
X97028000Y-66789300D02*
X97028000Y-66560000D01*
X126104460Y-67958450D02*
X126446899Y-67616011D01*
X126199898Y-64541402D02*
X126199898Y-63809878D01*
X127420001Y-63079999D02*
X128270000Y-62230000D01*
X126929777Y-63079999D02*
X127420001Y-63079999D01*
X126104460Y-68471840D02*
X126104460Y-67958450D01*
X126446899Y-67616011D02*
X126446899Y-64788403D01*
X126446899Y-64788403D02*
X126199898Y-64541402D01*
X126199898Y-63809878D02*
X126929777Y-63079999D01*
X130722107Y-71121840D02*
X130756888Y-71087059D01*
X129254460Y-71121840D02*
X130722107Y-71121840D01*
X123104460Y-68471840D02*
X123104460Y-65239718D01*
X123104460Y-65239718D02*
X121535407Y-63670665D01*
X121535407Y-63670665D02*
X119550665Y-63670665D01*
X119550665Y-63670665D02*
X118959999Y-63079999D01*
X118959999Y-63079999D02*
X118110000Y-62230000D01*
X121499999Y-63079999D02*
X120650000Y-62230000D01*
X121700659Y-63079999D02*
X121499999Y-63079999D01*
X123560807Y-64940147D02*
X121700659Y-63079999D01*
X123560807Y-68428187D02*
X123560807Y-64940147D01*
X123604460Y-68471840D02*
X123560807Y-68428187D01*
X123980453Y-67869384D02*
X123980453Y-64222534D01*
X123980453Y-64222534D02*
X123190000Y-63432081D01*
X123190000Y-63432081D02*
X123190000Y-62230000D01*
X124104460Y-67993391D02*
X123980453Y-67869384D01*
X124104460Y-68471840D02*
X124104460Y-67993391D01*
X124386864Y-67701044D02*
X124386864Y-66511205D01*
X124386864Y-66511205D02*
X124531109Y-66366960D01*
X124531109Y-66366960D02*
X124531109Y-63428891D01*
X124531109Y-63428891D02*
X124880001Y-63079999D01*
X124604460Y-67918640D02*
X124386864Y-67701044D01*
X124604460Y-68471840D02*
X124604460Y-67918640D01*
X124880001Y-63079999D02*
X125730000Y-62230000D01*
X112634000Y-80070600D02*
X113259526Y-80070600D01*
X113259526Y-80070600D02*
X113859442Y-80670516D01*
X119075213Y-80975213D02*
X120650000Y-82550000D01*
X113859442Y-80670516D02*
X114009124Y-80670516D01*
X114009124Y-80670516D02*
X114313821Y-80975213D01*
X114313821Y-80975213D02*
X119075213Y-80975213D01*
X113914936Y-77920600D02*
X114127278Y-78132942D01*
X114946983Y-78132942D02*
X115371882Y-77708043D01*
X115371882Y-77044816D02*
X117518178Y-74898520D01*
X115371882Y-77708043D02*
X115371882Y-77044816D01*
X114127278Y-78132942D02*
X114946983Y-78132942D01*
X113284000Y-77920600D02*
X113914936Y-77920600D01*
X117824820Y-75839320D02*
X117824820Y-75186120D01*
X117824820Y-75186120D02*
X117537220Y-74898520D01*
X117537220Y-74898520D02*
X117518178Y-74898520D01*
X117518178Y-74898520D02*
X117518178Y-74134978D01*
X118531316Y-73121840D02*
X121901260Y-73121840D01*
X117518178Y-74134978D02*
X118531316Y-73121840D01*
X121901260Y-73121840D02*
X122454460Y-73121840D01*
X113837200Y-78420600D02*
X113284000Y-78420600D01*
X113840185Y-78420600D02*
X113837200Y-78420600D01*
X113958938Y-78539353D02*
X113840185Y-78420600D01*
X120635420Y-77163360D02*
X119498202Y-78300578D01*
X120835420Y-77163360D02*
X120635420Y-77163360D01*
X119498202Y-78300578D02*
X115354098Y-78300578D01*
X115115323Y-78539353D02*
X113958938Y-78539353D01*
X115354098Y-78300578D02*
X115115323Y-78539353D01*
X123104460Y-75271840D02*
X122726940Y-75271840D01*
X122726940Y-75271840D02*
X121488620Y-76510160D01*
X121035420Y-77163360D02*
X120835420Y-77163360D01*
X121488620Y-76510160D02*
X121488620Y-76710160D01*
X121488620Y-76710160D02*
X121035420Y-77163360D01*
X126641160Y-78638400D02*
X125055060Y-78638400D01*
X125055060Y-78638400D02*
X124934980Y-78518320D01*
X126289500Y-77048360D02*
X126289500Y-78286740D01*
X126289500Y-78286740D02*
X126641160Y-78638400D01*
X126600520Y-80093820D02*
X126600520Y-78679040D01*
X126600520Y-78679040D02*
X126641160Y-78638400D01*
X125604460Y-75271840D02*
X125604460Y-76816520D01*
X125836300Y-77048360D02*
X126289500Y-77048360D01*
X125604460Y-76816520D02*
X125836300Y-77048360D01*
X126961900Y-64175640D02*
X136827260Y-64175640D01*
X139065000Y-66413380D02*
X139065000Y-77457262D01*
X139065000Y-77457262D02*
X135369262Y-81153000D01*
X135369262Y-81153000D02*
X127684700Y-81153000D01*
X127684700Y-81153000D02*
X126625520Y-80093820D01*
X126625520Y-80093820D02*
X126600520Y-80093820D01*
X136827260Y-64175640D02*
X139065000Y-66413380D01*
X120156162Y-64889866D02*
X119698963Y-64432667D01*
X120429200Y-65162904D02*
X120156162Y-64889866D01*
X120429200Y-66067900D02*
X120429200Y-65162904D01*
X120429200Y-66067900D02*
X121474840Y-66067900D01*
X121474840Y-66067900D02*
X122041920Y-65500820D01*
X127151700Y-65402460D02*
X127151700Y-64365440D01*
X127151700Y-64365440D02*
X126961900Y-64175640D01*
X127151700Y-66903600D02*
X127151700Y-65402460D01*
X126604460Y-68471840D02*
X126604460Y-68033200D01*
X126604460Y-68033200D02*
X126853309Y-67784351D01*
X126853309Y-67784351D02*
X126853309Y-67201991D01*
X126853309Y-67201991D02*
X127151700Y-66903600D01*
X124789500Y-77048360D02*
X125104460Y-76733400D01*
X125104460Y-76733400D02*
X125104460Y-75271840D01*
X122996958Y-79730602D02*
X124132336Y-80865980D01*
X124132336Y-80865980D02*
X126585980Y-80865980D01*
X126585980Y-80865980D02*
X127420001Y-81700001D01*
X127420001Y-81700001D02*
X128270000Y-82550000D01*
X122996958Y-77592259D02*
X122996958Y-79730602D01*
X124604460Y-75984757D02*
X122996958Y-77592259D01*
X124604460Y-75271840D02*
X124604460Y-75984757D01*
X124880001Y-81700001D02*
X125730000Y-82550000D01*
X124104460Y-75271840D02*
X124104460Y-75910007D01*
X124104460Y-75910007D02*
X122590547Y-77423920D01*
X122590547Y-77423920D02*
X122590547Y-79898942D01*
X122590547Y-79898942D02*
X124391606Y-81700001D01*
X124391606Y-81700001D02*
X124880001Y-81700001D01*
X123604460Y-75825040D02*
X122184136Y-77245364D01*
X122184136Y-77245364D02*
X122184136Y-81544136D01*
X122184136Y-81544136D02*
X122340001Y-81700001D01*
X122340001Y-81700001D02*
X123190000Y-82550000D01*
X123604460Y-75271840D02*
X123604460Y-75825040D01*
X128104460Y-75271840D02*
X128104460Y-75825040D01*
X128104460Y-75825040D02*
X128404620Y-76125200D01*
X128404620Y-76125200D02*
X128404620Y-77597000D01*
X128404620Y-77597000D02*
X129181861Y-78374241D01*
X129181861Y-78374241D02*
X129270761Y-78374241D01*
X129270761Y-78374241D02*
X129727960Y-78831440D01*
X128604460Y-75271840D02*
X128954734Y-75271840D01*
X132630060Y-77271882D02*
X133380480Y-78022302D01*
X133380480Y-78022302D02*
X133380480Y-78668880D01*
X130954776Y-77271882D02*
X132630060Y-77271882D01*
X128954734Y-75271840D02*
X130954776Y-77271882D01*
X115729612Y-67172853D02*
X116186811Y-67630052D01*
X115075400Y-67157600D02*
X115714359Y-67157600D01*
X115714359Y-67157600D02*
X115729612Y-67172853D01*
X97584040Y-79712720D02*
X97584040Y-82344040D01*
X97584040Y-82344040D02*
X97790000Y-82550000D01*
X101684040Y-79712720D02*
X102575260Y-79712720D01*
X102575260Y-79712720D02*
X103294180Y-80431640D01*
X124793275Y-66679545D02*
X124793275Y-67475779D01*
X124793275Y-67475779D02*
X124922887Y-67605391D01*
X125104460Y-67783645D02*
X125104460Y-67918640D01*
X125104460Y-67918640D02*
X125104460Y-68471840D01*
X124804705Y-66668115D02*
X124793275Y-66679545D01*
X124793275Y-66679545D02*
X124793275Y-67472460D01*
X124948390Y-66524430D02*
X124948390Y-66456356D01*
X124804705Y-66668115D02*
X124948390Y-66524430D01*
X124948390Y-66456356D02*
X125405589Y-65999157D01*
X124793275Y-67472460D02*
X125104460Y-67783645D01*
X109916624Y-73207212D02*
X110860838Y-72262998D01*
X110860838Y-72262998D02*
X111828582Y-72262998D01*
X111828582Y-72262998D02*
X114376200Y-69715380D01*
X114376200Y-68510000D02*
X115075400Y-67810800D01*
X114376200Y-69715380D02*
X114376200Y-68510000D01*
X115075400Y-67810800D02*
X115075400Y-67157600D01*
X109641034Y-73207212D02*
X110134000Y-73700178D01*
X110134000Y-73700178D02*
X110134000Y-75270600D01*
D37*
X109916624Y-73207212D02*
X109641034Y-73207212D01*
D35*
X98628198Y-74117200D02*
X98628198Y-74776598D01*
X98628198Y-74776598D02*
X99161600Y-75310000D01*
X101259600Y-75725200D02*
X99753600Y-75725200D01*
X99161600Y-75310000D02*
X99237799Y-75233801D01*
X99237799Y-75233801D02*
X99237799Y-75209399D01*
X112767200Y-62230000D02*
X113030000Y-62230000D01*
X95567500Y-71090000D02*
X96804000Y-71090000D01*
X96804000Y-71090000D02*
X97078800Y-70815200D01*
D36*
X108484000Y-80111000D02*
X108254800Y-80340200D01*
X108484000Y-79420600D02*
X108484000Y-80111000D01*
X106781600Y-79617000D02*
X105412135Y-79617000D01*
X105412135Y-79617000D02*
X104973216Y-80055919D01*
X108484000Y-78920600D02*
X107024800Y-78920600D01*
X107024800Y-78920600D02*
X106781600Y-79163800D01*
X106781600Y-79163800D02*
X106781600Y-79617000D01*
X104931319Y-80055919D02*
X104973216Y-80055919D01*
D35*
X103362000Y-68915000D02*
X103362000Y-70165000D01*
X103362000Y-70165000D02*
X101594200Y-71932800D01*
X101594200Y-71932800D02*
X101459600Y-71932800D01*
X101459600Y-71932800D02*
X101459600Y-73325200D01*
X101459600Y-73325200D02*
X101259600Y-73525200D01*
X99161600Y-72010000D02*
X101382400Y-72010000D01*
X101382400Y-72010000D02*
X101459600Y-71932800D01*
D36*
X98425000Y-76504800D02*
X97180400Y-75260200D01*
X97180400Y-75260200D02*
X97180400Y-74942000D01*
X97180400Y-75145200D02*
X97380400Y-75145200D01*
X98425000Y-76189800D02*
X98425000Y-76504800D01*
X95490400Y-77624000D02*
X95490400Y-77724000D01*
X95993600Y-77120800D02*
X95490400Y-77624000D01*
X96093600Y-77120800D02*
X95993600Y-77120800D01*
X96772400Y-76442000D02*
X96093600Y-77120800D01*
X97180400Y-76442000D02*
X96772400Y-76442000D01*
X103852800Y-75725200D02*
X104383800Y-75194200D01*
X104383800Y-75194200D02*
X105714800Y-75194200D01*
X103159600Y-75725200D02*
X103852800Y-75725200D01*
X103458800Y-75426000D02*
X103159600Y-75725200D01*
X128104460Y-68471840D02*
X128174659Y-68401641D01*
X132615941Y-71315579D02*
X133073140Y-70858380D01*
X131447541Y-72483979D02*
X132615941Y-71315579D01*
X130169799Y-72483979D02*
X131447541Y-72483979D01*
X129807660Y-72121840D02*
X130169799Y-72483979D01*
X129254460Y-72121840D02*
X129807660Y-72121840D01*
X129254460Y-71621840D02*
X130163905Y-71621840D01*
X130391126Y-71849061D02*
X131482228Y-71849061D01*
X130163905Y-71621840D02*
X130391126Y-71849061D01*
X131482228Y-71849061D02*
X131887867Y-71443422D01*
X131887867Y-71443422D02*
X131887867Y-70796844D01*
X118232312Y-71121840D02*
X117544280Y-71121840D01*
X122454460Y-71121840D02*
X118232312Y-71121840D01*
X118232312Y-71121840D02*
X115892534Y-73461618D01*
X115892534Y-73461618D02*
X115892534Y-74048363D01*
X115892534Y-74048363D02*
X114670297Y-75270600D01*
X114670297Y-75270600D02*
X112962200Y-75270600D01*
X112962200Y-75270600D02*
X112634000Y-75270600D01*
X117544280Y-71121840D02*
X116786660Y-71879460D01*
X117264532Y-70621840D02*
X116997514Y-70888858D01*
X116575838Y-70888858D02*
X115426541Y-72038155D01*
X115426541Y-72203387D02*
X115426541Y-72849965D01*
X122454460Y-70621840D02*
X117264532Y-70621840D01*
X115426541Y-72038155D02*
X115426541Y-72203387D01*
X116997514Y-70888858D02*
X116575838Y-70888858D01*
X111634000Y-75270600D02*
X111634000Y-74672207D01*
X111634000Y-74672207D02*
X112666243Y-73639964D01*
X113384968Y-73639964D02*
X114031546Y-73639964D01*
X112666243Y-73639964D02*
X113384968Y-73639964D01*
X117327483Y-70077703D02*
X116680905Y-70077703D01*
X117613649Y-70121840D02*
X117569512Y-70077703D01*
X117569512Y-70077703D02*
X117327483Y-70077703D01*
X112265159Y-74615799D02*
X112134000Y-74746958D01*
X112134000Y-74746958D02*
X112134000Y-75270600D01*
X114965844Y-73517030D02*
X114965844Y-74400302D01*
X114664540Y-73215726D02*
X114965844Y-73517030D01*
X114965844Y-74400302D02*
X114750346Y-74615799D01*
X114750346Y-74615799D02*
X112265159Y-74615799D01*
X114664540Y-72225405D02*
X114664540Y-73215726D01*
X116768105Y-70121840D02*
X114664540Y-72225405D01*
X117613649Y-70121840D02*
X116768105Y-70121840D01*
X122454460Y-70121840D02*
X117613649Y-70121840D01*
X119299913Y-69315693D02*
X116174716Y-69315693D01*
X111134000Y-74717400D02*
X111134000Y-75270600D01*
X119606060Y-69621840D02*
X119299913Y-69315693D01*
X116174716Y-69315693D02*
X111134000Y-74356409D01*
X111134000Y-74356409D02*
X111134000Y-74717400D01*
X119606060Y-69621840D02*
X118937523Y-68953303D01*
X118778827Y-68953303D02*
X118132249Y-68953303D01*
X118937523Y-68953303D02*
X118778827Y-68953303D01*
X122454460Y-69621840D02*
X119606060Y-69621840D01*
X111119274Y-75255874D02*
X111134000Y-75270600D01*
X116941626Y-81381626D02*
X117260001Y-81700001D01*
X114145483Y-81381626D02*
X116941626Y-81381626D01*
X113840784Y-81076927D02*
X114145483Y-81381626D01*
X113691102Y-81076927D02*
X113840784Y-81076927D01*
X112134000Y-80070600D02*
X112134000Y-80594242D01*
X112134000Y-80594242D02*
X112528546Y-80988788D01*
X112528546Y-80988788D02*
X113602963Y-80988788D01*
X113602963Y-80988788D02*
X113691102Y-81076927D01*
X117260001Y-81700001D02*
X118110000Y-82550000D01*
X114666293Y-82550000D02*
X115570000Y-82550000D01*
X113599631Y-81483338D02*
X114666293Y-82550000D01*
X113434623Y-81395199D02*
X113522762Y-81483338D01*
X113522762Y-81483338D02*
X113599631Y-81483338D01*
X112360206Y-81395199D02*
X113434623Y-81395199D01*
X111634000Y-80668993D02*
X112360206Y-81395199D01*
X111634000Y-80070600D02*
X111634000Y-80668993D01*
X112940256Y-82550000D02*
X113030000Y-82550000D01*
X111134000Y-80743744D02*
X112940256Y-82550000D01*
X111134000Y-80070600D02*
X111134000Y-80743744D01*
X110634000Y-80070600D02*
X110634000Y-82406000D01*
X110634000Y-82406000D02*
X110490000Y-82550000D01*
X110134000Y-80070600D02*
X110134000Y-80623800D01*
X108799999Y-81700001D02*
X107950000Y-82550000D01*
X110134000Y-80623800D02*
X109057799Y-81700001D01*
X109057799Y-81700001D02*
X108799999Y-81700001D01*
X98970878Y-72764801D02*
X100677607Y-74471530D01*
X98317759Y-72764801D02*
X98970878Y-72764801D01*
X97292958Y-71740000D02*
X98317759Y-72764801D01*
X95567500Y-71740000D02*
X97292958Y-71740000D01*
X109634000Y-74318234D02*
X109634000Y-74717400D01*
X108644296Y-73328530D02*
X109634000Y-74318234D01*
X107839904Y-73328530D02*
X108644296Y-73328530D01*
X107230304Y-73938130D02*
X107839904Y-73328530D01*
X106619512Y-73938130D02*
X107230304Y-73938130D01*
X106491242Y-74066400D02*
X106619512Y-73938130D01*
X104206434Y-74066400D02*
X106491242Y-74066400D01*
X109634000Y-74717400D02*
X109634000Y-75270600D01*
X103801304Y-74471530D02*
X104206434Y-74066400D01*
X100677607Y-74471530D02*
X103801304Y-74471530D01*
X95567500Y-72390000D02*
X97364643Y-72390000D01*
X97364643Y-72390000D02*
X98329841Y-73355198D01*
X98329841Y-73355198D02*
X98958398Y-73355198D01*
X98958398Y-73355198D02*
X100483670Y-74880470D01*
X100483670Y-74880470D02*
X103970696Y-74880470D01*
X103970696Y-74880470D02*
X104375835Y-74475331D01*
X104375835Y-74475331D02*
X106660626Y-74475331D01*
X106660626Y-74475331D02*
X106788887Y-74347070D01*
X106788887Y-74347070D02*
X107399696Y-74347070D01*
X107399696Y-74347070D02*
X108009296Y-73737470D01*
X108009296Y-73737470D02*
X108474904Y-73737470D01*
X108474904Y-73737470D02*
X109179530Y-74442096D01*
X109179530Y-74442096D02*
X109179530Y-74671870D01*
X109179530Y-74671870D02*
X109134000Y-74717400D01*
X109134000Y-74717400D02*
X109134000Y-75270600D01*
X108484000Y-76420600D02*
X107586400Y-76420600D01*
X107586400Y-76420600D02*
X107315000Y-76149200D01*
X116188717Y-68553691D02*
X116816054Y-68553691D01*
X115799188Y-68943220D02*
X116188717Y-68553691D01*
X115075400Y-68943220D02*
X115799188Y-68943220D01*
X125604460Y-68471840D02*
X125604460Y-67155883D01*
X125604460Y-67155883D02*
X125555276Y-67106699D01*
X115075400Y-68943220D02*
X115075400Y-69596420D01*
X115075400Y-69596420D02*
X110634000Y-74037820D01*
X110634000Y-74037820D02*
X110634000Y-74717400D01*
X110634000Y-74717400D02*
X110634000Y-75270600D01*
X121901260Y-72621840D02*
X122454460Y-72621840D01*
X113284000Y-76920600D02*
X113837200Y-76920600D01*
X113837200Y-76920600D02*
X114164102Y-76593698D01*
X115248249Y-76593698D02*
X117111767Y-74730180D01*
X117111767Y-74730180D02*
X117111767Y-73966638D01*
X117111767Y-73966638D02*
X118456565Y-72621840D01*
X118456565Y-72621840D02*
X121901260Y-72621840D01*
X114164102Y-76593698D02*
X115248249Y-76593698D01*
X130773660Y-76469240D02*
X131262120Y-76469240D01*
X129254460Y-74621840D02*
X129254460Y-74950040D01*
X129254460Y-74950040D02*
X130773660Y-76469240D01*
X113284000Y-77420600D02*
X114560220Y-77420600D01*
X114560220Y-77420600D02*
X114609880Y-77370940D01*
X116298945Y-73629958D02*
X118307063Y-71621840D01*
X116298945Y-74393500D02*
X116298945Y-73629958D01*
X118307063Y-71621840D02*
X121901260Y-71621840D01*
X121901260Y-71621840D02*
X122454460Y-71621840D01*
X113423724Y-75780876D02*
X114911568Y-75780876D01*
X114911568Y-75780876D02*
X116298945Y-74393500D01*
X113284000Y-75920600D02*
X113423724Y-75780876D01*
X113284000Y-76420600D02*
X113743405Y-76420600D01*
X115079909Y-76187287D02*
X116705356Y-74561840D01*
X121901260Y-72121840D02*
X122454460Y-72121840D01*
X118381814Y-72121840D02*
X121901260Y-72121840D01*
X113976718Y-76187287D02*
X115079909Y-76187287D01*
X116705356Y-74561840D02*
X116705356Y-73798298D01*
X113743405Y-76420600D02*
X113976718Y-76187287D01*
X116705356Y-73798298D02*
X118381814Y-72121840D01*
X129254460Y-69121840D02*
X129807660Y-69121840D01*
X130965964Y-68815601D02*
X134427619Y-68815601D01*
X134427619Y-68815601D02*
X135674100Y-67569120D01*
X135674100Y-67569120D02*
X135674100Y-67094120D01*
X129807660Y-69121840D02*
X129823684Y-69105816D01*
X129823684Y-69105816D02*
X130675749Y-69105816D01*
X130675749Y-69105816D02*
X130965964Y-68815601D01*
X130844089Y-69512227D02*
X131134304Y-69222012D01*
X131134304Y-69222012D02*
X135291208Y-69222012D01*
X135291208Y-69222012D02*
X136944100Y-67569120D01*
X136944100Y-67569120D02*
X136944100Y-67094120D01*
X129254460Y-69621840D02*
X129882411Y-69621840D01*
X129882411Y-69621840D02*
X129992024Y-69512227D01*
X129992024Y-69512227D02*
X130844089Y-69512227D01*
X129254460Y-70121840D02*
X129957162Y-70121840D01*
X130160364Y-69918638D02*
X131012429Y-69918638D01*
X131302644Y-69628423D02*
X133771756Y-69628423D01*
X129957162Y-70121840D02*
X130160364Y-69918638D01*
X134907300Y-71515920D02*
X134404100Y-72019120D01*
X134907300Y-70763967D02*
X134907300Y-71515920D01*
X133771756Y-69628423D02*
X134907300Y-70763967D01*
X131012429Y-69918638D02*
X131302644Y-69628423D01*
X134404100Y-72019120D02*
X134404100Y-72494120D01*
X129254460Y-70621840D02*
X130031913Y-70621840D01*
X130031913Y-70621840D02*
X130328704Y-70325049D01*
X131470984Y-70034834D02*
X133580556Y-70034834D01*
X131180769Y-70325049D02*
X131470984Y-70034834D01*
X133580556Y-70034834D02*
X134002781Y-70457059D01*
X134002781Y-70457059D02*
X134002781Y-71150439D01*
X130328704Y-70325049D02*
X131180769Y-70325049D01*
X134002781Y-71150439D02*
X133134100Y-72019120D01*
X133134100Y-72019120D02*
X133134100Y-72494120D01*
X129254460Y-74121840D02*
X136199500Y-74121840D01*
X136199500Y-74121840D02*
X136424040Y-74346380D01*
X136424040Y-74346380D02*
X136424040Y-75049580D01*
D35*
G36*
X100645713Y-77303022D02*
X100549040Y-77536411D01*
X100549040Y-77826970D01*
X100707790Y-77985720D01*
X101557040Y-77985720D01*
X101557040Y-77965720D01*
X101811040Y-77965720D01*
X101811040Y-77985720D01*
X102660290Y-77985720D01*
X102819040Y-77826970D01*
X102819040Y-77634400D01*
X103623380Y-77634400D01*
X104113136Y-78124156D01*
X104113136Y-78569200D01*
X104142706Y-78717859D01*
X104226914Y-78843886D01*
X104352941Y-78928094D01*
X104501600Y-78957664D01*
X105251600Y-78957664D01*
X105400259Y-78928094D01*
X105526286Y-78843886D01*
X105610494Y-78717859D01*
X105628965Y-78625000D01*
X106045765Y-78625000D01*
X106056914Y-78641686D01*
X106182941Y-78725894D01*
X106331600Y-78755464D01*
X106507436Y-78755464D01*
X106440350Y-78822550D01*
X106336124Y-78978536D01*
X106331600Y-78978536D01*
X106182941Y-79008106D01*
X106056914Y-79092314D01*
X106028793Y-79134400D01*
X105412135Y-79134400D01*
X105227452Y-79171136D01*
X105151062Y-79222178D01*
X105140676Y-79217865D01*
X104807219Y-79217574D01*
X104499034Y-79344914D01*
X104263039Y-79580497D01*
X104135162Y-79888459D01*
X104134871Y-80221916D01*
X104262211Y-80530101D01*
X104497794Y-80766096D01*
X104805756Y-80893973D01*
X105139213Y-80894264D01*
X105447398Y-80766924D01*
X105683393Y-80531341D01*
X105811270Y-80223379D01*
X105811378Y-80099600D01*
X106028793Y-80099600D01*
X106056914Y-80141686D01*
X106182941Y-80225894D01*
X106331600Y-80255464D01*
X107231600Y-80255464D01*
X107380259Y-80225894D01*
X107416721Y-80201531D01*
X107416455Y-80506197D01*
X107543795Y-80814382D01*
X107779378Y-81050377D01*
X108087340Y-81178254D01*
X108420797Y-81178545D01*
X108728982Y-81051205D01*
X108964977Y-80815622D01*
X108970851Y-80801476D01*
X109009000Y-80809064D01*
X109259000Y-80809064D01*
X109268033Y-80807267D01*
X108857899Y-81217401D01*
X108799999Y-81217401D01*
X108615316Y-81254137D01*
X108458749Y-81358751D01*
X108425777Y-81391723D01*
X108421083Y-81388587D01*
X107950000Y-81294883D01*
X107478917Y-81388587D01*
X107079552Y-81655435D01*
X106812704Y-82054800D01*
X106804917Y-82093947D01*
X106605183Y-81668642D01*
X106176924Y-81278355D01*
X105766890Y-81108524D01*
X105537000Y-81229845D01*
X105537000Y-82423000D01*
X105557000Y-82423000D01*
X105557000Y-82677000D01*
X105537000Y-82677000D01*
X105537000Y-82697000D01*
X105283000Y-82697000D01*
X105283000Y-82677000D01*
X105263000Y-82677000D01*
X105263000Y-82423000D01*
X105283000Y-82423000D01*
X105283000Y-81229845D01*
X105053110Y-81108524D01*
X104643076Y-81278355D01*
X104214817Y-81668642D01*
X104015083Y-82093947D01*
X104007296Y-82054800D01*
X103740448Y-81655435D01*
X103341083Y-81388587D01*
X102870000Y-81294883D01*
X102398917Y-81388587D01*
X101999552Y-81655435D01*
X101732704Y-82054800D01*
X101639000Y-82525883D01*
X101639000Y-82574117D01*
X101732704Y-83045200D01*
X101945720Y-83364000D01*
X101254280Y-83364000D01*
X101467296Y-83045200D01*
X101561000Y-82574117D01*
X101561000Y-82525883D01*
X101467296Y-82054800D01*
X101200448Y-81655435D01*
X100801083Y-81388587D01*
X100330000Y-81294883D01*
X99882347Y-81383927D01*
X99009200Y-80510780D01*
X99009200Y-78398470D01*
X100549040Y-78398470D01*
X100549040Y-78689029D01*
X100645713Y-78922418D01*
X100824341Y-79101047D01*
X100831782Y-79104129D01*
X100825146Y-79114061D01*
X100795576Y-79262720D01*
X100795576Y-80162720D01*
X100825146Y-80311379D01*
X100909354Y-80437406D01*
X101035381Y-80521614D01*
X101184040Y-80551184D01*
X102184040Y-80551184D01*
X102332699Y-80521614D01*
X102455973Y-80439245D01*
X102455835Y-80597637D01*
X102583175Y-80905822D01*
X102818758Y-81141817D01*
X103126720Y-81269694D01*
X103460177Y-81269985D01*
X103768362Y-81142645D01*
X104004357Y-80907062D01*
X104132234Y-80599100D01*
X104132525Y-80265643D01*
X104005185Y-79957458D01*
X103769602Y-79721463D01*
X103461640Y-79593586D01*
X103138344Y-79593304D01*
X102916510Y-79371470D01*
X102759943Y-79266856D01*
X102575260Y-79230120D01*
X102566019Y-79230120D01*
X102542934Y-79114061D01*
X102536298Y-79104129D01*
X102543739Y-79101047D01*
X102722367Y-78922418D01*
X102819040Y-78689029D01*
X102819040Y-78398470D01*
X102660290Y-78239720D01*
X101811040Y-78239720D01*
X101811040Y-78259720D01*
X101557040Y-78259720D01*
X101557040Y-78239720D01*
X100707790Y-78239720D01*
X100549040Y-78398470D01*
X99009200Y-78398470D01*
X99009200Y-77825599D01*
X99085401Y-77825599D01*
X99279804Y-77786930D01*
X99444611Y-77676809D01*
X99651524Y-77469896D01*
X99937197Y-77470145D01*
X100245382Y-77342805D01*
X100448742Y-77139800D01*
X100808934Y-77139800D01*
X100645713Y-77303022D01*
X100645713Y-77303022D01*
G37*
X100645713Y-77303022D02*
X100549040Y-77536411D01*
X100549040Y-77826970D01*
X100707790Y-77985720D01*
X101557040Y-77985720D01*
X101557040Y-77965720D01*
X101811040Y-77965720D01*
X101811040Y-77985720D01*
X102660290Y-77985720D01*
X102819040Y-77826970D01*
X102819040Y-77634400D01*
X103623380Y-77634400D01*
X104113136Y-78124156D01*
X104113136Y-78569200D01*
X104142706Y-78717859D01*
X104226914Y-78843886D01*
X104352941Y-78928094D01*
X104501600Y-78957664D01*
X105251600Y-78957664D01*
X105400259Y-78928094D01*
X105526286Y-78843886D01*
X105610494Y-78717859D01*
X105628965Y-78625000D01*
X106045765Y-78625000D01*
X106056914Y-78641686D01*
X106182941Y-78725894D01*
X106331600Y-78755464D01*
X106507436Y-78755464D01*
X106440350Y-78822550D01*
X106336124Y-78978536D01*
X106331600Y-78978536D01*
X106182941Y-79008106D01*
X106056914Y-79092314D01*
X106028793Y-79134400D01*
X105412135Y-79134400D01*
X105227452Y-79171136D01*
X105151062Y-79222178D01*
X105140676Y-79217865D01*
X104807219Y-79217574D01*
X104499034Y-79344914D01*
X104263039Y-79580497D01*
X104135162Y-79888459D01*
X104134871Y-80221916D01*
X104262211Y-80530101D01*
X104497794Y-80766096D01*
X104805756Y-80893973D01*
X105139213Y-80894264D01*
X105447398Y-80766924D01*
X105683393Y-80531341D01*
X105811270Y-80223379D01*
X105811378Y-80099600D01*
X106028793Y-80099600D01*
X106056914Y-80141686D01*
X106182941Y-80225894D01*
X106331600Y-80255464D01*
X107231600Y-80255464D01*
X107380259Y-80225894D01*
X107416721Y-80201531D01*
X107416455Y-80506197D01*
X107543795Y-80814382D01*
X107779378Y-81050377D01*
X108087340Y-81178254D01*
X108420797Y-81178545D01*
X108728982Y-81051205D01*
X108964977Y-80815622D01*
X108970851Y-80801476D01*
X109009000Y-80809064D01*
X109259000Y-80809064D01*
X109268033Y-80807267D01*
X108857899Y-81217401D01*
X108799999Y-81217401D01*
X108615316Y-81254137D01*
X108458749Y-81358751D01*
X108425777Y-81391723D01*
X108421083Y-81388587D01*
X107950000Y-81294883D01*
X107478917Y-81388587D01*
X107079552Y-81655435D01*
X106812704Y-82054800D01*
X106804917Y-82093947D01*
X106605183Y-81668642D01*
X106176924Y-81278355D01*
X105766890Y-81108524D01*
X105537000Y-81229845D01*
X105537000Y-82423000D01*
X105557000Y-82423000D01*
X105557000Y-82677000D01*
X105537000Y-82677000D01*
X105537000Y-82697000D01*
X105283000Y-82697000D01*
X105283000Y-82677000D01*
X105263000Y-82677000D01*
X105263000Y-82423000D01*
X105283000Y-82423000D01*
X105283000Y-81229845D01*
X105053110Y-81108524D01*
X104643076Y-81278355D01*
X104214817Y-81668642D01*
X104015083Y-82093947D01*
X104007296Y-82054800D01*
X103740448Y-81655435D01*
X103341083Y-81388587D01*
X102870000Y-81294883D01*
X102398917Y-81388587D01*
X101999552Y-81655435D01*
X101732704Y-82054800D01*
X101639000Y-82525883D01*
X101639000Y-82574117D01*
X101732704Y-83045200D01*
X101945720Y-83364000D01*
X101254280Y-83364000D01*
X101467296Y-83045200D01*
X101561000Y-82574117D01*
X101561000Y-82525883D01*
X101467296Y-82054800D01*
X101200448Y-81655435D01*
X100801083Y-81388587D01*
X100330000Y-81294883D01*
X99882347Y-81383927D01*
X99009200Y-80510780D01*
X99009200Y-78398470D01*
X100549040Y-78398470D01*
X100549040Y-78689029D01*
X100645713Y-78922418D01*
X100824341Y-79101047D01*
X100831782Y-79104129D01*
X100825146Y-79114061D01*
X100795576Y-79262720D01*
X100795576Y-80162720D01*
X100825146Y-80311379D01*
X100909354Y-80437406D01*
X101035381Y-80521614D01*
X101184040Y-80551184D01*
X102184040Y-80551184D01*
X102332699Y-80521614D01*
X102455973Y-80439245D01*
X102455835Y-80597637D01*
X102583175Y-80905822D01*
X102818758Y-81141817D01*
X103126720Y-81269694D01*
X103460177Y-81269985D01*
X103768362Y-81142645D01*
X104004357Y-80907062D01*
X104132234Y-80599100D01*
X104132525Y-80265643D01*
X104005185Y-79957458D01*
X103769602Y-79721463D01*
X103461640Y-79593586D01*
X103138344Y-79593304D01*
X102916510Y-79371470D01*
X102759943Y-79266856D01*
X102575260Y-79230120D01*
X102566019Y-79230120D01*
X102542934Y-79114061D01*
X102536298Y-79104129D01*
X102543739Y-79101047D01*
X102722367Y-78922418D01*
X102819040Y-78689029D01*
X102819040Y-78398470D01*
X102660290Y-78239720D01*
X101811040Y-78239720D01*
X101811040Y-78259720D01*
X101557040Y-78259720D01*
X101557040Y-78239720D01*
X100707790Y-78239720D01*
X100549040Y-78398470D01*
X99009200Y-78398470D01*
X99009200Y-77825599D01*
X99085401Y-77825599D01*
X99279804Y-77786930D01*
X99444611Y-77676809D01*
X99651524Y-77469896D01*
X99937197Y-77470145D01*
X100245382Y-77342805D01*
X100448742Y-77139800D01*
X100808934Y-77139800D01*
X100645713Y-77303022D01*
G36*
X129672704Y-61734800D02*
X129579000Y-62205883D01*
X129579000Y-62254117D01*
X129672704Y-62725200D01*
X129939552Y-63124565D01*
X130338917Y-63391413D01*
X130810000Y-63485117D01*
X131281083Y-63391413D01*
X131680448Y-63124565D01*
X131947296Y-62725200D01*
X132041000Y-62254117D01*
X132041000Y-62205883D01*
X131947296Y-61734800D01*
X131734280Y-61416000D01*
X132425720Y-61416000D01*
X132212704Y-61734800D01*
X132119000Y-62205883D01*
X132119000Y-62254117D01*
X132212704Y-62725200D01*
X132479552Y-63124565D01*
X132878917Y-63391413D01*
X133350000Y-63485117D01*
X133821083Y-63391413D01*
X134220448Y-63124565D01*
X134487296Y-62725200D01*
X134581000Y-62254117D01*
X134581000Y-62205883D01*
X134487296Y-61734800D01*
X134274280Y-61416000D01*
X134965720Y-61416000D01*
X134752704Y-61734800D01*
X134659000Y-62205883D01*
X134659000Y-62254117D01*
X134752704Y-62725200D01*
X135019552Y-63124565D01*
X135418917Y-63391413D01*
X135890000Y-63485117D01*
X136361083Y-63391413D01*
X136760448Y-63124565D01*
X137027296Y-62725200D01*
X137121000Y-62254117D01*
X137121000Y-62205883D01*
X137027296Y-61734800D01*
X136814280Y-61416000D01*
X139655089Y-61416000D01*
X140494094Y-61582888D01*
X141167293Y-62032707D01*
X141617112Y-62705906D01*
X141784000Y-63544911D01*
X141784000Y-67379002D01*
X141748880Y-67372016D01*
X140048880Y-67372016D01*
X139900221Y-67401586D01*
X139774194Y-67485794D01*
X139689986Y-67611821D01*
X139660416Y-67760480D01*
X139660416Y-69460480D01*
X139689986Y-69609139D01*
X139774194Y-69735166D01*
X139900221Y-69819374D01*
X140048880Y-69848944D01*
X141748880Y-69848944D01*
X141784000Y-69841958D01*
X141784000Y-70273721D01*
X141394080Y-70013184D01*
X140922997Y-69919480D01*
X140874763Y-69919480D01*
X140403680Y-70013184D01*
X140004315Y-70280032D01*
X139737467Y-70679397D01*
X139643763Y-71150480D01*
X139737467Y-71621563D01*
X140004315Y-72020928D01*
X140403680Y-72287776D01*
X140874763Y-72381480D01*
X140922997Y-72381480D01*
X141394080Y-72287776D01*
X141784000Y-72027239D01*
X141784000Y-72813721D01*
X141394080Y-72553184D01*
X140922997Y-72459480D01*
X140874763Y-72459480D01*
X140403680Y-72553184D01*
X140004315Y-72820032D01*
X139737467Y-73219397D01*
X139643763Y-73690480D01*
X139737467Y-74161563D01*
X140004315Y-74560928D01*
X140403680Y-74827776D01*
X140874763Y-74921480D01*
X140922997Y-74921480D01*
X141394080Y-74827776D01*
X141784000Y-74567239D01*
X141784000Y-75353721D01*
X141394080Y-75093184D01*
X140922997Y-74999480D01*
X140874763Y-74999480D01*
X140403680Y-75093184D01*
X140004315Y-75360032D01*
X139737467Y-75759397D01*
X139643763Y-76230480D01*
X139737467Y-76701563D01*
X140004315Y-77100928D01*
X140403680Y-77367776D01*
X140874763Y-77461480D01*
X140922997Y-77461480D01*
X141394080Y-77367776D01*
X141784000Y-77107239D01*
X141784000Y-81235089D01*
X141617112Y-82074094D01*
X141167293Y-82747293D01*
X140494094Y-83197112D01*
X139655089Y-83364000D01*
X137116816Y-83364000D01*
X137331486Y-82906892D01*
X137210819Y-82677000D01*
X136017000Y-82677000D01*
X136017000Y-82697000D01*
X135763000Y-82697000D01*
X135763000Y-82677000D01*
X135743000Y-82677000D01*
X135743000Y-82423000D01*
X135763000Y-82423000D01*
X135763000Y-82403000D01*
X136017000Y-82403000D01*
X136017000Y-82423000D01*
X137210819Y-82423000D01*
X137331486Y-82193108D01*
X137085183Y-81668642D01*
X137034889Y-81622807D01*
X137968700Y-81622807D01*
X138231674Y-82259252D01*
X138718187Y-82746614D01*
X139354172Y-83010699D01*
X140042807Y-83011300D01*
X140679252Y-82748326D01*
X141166614Y-82261813D01*
X141430699Y-81625828D01*
X141431300Y-80937193D01*
X141168326Y-80300748D01*
X140681813Y-79813386D01*
X140045828Y-79549301D01*
X139357193Y-79548700D01*
X138720748Y-79811674D01*
X138233386Y-80298187D01*
X137969301Y-80934172D01*
X137968700Y-81622807D01*
X137034889Y-81622807D01*
X136656924Y-81278355D01*
X136246890Y-81108524D01*
X136017002Y-81229844D01*
X136017002Y-81187760D01*
X139406250Y-77798512D01*
X139510864Y-77641945D01*
X139547601Y-77457262D01*
X139547600Y-77457257D01*
X139547600Y-66413380D01*
X139510864Y-66228697D01*
X139406250Y-66072130D01*
X137176927Y-63842807D01*
X137968700Y-63842807D01*
X138231674Y-64479252D01*
X138718187Y-64966614D01*
X139354172Y-65230699D01*
X140042807Y-65231300D01*
X140679252Y-64968326D01*
X141166614Y-64481813D01*
X141430699Y-63845828D01*
X141431300Y-63157193D01*
X141168326Y-62520748D01*
X140681813Y-62033386D01*
X140045828Y-61769301D01*
X139357193Y-61768700D01*
X138720748Y-62031674D01*
X138233386Y-62518187D01*
X137969301Y-63154172D01*
X137968700Y-63842807D01*
X137176927Y-63842807D01*
X137168510Y-63834390D01*
X137011943Y-63729776D01*
X136827260Y-63693040D01*
X127664502Y-63693040D01*
X127515354Y-63543632D01*
X127604684Y-63525863D01*
X127761251Y-63421249D01*
X127794223Y-63388277D01*
X127798917Y-63391413D01*
X128270000Y-63485117D01*
X128741083Y-63391413D01*
X129140448Y-63124565D01*
X129407296Y-62725200D01*
X129501000Y-62254117D01*
X129501000Y-62205883D01*
X129407296Y-61734800D01*
X129194280Y-61416000D01*
X129885720Y-61416000D01*
X129672704Y-61734800D01*
X129672704Y-61734800D01*
G37*
X129672704Y-61734800D02*
X129579000Y-62205883D01*
X129579000Y-62254117D01*
X129672704Y-62725200D01*
X129939552Y-63124565D01*
X130338917Y-63391413D01*
X130810000Y-63485117D01*
X131281083Y-63391413D01*
X131680448Y-63124565D01*
X131947296Y-62725200D01*
X132041000Y-62254117D01*
X132041000Y-62205883D01*
X131947296Y-61734800D01*
X131734280Y-61416000D01*
X132425720Y-61416000D01*
X132212704Y-61734800D01*
X132119000Y-62205883D01*
X132119000Y-62254117D01*
X132212704Y-62725200D01*
X132479552Y-63124565D01*
X132878917Y-63391413D01*
X133350000Y-63485117D01*
X133821083Y-63391413D01*
X134220448Y-63124565D01*
X134487296Y-62725200D01*
X134581000Y-62254117D01*
X134581000Y-62205883D01*
X134487296Y-61734800D01*
X134274280Y-61416000D01*
X134965720Y-61416000D01*
X134752704Y-61734800D01*
X134659000Y-62205883D01*
X134659000Y-62254117D01*
X134752704Y-62725200D01*
X135019552Y-63124565D01*
X135418917Y-63391413D01*
X135890000Y-63485117D01*
X136361083Y-63391413D01*
X136760448Y-63124565D01*
X137027296Y-62725200D01*
X137121000Y-62254117D01*
X137121000Y-62205883D01*
X137027296Y-61734800D01*
X136814280Y-61416000D01*
X139655089Y-61416000D01*
X140494094Y-61582888D01*
X141167293Y-62032707D01*
X141617112Y-62705906D01*
X141784000Y-63544911D01*
X141784000Y-67379002D01*
X141748880Y-67372016D01*
X140048880Y-67372016D01*
X139900221Y-67401586D01*
X139774194Y-67485794D01*
X139689986Y-67611821D01*
X139660416Y-67760480D01*
X139660416Y-69460480D01*
X139689986Y-69609139D01*
X139774194Y-69735166D01*
X139900221Y-69819374D01*
X140048880Y-69848944D01*
X141748880Y-69848944D01*
X141784000Y-69841958D01*
X141784000Y-70273721D01*
X141394080Y-70013184D01*
X140922997Y-69919480D01*
X140874763Y-69919480D01*
X140403680Y-70013184D01*
X140004315Y-70280032D01*
X139737467Y-70679397D01*
X139643763Y-71150480D01*
X139737467Y-71621563D01*
X140004315Y-72020928D01*
X140403680Y-72287776D01*
X140874763Y-72381480D01*
X140922997Y-72381480D01*
X141394080Y-72287776D01*
X141784000Y-72027239D01*
X141784000Y-72813721D01*
X141394080Y-72553184D01*
X140922997Y-72459480D01*
X140874763Y-72459480D01*
X140403680Y-72553184D01*
X140004315Y-72820032D01*
X139737467Y-73219397D01*
X139643763Y-73690480D01*
X139737467Y-74161563D01*
X140004315Y-74560928D01*
X140403680Y-74827776D01*
X140874763Y-74921480D01*
X140922997Y-74921480D01*
X141394080Y-74827776D01*
X141784000Y-74567239D01*
X141784000Y-75353721D01*
X141394080Y-75093184D01*
X140922997Y-74999480D01*
X140874763Y-74999480D01*
X140403680Y-75093184D01*
X140004315Y-75360032D01*
X139737467Y-75759397D01*
X139643763Y-76230480D01*
X139737467Y-76701563D01*
X140004315Y-77100928D01*
X140403680Y-77367776D01*
X140874763Y-77461480D01*
X140922997Y-77461480D01*
X141394080Y-77367776D01*
X141784000Y-77107239D01*
X141784000Y-81235089D01*
X141617112Y-82074094D01*
X141167293Y-82747293D01*
X140494094Y-83197112D01*
X139655089Y-83364000D01*
X137116816Y-83364000D01*
X137331486Y-82906892D01*
X137210819Y-82677000D01*
X136017000Y-82677000D01*
X136017000Y-82697000D01*
X135763000Y-82697000D01*
X135763000Y-82677000D01*
X135743000Y-82677000D01*
X135743000Y-82423000D01*
X135763000Y-82423000D01*
X135763000Y-82403000D01*
X136017000Y-82403000D01*
X136017000Y-82423000D01*
X137210819Y-82423000D01*
X137331486Y-82193108D01*
X137085183Y-81668642D01*
X137034889Y-81622807D01*
X137968700Y-81622807D01*
X138231674Y-82259252D01*
X138718187Y-82746614D01*
X139354172Y-83010699D01*
X140042807Y-83011300D01*
X140679252Y-82748326D01*
X141166614Y-82261813D01*
X141430699Y-81625828D01*
X141431300Y-80937193D01*
X141168326Y-80300748D01*
X140681813Y-79813386D01*
X140045828Y-79549301D01*
X139357193Y-79548700D01*
X138720748Y-79811674D01*
X138233386Y-80298187D01*
X137969301Y-80934172D01*
X137968700Y-81622807D01*
X137034889Y-81622807D01*
X136656924Y-81278355D01*
X136246890Y-81108524D01*
X136017002Y-81229844D01*
X136017002Y-81187760D01*
X139406250Y-77798512D01*
X139510864Y-77641945D01*
X139547601Y-77457262D01*
X139547600Y-77457257D01*
X139547600Y-66413380D01*
X139510864Y-66228697D01*
X139406250Y-66072130D01*
X137176927Y-63842807D01*
X137968700Y-63842807D01*
X138231674Y-64479252D01*
X138718187Y-64966614D01*
X139354172Y-65230699D01*
X140042807Y-65231300D01*
X140679252Y-64968326D01*
X141166614Y-64481813D01*
X141430699Y-63845828D01*
X141431300Y-63157193D01*
X141168326Y-62520748D01*
X140681813Y-62033386D01*
X140045828Y-61769301D01*
X139357193Y-61768700D01*
X138720748Y-62031674D01*
X138233386Y-62518187D01*
X137969301Y-63154172D01*
X137968700Y-63842807D01*
X137176927Y-63842807D01*
X137168510Y-63834390D01*
X137011943Y-63729776D01*
X136827260Y-63693040D01*
X127664502Y-63693040D01*
X127515354Y-63543632D01*
X127604684Y-63525863D01*
X127761251Y-63421249D01*
X127794223Y-63388277D01*
X127798917Y-63391413D01*
X128270000Y-63485117D01*
X128741083Y-63391413D01*
X129140448Y-63124565D01*
X129407296Y-62725200D01*
X129501000Y-62254117D01*
X129501000Y-62205883D01*
X129407296Y-61734800D01*
X129194280Y-61416000D01*
X129885720Y-61416000D01*
X129672704Y-61734800D01*
G36*
X97873536Y-61465000D02*
X97873536Y-64865000D01*
X97875571Y-64875228D01*
X97866005Y-64852078D01*
X97630422Y-64616083D01*
X97322460Y-64488206D01*
X96989003Y-64487915D01*
X96680818Y-64615255D01*
X96444823Y-64850838D01*
X96439366Y-64863979D01*
X96003021Y-64863979D01*
X95818338Y-64900715D01*
X95661771Y-65005329D01*
X95661769Y-65005332D01*
X94317549Y-66349551D01*
X94239059Y-66297106D01*
X94090400Y-66267536D01*
X93490400Y-66267536D01*
X93341741Y-66297106D01*
X93215714Y-66381314D01*
X93131506Y-66507341D01*
X93101936Y-66656000D01*
X93101936Y-67456000D01*
X93105306Y-67472943D01*
X93019500Y-67520085D01*
X93019500Y-68813000D01*
X94116250Y-68813000D01*
X94166250Y-68863000D01*
X95215500Y-68863000D01*
X95215500Y-68843000D01*
X95469500Y-68843000D01*
X95469500Y-68863000D01*
X96253725Y-68863000D01*
X96451690Y-68945000D01*
X96742250Y-68945000D01*
X96901000Y-68786250D01*
X96901000Y-68185000D01*
X97155000Y-68185000D01*
X97155000Y-68786250D01*
X97313750Y-68945000D01*
X97604310Y-68945000D01*
X97837699Y-68848327D01*
X98016327Y-68669698D01*
X98113000Y-68436309D01*
X98113000Y-68343750D01*
X97954250Y-68185000D01*
X97155000Y-68185000D01*
X96901000Y-68185000D01*
X96881000Y-68185000D01*
X96881000Y-67935000D01*
X96901000Y-67935000D01*
X96901000Y-67913000D01*
X97155000Y-67913000D01*
X97155000Y-67935000D01*
X97954250Y-67935000D01*
X98113000Y-67776250D01*
X98113000Y-67683691D01*
X98016327Y-67450302D01*
X97837699Y-67271673D01*
X97604310Y-67175000D01*
X97595962Y-67175000D01*
X97626659Y-67168894D01*
X97752686Y-67084686D01*
X97783419Y-67038690D01*
X100227000Y-67038690D01*
X100227000Y-68629250D01*
X100385750Y-68788000D01*
X101235000Y-68788000D01*
X101235000Y-66688750D01*
X101076250Y-66530000D01*
X100735691Y-66530000D01*
X100502302Y-66626673D01*
X100323673Y-66805301D01*
X100227000Y-67038690D01*
X97783419Y-67038690D01*
X97836894Y-66958659D01*
X97866464Y-66810000D01*
X97866464Y-66310000D01*
X97836894Y-66161341D01*
X97752686Y-66035314D01*
X97679873Y-65986662D01*
X97865177Y-65801682D01*
X97993054Y-65493720D01*
X97993345Y-65160263D01*
X97980838Y-65129994D01*
X97987314Y-65139686D01*
X98113341Y-65223894D01*
X98262000Y-65253464D01*
X99762000Y-65253464D01*
X99910659Y-65223894D01*
X100036686Y-65139686D01*
X100120894Y-65013659D01*
X100150464Y-64865000D01*
X100150464Y-61465000D01*
X100140717Y-61416000D01*
X104583283Y-61416000D01*
X104573536Y-61465000D01*
X104573536Y-64865000D01*
X104603106Y-65013659D01*
X104687314Y-65139686D01*
X104813341Y-65223894D01*
X104962000Y-65253464D01*
X105081932Y-65253464D01*
X105001115Y-65307465D01*
X103532044Y-66776536D01*
X102862000Y-66776536D01*
X102713341Y-66806106D01*
X102587314Y-66890314D01*
X102503106Y-67016341D01*
X102497000Y-67047038D01*
X102497000Y-67038690D01*
X102400327Y-66805301D01*
X102221698Y-66626673D01*
X101988309Y-66530000D01*
X101647750Y-66530000D01*
X101489000Y-66688750D01*
X101489000Y-68788000D01*
X101509000Y-68788000D01*
X101509000Y-69042000D01*
X101489000Y-69042000D01*
X101489000Y-69062000D01*
X101235000Y-69062000D01*
X101235000Y-69042000D01*
X100385750Y-69042000D01*
X100227000Y-69200750D01*
X100227000Y-70791310D01*
X100323673Y-71024699D01*
X100502302Y-71203327D01*
X100735691Y-71300000D01*
X100773631Y-71300000D01*
X100700706Y-71409141D01*
X100682235Y-71502000D01*
X100138527Y-71502000D01*
X100120494Y-71411341D01*
X100036286Y-71285314D01*
X99910259Y-71201106D01*
X99761600Y-71171536D01*
X98561600Y-71171536D01*
X98412941Y-71201106D01*
X98286914Y-71285314D01*
X98202706Y-71411341D01*
X98173136Y-71560000D01*
X98173136Y-71937679D01*
X97657414Y-71421956D01*
X97788977Y-71290622D01*
X97916854Y-70982660D01*
X97917145Y-70649203D01*
X97789805Y-70341018D01*
X97554222Y-70105023D01*
X97246260Y-69977146D01*
X96912803Y-69976855D01*
X96648629Y-70086010D01*
X96677500Y-70016309D01*
X96677500Y-69275750D01*
X96518750Y-69117000D01*
X95469500Y-69117000D01*
X95469500Y-69137000D01*
X95215500Y-69137000D01*
X95215500Y-69117000D01*
X94201925Y-69117000D01*
X94169766Y-69067000D01*
X93019500Y-69067000D01*
X93019500Y-71063000D01*
X94318750Y-71063000D01*
X94477500Y-70904250D01*
X94477500Y-70508974D01*
X94516190Y-70525000D01*
X94774538Y-70525000D01*
X94743841Y-70531106D01*
X94617814Y-70615314D01*
X94533606Y-70741341D01*
X94504036Y-70890000D01*
X94504036Y-71290000D01*
X94528900Y-71415000D01*
X94504036Y-71540000D01*
X94504036Y-71940000D01*
X94528900Y-72065000D01*
X94504036Y-72190000D01*
X94504036Y-72590000D01*
X94528900Y-72715000D01*
X94504036Y-72840000D01*
X94504036Y-72980438D01*
X94477500Y-73006974D01*
X94477500Y-72513691D01*
X94426265Y-72390000D01*
X94477500Y-72266309D01*
X94477500Y-71475750D01*
X94318750Y-71317000D01*
X93019500Y-71317000D01*
X93019500Y-73463000D01*
X94289250Y-73463000D01*
X94416250Y-73590000D01*
X94730530Y-73590000D01*
X94743841Y-73598894D01*
X94892500Y-73628464D01*
X96242500Y-73628464D01*
X96391159Y-73598894D01*
X96404470Y-73590000D01*
X96718750Y-73590000D01*
X96877500Y-73431250D01*
X96877500Y-73363691D01*
X96780827Y-73130302D01*
X96630964Y-72980438D01*
X96630964Y-72872600D01*
X97164743Y-72872600D01*
X97925978Y-73633835D01*
X97918021Y-73641778D01*
X97790144Y-73949740D01*
X97789853Y-74283197D01*
X97822456Y-74362103D01*
X97779059Y-74333106D01*
X97630400Y-74303536D01*
X96730400Y-74303536D01*
X96726142Y-74304383D01*
X96780827Y-74249698D01*
X96877500Y-74016309D01*
X96877500Y-73948750D01*
X96718750Y-73790000D01*
X95694500Y-73790000D01*
X95694500Y-73837000D01*
X95440500Y-73837000D01*
X95440500Y-73790000D01*
X94416250Y-73790000D01*
X94404000Y-73802250D01*
X94318750Y-73717000D01*
X93019500Y-73717000D01*
X93019500Y-75713000D01*
X94169766Y-75713000D01*
X94201925Y-75663000D01*
X95215500Y-75663000D01*
X95215500Y-75643000D01*
X95469500Y-75643000D01*
X95469500Y-75663000D01*
X96518750Y-75663000D01*
X96622707Y-75559043D01*
X96730400Y-75580464D01*
X96825128Y-75580464D01*
X96839150Y-75601450D01*
X97041236Y-75803536D01*
X96730400Y-75803536D01*
X96581741Y-75833106D01*
X96456184Y-75917000D01*
X95469500Y-75917000D01*
X95469500Y-75937000D01*
X95215500Y-75937000D01*
X95215500Y-75917000D01*
X94166250Y-75917000D01*
X94116250Y-75967000D01*
X93019500Y-75967000D01*
X93019500Y-77259915D01*
X93105306Y-77307057D01*
X93101936Y-77324000D01*
X93101936Y-78124000D01*
X93131506Y-78272659D01*
X93215714Y-78398686D01*
X93341741Y-78482894D01*
X93490400Y-78512464D01*
X93760444Y-78512464D01*
X94061391Y-78813411D01*
X94226198Y-78923532D01*
X94420601Y-78962201D01*
X96054561Y-78962201D01*
X96248964Y-78923532D01*
X96413771Y-78813411D01*
X96475141Y-78752041D01*
X96545713Y-78922418D01*
X96724341Y-79101047D01*
X96731782Y-79104129D01*
X96725146Y-79114061D01*
X96695576Y-79262720D01*
X96695576Y-80162720D01*
X96725146Y-80311379D01*
X96809354Y-80437406D01*
X96935381Y-80521614D01*
X97084040Y-80551184D01*
X97101440Y-80551184D01*
X97101440Y-81311536D01*
X96940000Y-81311536D01*
X96791341Y-81341106D01*
X96665314Y-81425314D01*
X96581106Y-81551341D01*
X96551536Y-81700000D01*
X96551536Y-83364000D01*
X94024911Y-83364000D01*
X93185906Y-83197112D01*
X92512707Y-82747293D01*
X92062888Y-82074094D01*
X91973122Y-81622807D01*
X92248700Y-81622807D01*
X92511674Y-82259252D01*
X92998187Y-82746614D01*
X93634172Y-83010699D01*
X94322807Y-83011300D01*
X94959252Y-82748326D01*
X95446614Y-82261813D01*
X95710699Y-81625828D01*
X95711300Y-80937193D01*
X95448326Y-80300748D01*
X94961813Y-79813386D01*
X94325828Y-79549301D01*
X93637193Y-79548700D01*
X93000748Y-79811674D01*
X92513386Y-80298187D01*
X92249301Y-80934172D01*
X92248700Y-81622807D01*
X91973122Y-81622807D01*
X91896000Y-81235089D01*
X91896000Y-76988739D01*
X92029824Y-77138243D01*
X92534905Y-77380970D01*
X92543461Y-77381904D01*
X92765500Y-77259915D01*
X92765500Y-75967000D01*
X92745500Y-75967000D01*
X92745500Y-75713000D01*
X92765500Y-75713000D01*
X92765500Y-73717000D01*
X92745500Y-73717000D01*
X92745500Y-73463000D01*
X92765500Y-73463000D01*
X92765500Y-71317000D01*
X92745500Y-71317000D01*
X92745500Y-71063000D01*
X92765500Y-71063000D01*
X92765500Y-69067000D01*
X92745500Y-69067000D01*
X92745500Y-68813000D01*
X92765500Y-68813000D01*
X92765500Y-67520085D01*
X92543461Y-67398096D01*
X92534905Y-67399030D01*
X92029824Y-67641757D01*
X91896000Y-67791261D01*
X91896000Y-63842807D01*
X92248700Y-63842807D01*
X92511674Y-64479252D01*
X92998187Y-64966614D01*
X93634172Y-65230699D01*
X94322807Y-65231300D01*
X94959252Y-64968326D01*
X95446614Y-64481813D01*
X95710699Y-63845828D01*
X95711300Y-63157193D01*
X95448326Y-62520748D01*
X94961813Y-62033386D01*
X94325828Y-61769301D01*
X93637193Y-61768700D01*
X93000748Y-62031674D01*
X92513386Y-62518187D01*
X92249301Y-63154172D01*
X92248700Y-63842807D01*
X91896000Y-63842807D01*
X91896000Y-63544911D01*
X92062888Y-62705906D01*
X92512707Y-62032707D01*
X93185906Y-61582888D01*
X94024911Y-61416000D01*
X97883283Y-61416000D01*
X97873536Y-61465000D01*
X97873536Y-61465000D01*
G37*
X97873536Y-61465000D02*
X97873536Y-64865000D01*
X97875571Y-64875228D01*
X97866005Y-64852078D01*
X97630422Y-64616083D01*
X97322460Y-64488206D01*
X96989003Y-64487915D01*
X96680818Y-64615255D01*
X96444823Y-64850838D01*
X96439366Y-64863979D01*
X96003021Y-64863979D01*
X95818338Y-64900715D01*
X95661771Y-65005329D01*
X95661769Y-65005332D01*
X94317549Y-66349551D01*
X94239059Y-66297106D01*
X94090400Y-66267536D01*
X93490400Y-66267536D01*
X93341741Y-66297106D01*
X93215714Y-66381314D01*
X93131506Y-66507341D01*
X93101936Y-66656000D01*
X93101936Y-67456000D01*
X93105306Y-67472943D01*
X93019500Y-67520085D01*
X93019500Y-68813000D01*
X94116250Y-68813000D01*
X94166250Y-68863000D01*
X95215500Y-68863000D01*
X95215500Y-68843000D01*
X95469500Y-68843000D01*
X95469500Y-68863000D01*
X96253725Y-68863000D01*
X96451690Y-68945000D01*
X96742250Y-68945000D01*
X96901000Y-68786250D01*
X96901000Y-68185000D01*
X97155000Y-68185000D01*
X97155000Y-68786250D01*
X97313750Y-68945000D01*
X97604310Y-68945000D01*
X97837699Y-68848327D01*
X98016327Y-68669698D01*
X98113000Y-68436309D01*
X98113000Y-68343750D01*
X97954250Y-68185000D01*
X97155000Y-68185000D01*
X96901000Y-68185000D01*
X96881000Y-68185000D01*
X96881000Y-67935000D01*
X96901000Y-67935000D01*
X96901000Y-67913000D01*
X97155000Y-67913000D01*
X97155000Y-67935000D01*
X97954250Y-67935000D01*
X98113000Y-67776250D01*
X98113000Y-67683691D01*
X98016327Y-67450302D01*
X97837699Y-67271673D01*
X97604310Y-67175000D01*
X97595962Y-67175000D01*
X97626659Y-67168894D01*
X97752686Y-67084686D01*
X97783419Y-67038690D01*
X100227000Y-67038690D01*
X100227000Y-68629250D01*
X100385750Y-68788000D01*
X101235000Y-68788000D01*
X101235000Y-66688750D01*
X101076250Y-66530000D01*
X100735691Y-66530000D01*
X100502302Y-66626673D01*
X100323673Y-66805301D01*
X100227000Y-67038690D01*
X97783419Y-67038690D01*
X97836894Y-66958659D01*
X97866464Y-66810000D01*
X97866464Y-66310000D01*
X97836894Y-66161341D01*
X97752686Y-66035314D01*
X97679873Y-65986662D01*
X97865177Y-65801682D01*
X97993054Y-65493720D01*
X97993345Y-65160263D01*
X97980838Y-65129994D01*
X97987314Y-65139686D01*
X98113341Y-65223894D01*
X98262000Y-65253464D01*
X99762000Y-65253464D01*
X99910659Y-65223894D01*
X100036686Y-65139686D01*
X100120894Y-65013659D01*
X100150464Y-64865000D01*
X100150464Y-61465000D01*
X100140717Y-61416000D01*
X104583283Y-61416000D01*
X104573536Y-61465000D01*
X104573536Y-64865000D01*
X104603106Y-65013659D01*
X104687314Y-65139686D01*
X104813341Y-65223894D01*
X104962000Y-65253464D01*
X105081932Y-65253464D01*
X105001115Y-65307465D01*
X103532044Y-66776536D01*
X102862000Y-66776536D01*
X102713341Y-66806106D01*
X102587314Y-66890314D01*
X102503106Y-67016341D01*
X102497000Y-67047038D01*
X102497000Y-67038690D01*
X102400327Y-66805301D01*
X102221698Y-66626673D01*
X101988309Y-66530000D01*
X101647750Y-66530000D01*
X101489000Y-66688750D01*
X101489000Y-68788000D01*
X101509000Y-68788000D01*
X101509000Y-69042000D01*
X101489000Y-69042000D01*
X101489000Y-69062000D01*
X101235000Y-69062000D01*
X101235000Y-69042000D01*
X100385750Y-69042000D01*
X100227000Y-69200750D01*
X100227000Y-70791310D01*
X100323673Y-71024699D01*
X100502302Y-71203327D01*
X100735691Y-71300000D01*
X100773631Y-71300000D01*
X100700706Y-71409141D01*
X100682235Y-71502000D01*
X100138527Y-71502000D01*
X100120494Y-71411341D01*
X100036286Y-71285314D01*
X99910259Y-71201106D01*
X99761600Y-71171536D01*
X98561600Y-71171536D01*
X98412941Y-71201106D01*
X98286914Y-71285314D01*
X98202706Y-71411341D01*
X98173136Y-71560000D01*
X98173136Y-71937679D01*
X97657414Y-71421956D01*
X97788977Y-71290622D01*
X97916854Y-70982660D01*
X97917145Y-70649203D01*
X97789805Y-70341018D01*
X97554222Y-70105023D01*
X97246260Y-69977146D01*
X96912803Y-69976855D01*
X96648629Y-70086010D01*
X96677500Y-70016309D01*
X96677500Y-69275750D01*
X96518750Y-69117000D01*
X95469500Y-69117000D01*
X95469500Y-69137000D01*
X95215500Y-69137000D01*
X95215500Y-69117000D01*
X94201925Y-69117000D01*
X94169766Y-69067000D01*
X93019500Y-69067000D01*
X93019500Y-71063000D01*
X94318750Y-71063000D01*
X94477500Y-70904250D01*
X94477500Y-70508974D01*
X94516190Y-70525000D01*
X94774538Y-70525000D01*
X94743841Y-70531106D01*
X94617814Y-70615314D01*
X94533606Y-70741341D01*
X94504036Y-70890000D01*
X94504036Y-71290000D01*
X94528900Y-71415000D01*
X94504036Y-71540000D01*
X94504036Y-71940000D01*
X94528900Y-72065000D01*
X94504036Y-72190000D01*
X94504036Y-72590000D01*
X94528900Y-72715000D01*
X94504036Y-72840000D01*
X94504036Y-72980438D01*
X94477500Y-73006974D01*
X94477500Y-72513691D01*
X94426265Y-72390000D01*
X94477500Y-72266309D01*
X94477500Y-71475750D01*
X94318750Y-71317000D01*
X93019500Y-71317000D01*
X93019500Y-73463000D01*
X94289250Y-73463000D01*
X94416250Y-73590000D01*
X94730530Y-73590000D01*
X94743841Y-73598894D01*
X94892500Y-73628464D01*
X96242500Y-73628464D01*
X96391159Y-73598894D01*
X96404470Y-73590000D01*
X96718750Y-73590000D01*
X96877500Y-73431250D01*
X96877500Y-73363691D01*
X96780827Y-73130302D01*
X96630964Y-72980438D01*
X96630964Y-72872600D01*
X97164743Y-72872600D01*
X97925978Y-73633835D01*
X97918021Y-73641778D01*
X97790144Y-73949740D01*
X97789853Y-74283197D01*
X97822456Y-74362103D01*
X97779059Y-74333106D01*
X97630400Y-74303536D01*
X96730400Y-74303536D01*
X96726142Y-74304383D01*
X96780827Y-74249698D01*
X96877500Y-74016309D01*
X96877500Y-73948750D01*
X96718750Y-73790000D01*
X95694500Y-73790000D01*
X95694500Y-73837000D01*
X95440500Y-73837000D01*
X95440500Y-73790000D01*
X94416250Y-73790000D01*
X94404000Y-73802250D01*
X94318750Y-73717000D01*
X93019500Y-73717000D01*
X93019500Y-75713000D01*
X94169766Y-75713000D01*
X94201925Y-75663000D01*
X95215500Y-75663000D01*
X95215500Y-75643000D01*
X95469500Y-75643000D01*
X95469500Y-75663000D01*
X96518750Y-75663000D01*
X96622707Y-75559043D01*
X96730400Y-75580464D01*
X96825128Y-75580464D01*
X96839150Y-75601450D01*
X97041236Y-75803536D01*
X96730400Y-75803536D01*
X96581741Y-75833106D01*
X96456184Y-75917000D01*
X95469500Y-75917000D01*
X95469500Y-75937000D01*
X95215500Y-75937000D01*
X95215500Y-75917000D01*
X94166250Y-75917000D01*
X94116250Y-75967000D01*
X93019500Y-75967000D01*
X93019500Y-77259915D01*
X93105306Y-77307057D01*
X93101936Y-77324000D01*
X93101936Y-78124000D01*
X93131506Y-78272659D01*
X93215714Y-78398686D01*
X93341741Y-78482894D01*
X93490400Y-78512464D01*
X93760444Y-78512464D01*
X94061391Y-78813411D01*
X94226198Y-78923532D01*
X94420601Y-78962201D01*
X96054561Y-78962201D01*
X96248964Y-78923532D01*
X96413771Y-78813411D01*
X96475141Y-78752041D01*
X96545713Y-78922418D01*
X96724341Y-79101047D01*
X96731782Y-79104129D01*
X96725146Y-79114061D01*
X96695576Y-79262720D01*
X96695576Y-80162720D01*
X96725146Y-80311379D01*
X96809354Y-80437406D01*
X96935381Y-80521614D01*
X97084040Y-80551184D01*
X97101440Y-80551184D01*
X97101440Y-81311536D01*
X96940000Y-81311536D01*
X96791341Y-81341106D01*
X96665314Y-81425314D01*
X96581106Y-81551341D01*
X96551536Y-81700000D01*
X96551536Y-83364000D01*
X94024911Y-83364000D01*
X93185906Y-83197112D01*
X92512707Y-82747293D01*
X92062888Y-82074094D01*
X91973122Y-81622807D01*
X92248700Y-81622807D01*
X92511674Y-82259252D01*
X92998187Y-82746614D01*
X93634172Y-83010699D01*
X94322807Y-83011300D01*
X94959252Y-82748326D01*
X95446614Y-82261813D01*
X95710699Y-81625828D01*
X95711300Y-80937193D01*
X95448326Y-80300748D01*
X94961813Y-79813386D01*
X94325828Y-79549301D01*
X93637193Y-79548700D01*
X93000748Y-79811674D01*
X92513386Y-80298187D01*
X92249301Y-80934172D01*
X92248700Y-81622807D01*
X91973122Y-81622807D01*
X91896000Y-81235089D01*
X91896000Y-76988739D01*
X92029824Y-77138243D01*
X92534905Y-77380970D01*
X92543461Y-77381904D01*
X92765500Y-77259915D01*
X92765500Y-75967000D01*
X92745500Y-75967000D01*
X92745500Y-75713000D01*
X92765500Y-75713000D01*
X92765500Y-73717000D01*
X92745500Y-73717000D01*
X92745500Y-73463000D01*
X92765500Y-73463000D01*
X92765500Y-71317000D01*
X92745500Y-71317000D01*
X92745500Y-71063000D01*
X92765500Y-71063000D01*
X92765500Y-69067000D01*
X92745500Y-69067000D01*
X92745500Y-68813000D01*
X92765500Y-68813000D01*
X92765500Y-67520085D01*
X92543461Y-67398096D01*
X92534905Y-67399030D01*
X92029824Y-67641757D01*
X91896000Y-67791261D01*
X91896000Y-63842807D01*
X92248700Y-63842807D01*
X92511674Y-64479252D01*
X92998187Y-64966614D01*
X93634172Y-65230699D01*
X94322807Y-65231300D01*
X94959252Y-64968326D01*
X95446614Y-64481813D01*
X95710699Y-63845828D01*
X95711300Y-63157193D01*
X95448326Y-62520748D01*
X94961813Y-62033386D01*
X94325828Y-61769301D01*
X93637193Y-61768700D01*
X93000748Y-62031674D01*
X92513386Y-62518187D01*
X92249301Y-63154172D01*
X92248700Y-63842807D01*
X91896000Y-63842807D01*
X91896000Y-63544911D01*
X92062888Y-62705906D01*
X92512707Y-62032707D01*
X93185906Y-61582888D01*
X94024911Y-61416000D01*
X97883283Y-61416000D01*
X97873536Y-61465000D01*
G36*
X137172700Y-71141270D02*
X137071100Y-71242870D01*
X137071100Y-72367120D01*
X137091100Y-72367120D01*
X137091100Y-72621120D01*
X137071100Y-72621120D01*
X137071100Y-73745370D01*
X137229850Y-73904120D01*
X137370410Y-73904120D01*
X137603799Y-73807447D01*
X137782427Y-73628818D01*
X137879100Y-73395429D01*
X137879100Y-72873552D01*
X138125189Y-73119641D01*
X138125189Y-76884010D01*
X137512977Y-77496223D01*
X137498726Y-77474894D01*
X137372699Y-77390686D01*
X137224040Y-77361116D01*
X135624040Y-77361116D01*
X135475381Y-77390686D01*
X135349354Y-77474894D01*
X135265146Y-77600921D01*
X135235576Y-77749580D01*
X135235576Y-78749580D01*
X135265146Y-78898239D01*
X135349354Y-79024266D01*
X135475381Y-79108474D01*
X135624040Y-79138044D01*
X136701718Y-79138044D01*
X135169362Y-80670400D01*
X127884600Y-80670400D01*
X127083120Y-79868920D01*
X127083120Y-79393518D01*
X127189819Y-79372294D01*
X127199751Y-79365658D01*
X127202833Y-79373099D01*
X127381462Y-79551727D01*
X127614851Y-79648400D01*
X127855410Y-79648400D01*
X128014160Y-79489650D01*
X128014160Y-78765400D01*
X127994160Y-78765400D01*
X127994160Y-78511400D01*
X128014160Y-78511400D01*
X128014160Y-78491400D01*
X128268160Y-78491400D01*
X128268160Y-78511400D01*
X128288160Y-78511400D01*
X128288160Y-78765400D01*
X128268160Y-78765400D01*
X128268160Y-79489650D01*
X128426910Y-79648400D01*
X128667469Y-79648400D01*
X128900858Y-79551727D01*
X129079487Y-79373099D01*
X129080903Y-79369681D01*
X129252538Y-79541617D01*
X129560500Y-79669494D01*
X129893957Y-79669785D01*
X130202142Y-79542445D01*
X130400590Y-79344343D01*
X130497731Y-79384580D01*
X131138290Y-79384580D01*
X131297040Y-79225830D01*
X131297040Y-78376580D01*
X131277040Y-78376580D01*
X131277040Y-78122580D01*
X131297040Y-78122580D01*
X131297040Y-78102580D01*
X131551040Y-78102580D01*
X131551040Y-78122580D01*
X131571040Y-78122580D01*
X131571040Y-78376580D01*
X131551040Y-78376580D01*
X131551040Y-79225830D01*
X131709790Y-79384580D01*
X132350349Y-79384580D01*
X132583738Y-79287907D01*
X132699004Y-79172642D01*
X132905058Y-79379057D01*
X133213020Y-79506934D01*
X133546477Y-79507225D01*
X133854662Y-79379885D01*
X134090657Y-79144302D01*
X134218534Y-78836340D01*
X134218825Y-78502883D01*
X134091485Y-78194698D01*
X133855902Y-77958703D01*
X133849937Y-77956226D01*
X133826344Y-77837619D01*
X133721730Y-77681052D01*
X132971310Y-76930632D01*
X132814743Y-76826018D01*
X132630060Y-76789282D01*
X132036816Y-76789282D01*
X132100174Y-76636700D01*
X132100465Y-76303243D01*
X131973125Y-75995058D01*
X131916211Y-75938044D01*
X132224040Y-75938044D01*
X132372699Y-75908474D01*
X132498726Y-75824266D01*
X132582934Y-75698239D01*
X132612504Y-75549580D01*
X132612504Y-74604440D01*
X135235576Y-74604440D01*
X135235576Y-75549580D01*
X135265146Y-75698239D01*
X135349354Y-75824266D01*
X135475381Y-75908474D01*
X135624040Y-75938044D01*
X137224040Y-75938044D01*
X137372699Y-75908474D01*
X137498726Y-75824266D01*
X137582934Y-75698239D01*
X137612504Y-75549580D01*
X137612504Y-74549580D01*
X137582934Y-74400921D01*
X137498726Y-74274894D01*
X137372699Y-74190686D01*
X137224040Y-74161116D01*
X136869516Y-74161116D01*
X136851452Y-74134081D01*
X136765290Y-74005130D01*
X136765287Y-74005128D01*
X136661315Y-73901155D01*
X136817100Y-73745370D01*
X136817100Y-72621120D01*
X136797100Y-72621120D01*
X136797100Y-72367120D01*
X136817100Y-72367120D01*
X136817100Y-71242870D01*
X136658350Y-71084120D01*
X136517790Y-71084120D01*
X136284401Y-71180793D01*
X136182100Y-71283095D01*
X136182100Y-70893540D01*
X137172700Y-69902940D01*
X137172700Y-71141270D01*
X137172700Y-71141270D01*
G37*
X137172700Y-71141270D02*
X137071100Y-71242870D01*
X137071100Y-72367120D01*
X137091100Y-72367120D01*
X137091100Y-72621120D01*
X137071100Y-72621120D01*
X137071100Y-73745370D01*
X137229850Y-73904120D01*
X137370410Y-73904120D01*
X137603799Y-73807447D01*
X137782427Y-73628818D01*
X137879100Y-73395429D01*
X137879100Y-72873552D01*
X138125189Y-73119641D01*
X138125189Y-76884010D01*
X137512977Y-77496223D01*
X137498726Y-77474894D01*
X137372699Y-77390686D01*
X137224040Y-77361116D01*
X135624040Y-77361116D01*
X135475381Y-77390686D01*
X135349354Y-77474894D01*
X135265146Y-77600921D01*
X135235576Y-77749580D01*
X135235576Y-78749580D01*
X135265146Y-78898239D01*
X135349354Y-79024266D01*
X135475381Y-79108474D01*
X135624040Y-79138044D01*
X136701718Y-79138044D01*
X135169362Y-80670400D01*
X127884600Y-80670400D01*
X127083120Y-79868920D01*
X127083120Y-79393518D01*
X127189819Y-79372294D01*
X127199751Y-79365658D01*
X127202833Y-79373099D01*
X127381462Y-79551727D01*
X127614851Y-79648400D01*
X127855410Y-79648400D01*
X128014160Y-79489650D01*
X128014160Y-78765400D01*
X127994160Y-78765400D01*
X127994160Y-78511400D01*
X128014160Y-78511400D01*
X128014160Y-78491400D01*
X128268160Y-78491400D01*
X128268160Y-78511400D01*
X128288160Y-78511400D01*
X128288160Y-78765400D01*
X128268160Y-78765400D01*
X128268160Y-79489650D01*
X128426910Y-79648400D01*
X128667469Y-79648400D01*
X128900858Y-79551727D01*
X129079487Y-79373099D01*
X129080903Y-79369681D01*
X129252538Y-79541617D01*
X129560500Y-79669494D01*
X129893957Y-79669785D01*
X130202142Y-79542445D01*
X130400590Y-79344343D01*
X130497731Y-79384580D01*
X131138290Y-79384580D01*
X131297040Y-79225830D01*
X131297040Y-78376580D01*
X131277040Y-78376580D01*
X131277040Y-78122580D01*
X131297040Y-78122580D01*
X131297040Y-78102580D01*
X131551040Y-78102580D01*
X131551040Y-78122580D01*
X131571040Y-78122580D01*
X131571040Y-78376580D01*
X131551040Y-78376580D01*
X131551040Y-79225830D01*
X131709790Y-79384580D01*
X132350349Y-79384580D01*
X132583738Y-79287907D01*
X132699004Y-79172642D01*
X132905058Y-79379057D01*
X133213020Y-79506934D01*
X133546477Y-79507225D01*
X133854662Y-79379885D01*
X134090657Y-79144302D01*
X134218534Y-78836340D01*
X134218825Y-78502883D01*
X134091485Y-78194698D01*
X133855902Y-77958703D01*
X133849937Y-77956226D01*
X133826344Y-77837619D01*
X133721730Y-77681052D01*
X132971310Y-76930632D01*
X132814743Y-76826018D01*
X132630060Y-76789282D01*
X132036816Y-76789282D01*
X132100174Y-76636700D01*
X132100465Y-76303243D01*
X131973125Y-75995058D01*
X131916211Y-75938044D01*
X132224040Y-75938044D01*
X132372699Y-75908474D01*
X132498726Y-75824266D01*
X132582934Y-75698239D01*
X132612504Y-75549580D01*
X132612504Y-74604440D01*
X135235576Y-74604440D01*
X135235576Y-75549580D01*
X135265146Y-75698239D01*
X135349354Y-75824266D01*
X135475381Y-75908474D01*
X135624040Y-75938044D01*
X137224040Y-75938044D01*
X137372699Y-75908474D01*
X137498726Y-75824266D01*
X137582934Y-75698239D01*
X137612504Y-75549580D01*
X137612504Y-74549580D01*
X137582934Y-74400921D01*
X137498726Y-74274894D01*
X137372699Y-74190686D01*
X137224040Y-74161116D01*
X136869516Y-74161116D01*
X136851452Y-74134081D01*
X136765290Y-74005130D01*
X136765287Y-74005128D01*
X136661315Y-73901155D01*
X136817100Y-73745370D01*
X136817100Y-72621120D01*
X136797100Y-72621120D01*
X136797100Y-72367120D01*
X136817100Y-72367120D01*
X136817100Y-71242870D01*
X136658350Y-71084120D01*
X136517790Y-71084120D01*
X136284401Y-71180793D01*
X136182100Y-71283095D01*
X136182100Y-70893540D01*
X137172700Y-69902940D01*
X137172700Y-71141270D01*
G36*
X125882266Y-79162059D02*
X125966474Y-79288086D01*
X126092501Y-79372294D01*
X126117920Y-79377350D01*
X126117920Y-80093820D01*
X126154656Y-80278503D01*
X126224732Y-80383380D01*
X125944980Y-80383380D01*
X125944980Y-80304070D01*
X125786230Y-80145320D01*
X125061980Y-80145320D01*
X125061980Y-80165320D01*
X124807980Y-80165320D01*
X124807980Y-80145320D01*
X124787980Y-80145320D01*
X124787980Y-79891320D01*
X124807980Y-79891320D01*
X124807980Y-79871320D01*
X125061980Y-79871320D01*
X125061980Y-79891320D01*
X125786230Y-79891320D01*
X125944980Y-79732570D01*
X125944980Y-79492011D01*
X125848307Y-79258622D01*
X125710686Y-79121000D01*
X125874099Y-79121000D01*
X125882266Y-79162059D01*
X125882266Y-79162059D01*
G37*
X125882266Y-79162059D02*
X125966474Y-79288086D01*
X126092501Y-79372294D01*
X126117920Y-79377350D01*
X126117920Y-80093820D01*
X126154656Y-80278503D01*
X126224732Y-80383380D01*
X125944980Y-80383380D01*
X125944980Y-80304070D01*
X125786230Y-80145320D01*
X125061980Y-80145320D01*
X125061980Y-80165320D01*
X124807980Y-80165320D01*
X124807980Y-80145320D01*
X124787980Y-80145320D01*
X124787980Y-79891320D01*
X124807980Y-79891320D01*
X124807980Y-79871320D01*
X125061980Y-79871320D01*
X125061980Y-79891320D01*
X125786230Y-79891320D01*
X125944980Y-79732570D01*
X125944980Y-79492011D01*
X125848307Y-79258622D01*
X125710686Y-79121000D01*
X125874099Y-79121000D01*
X125882266Y-79162059D01*
G36*
X124151036Y-77498360D02*
X124180606Y-77647019D01*
X124264814Y-77773046D01*
X124327876Y-77815182D01*
X124285294Y-77843634D01*
X124201086Y-77969661D01*
X124171516Y-78118320D01*
X124171516Y-78918320D01*
X124201086Y-79066979D01*
X124207722Y-79076911D01*
X124200281Y-79079993D01*
X124021653Y-79258622D01*
X123924980Y-79492011D01*
X123924980Y-79732570D01*
X124083728Y-79891318D01*
X123924980Y-79891318D01*
X123924980Y-79976124D01*
X123479558Y-79530702D01*
X123479558Y-77792159D01*
X124151036Y-77120681D01*
X124151036Y-77498360D01*
X124151036Y-77498360D01*
G37*
X124151036Y-77498360D02*
X124180606Y-77647019D01*
X124264814Y-77773046D01*
X124327876Y-77815182D01*
X124285294Y-77843634D01*
X124201086Y-77969661D01*
X124171516Y-78118320D01*
X124171516Y-78918320D01*
X124201086Y-79066979D01*
X124207722Y-79076911D01*
X124200281Y-79079993D01*
X124021653Y-79258622D01*
X123924980Y-79492011D01*
X123924980Y-79732570D01*
X124083728Y-79891318D01*
X123924980Y-79891318D01*
X123924980Y-79976124D01*
X123479558Y-79530702D01*
X123479558Y-77792159D01*
X124151036Y-77120681D01*
X124151036Y-77498360D01*
G36*
X114914535Y-79228577D02*
X115041875Y-79536762D01*
X115124293Y-79619325D01*
X114982539Y-79761079D01*
X114340686Y-79761079D01*
X114263805Y-79745787D01*
X114047822Y-79529803D01*
X114172327Y-79405299D01*
X114269000Y-79171910D01*
X114269000Y-79141850D01*
X114174752Y-79047602D01*
X114269000Y-79047602D01*
X114269000Y-79021953D01*
X114914715Y-79021953D01*
X114914535Y-79228577D01*
X114914535Y-79228577D01*
G37*
X114914535Y-79228577D02*
X115041875Y-79536762D01*
X115124293Y-79619325D01*
X114982539Y-79761079D01*
X114340686Y-79761079D01*
X114263805Y-79745787D01*
X114047822Y-79529803D01*
X114172327Y-79405299D01*
X114269000Y-79171910D01*
X114269000Y-79141850D01*
X114174752Y-79047602D01*
X114269000Y-79047602D01*
X114269000Y-79021953D01*
X114914715Y-79021953D01*
X114914535Y-79228577D01*
G36*
X97711040Y-77985720D02*
X97731040Y-77985720D01*
X97731040Y-78239720D01*
X97711040Y-78239720D01*
X97711040Y-78259720D01*
X97457040Y-78259720D01*
X97457040Y-78239720D01*
X97437040Y-78239720D01*
X97437040Y-77985720D01*
X97457040Y-77985720D01*
X97457040Y-77965720D01*
X97711040Y-77965720D01*
X97711040Y-77985720D01*
X97711040Y-77985720D01*
G37*
X97711040Y-77985720D02*
X97731040Y-77985720D01*
X97731040Y-78239720D01*
X97711040Y-78239720D01*
X97711040Y-78259720D01*
X97457040Y-78259720D01*
X97457040Y-78239720D01*
X97437040Y-78239720D01*
X97437040Y-77985720D01*
X97457040Y-77985720D01*
X97457040Y-77965720D01*
X97711040Y-77965720D01*
X97711040Y-77985720D01*
G36*
X118468760Y-73950830D02*
X118627510Y-74109580D01*
X119376760Y-74109580D01*
X119376760Y-74089580D01*
X119630760Y-74089580D01*
X119630760Y-74109580D01*
X119650760Y-74109580D01*
X119650760Y-74363580D01*
X119630760Y-74363580D01*
X119630760Y-74383580D01*
X119376760Y-74383580D01*
X119376760Y-74363580D01*
X118627510Y-74363580D01*
X118468760Y-74522330D01*
X118468760Y-74737890D01*
X118565433Y-74971279D01*
X118744062Y-75149907D01*
X118769520Y-75160452D01*
X118715926Y-75240661D01*
X118686356Y-75389320D01*
X118686356Y-76289320D01*
X118715926Y-76437979D01*
X118774002Y-76524896D01*
X118626643Y-76671998D01*
X118498766Y-76979960D01*
X118498475Y-77313417D01*
X118625815Y-77621602D01*
X118821848Y-77817978D01*
X115832614Y-77817978D01*
X115854482Y-77708043D01*
X115854482Y-77244716D01*
X117186356Y-75912842D01*
X117186356Y-76289320D01*
X117215926Y-76437979D01*
X117300134Y-76564006D01*
X117426161Y-76648214D01*
X117574820Y-76677784D01*
X118074820Y-76677784D01*
X118223479Y-76648214D01*
X118349506Y-76564006D01*
X118433714Y-76437979D01*
X118463284Y-76289320D01*
X118463284Y-75389320D01*
X118433714Y-75240661D01*
X118349506Y-75114634D01*
X118284570Y-75071246D01*
X118270684Y-75001437D01*
X118166070Y-74844870D01*
X118000778Y-74679578D01*
X118000778Y-74334878D01*
X118468760Y-73866895D01*
X118468760Y-73950830D01*
X118468760Y-73950830D01*
G37*
X118468760Y-73950830D02*
X118627510Y-74109580D01*
X119376760Y-74109580D01*
X119376760Y-74089580D01*
X119630760Y-74089580D01*
X119630760Y-74109580D01*
X119650760Y-74109580D01*
X119650760Y-74363580D01*
X119630760Y-74363580D01*
X119630760Y-74383580D01*
X119376760Y-74383580D01*
X119376760Y-74363580D01*
X118627510Y-74363580D01*
X118468760Y-74522330D01*
X118468760Y-74737890D01*
X118565433Y-74971279D01*
X118744062Y-75149907D01*
X118769520Y-75160452D01*
X118715926Y-75240661D01*
X118686356Y-75389320D01*
X118686356Y-76289320D01*
X118715926Y-76437979D01*
X118774002Y-76524896D01*
X118626643Y-76671998D01*
X118498766Y-76979960D01*
X118498475Y-77313417D01*
X118625815Y-77621602D01*
X118821848Y-77817978D01*
X115832614Y-77817978D01*
X115854482Y-77708043D01*
X115854482Y-77244716D01*
X117186356Y-75912842D01*
X117186356Y-76289320D01*
X117215926Y-76437979D01*
X117300134Y-76564006D01*
X117426161Y-76648214D01*
X117574820Y-76677784D01*
X118074820Y-76677784D01*
X118223479Y-76648214D01*
X118349506Y-76564006D01*
X118433714Y-76437979D01*
X118463284Y-76289320D01*
X118463284Y-75389320D01*
X118433714Y-75240661D01*
X118349506Y-75114634D01*
X118284570Y-75071246D01*
X118270684Y-75001437D01*
X118166070Y-74844870D01*
X118000778Y-74679578D01*
X118000778Y-74334878D01*
X118468760Y-73866895D01*
X118468760Y-73950830D01*
G36*
X106476946Y-75981740D02*
X106476655Y-76315197D01*
X106603995Y-76623382D01*
X106839578Y-76859377D01*
X107147540Y-76987254D01*
X107480997Y-76987545D01*
X107593544Y-76941041D01*
X107499000Y-77169290D01*
X107499000Y-77199350D01*
X107593248Y-77293598D01*
X107499000Y-77293598D01*
X107499000Y-77412600D01*
X106978000Y-77412600D01*
X106783597Y-77451269D01*
X106742789Y-77478536D01*
X106331600Y-77478536D01*
X106182941Y-77508106D01*
X106056914Y-77592314D01*
X106045765Y-77609000D01*
X105607743Y-77609000D01*
X105611299Y-77607527D01*
X105789927Y-77428898D01*
X105886600Y-77195509D01*
X105886600Y-76954950D01*
X105727850Y-76796200D01*
X105003600Y-76796200D01*
X105003600Y-76816200D01*
X104749600Y-76816200D01*
X104749600Y-76796200D01*
X104729600Y-76796200D01*
X104729600Y-76542200D01*
X104749600Y-76542200D01*
X104749600Y-76522200D01*
X105003600Y-76522200D01*
X105003600Y-76542200D01*
X105727850Y-76542200D01*
X105886600Y-76383450D01*
X105886600Y-76142891D01*
X105799521Y-75932664D01*
X106364800Y-75932664D01*
X106509255Y-75903930D01*
X106476946Y-75981740D01*
X106476946Y-75981740D01*
G37*
X106476946Y-75981740D02*
X106476655Y-76315197D01*
X106603995Y-76623382D01*
X106839578Y-76859377D01*
X107147540Y-76987254D01*
X107480997Y-76987545D01*
X107593544Y-76941041D01*
X107499000Y-77169290D01*
X107499000Y-77199350D01*
X107593248Y-77293598D01*
X107499000Y-77293598D01*
X107499000Y-77412600D01*
X106978000Y-77412600D01*
X106783597Y-77451269D01*
X106742789Y-77478536D01*
X106331600Y-77478536D01*
X106182941Y-77508106D01*
X106056914Y-77592314D01*
X106045765Y-77609000D01*
X105607743Y-77609000D01*
X105611299Y-77607527D01*
X105789927Y-77428898D01*
X105886600Y-77195509D01*
X105886600Y-76954950D01*
X105727850Y-76796200D01*
X105003600Y-76796200D01*
X105003600Y-76816200D01*
X104749600Y-76816200D01*
X104749600Y-76796200D01*
X104729600Y-76796200D01*
X104729600Y-76542200D01*
X104749600Y-76542200D01*
X104749600Y-76522200D01*
X105003600Y-76522200D01*
X105003600Y-76542200D01*
X105727850Y-76542200D01*
X105886600Y-76383450D01*
X105886600Y-76142891D01*
X105799521Y-75932664D01*
X106364800Y-75932664D01*
X106509255Y-75903930D01*
X106476946Y-75981740D01*
G36*
X129281620Y-76885800D02*
X129301620Y-76885800D01*
X129301620Y-77139800D01*
X129281620Y-77139800D01*
X129281620Y-77159800D01*
X129027620Y-77159800D01*
X129027620Y-77139800D01*
X129007620Y-77139800D01*
X129007620Y-76885800D01*
X129027620Y-76885800D01*
X129027620Y-76865800D01*
X129281620Y-76865800D01*
X129281620Y-76885800D01*
X129281620Y-76885800D01*
G37*
X129281620Y-76885800D02*
X129301620Y-76885800D01*
X129301620Y-77139800D01*
X129281620Y-77139800D01*
X129281620Y-77159800D01*
X129027620Y-77159800D01*
X129027620Y-77139800D01*
X129007620Y-77139800D01*
X129007620Y-76885800D01*
X129027620Y-76885800D01*
X129027620Y-76865800D01*
X129281620Y-76865800D01*
X129281620Y-76885800D01*
G36*
X124050210Y-69813590D02*
X125083710Y-69813590D01*
X125083710Y-69793590D01*
X125337710Y-69793590D01*
X125337710Y-69813590D01*
X126371210Y-69813590D01*
X126371210Y-69793590D01*
X126625210Y-69793590D01*
X126625210Y-69813590D01*
X127658710Y-69813590D01*
X127658710Y-69793590D01*
X127912710Y-69793590D01*
X127912710Y-69813590D01*
X127932710Y-69813590D01*
X127932710Y-70067590D01*
X127912710Y-70067590D01*
X127912710Y-71101090D01*
X127932710Y-71101090D01*
X127932710Y-71355090D01*
X127912710Y-71355090D01*
X127912710Y-72388590D01*
X127932710Y-72388590D01*
X127932710Y-72642590D01*
X127912710Y-72642590D01*
X127912710Y-73676090D01*
X127932710Y-73676090D01*
X127932710Y-73930090D01*
X127912710Y-73930090D01*
X127912710Y-73950090D01*
X127658710Y-73950090D01*
X127658710Y-73930090D01*
X126625210Y-73930090D01*
X126625210Y-73950090D01*
X126371210Y-73950090D01*
X126371210Y-73930090D01*
X125337710Y-73930090D01*
X125337710Y-73950090D01*
X125083710Y-73950090D01*
X125083710Y-73930090D01*
X124050210Y-73930090D01*
X124050210Y-73950090D01*
X123796210Y-73950090D01*
X123796210Y-73930090D01*
X123776210Y-73930090D01*
X123776210Y-73676090D01*
X123796210Y-73676090D01*
X123796210Y-72801340D01*
X123931960Y-72801340D01*
X123931960Y-73517340D01*
X124050210Y-73635590D01*
X124050210Y-73676090D01*
X124090710Y-73676090D01*
X124208960Y-73794340D01*
X124924960Y-73794340D01*
X125043210Y-73676090D01*
X125083710Y-73676090D01*
X125083710Y-73635590D01*
X125201960Y-73517340D01*
X125201960Y-72801340D01*
X125219460Y-72801340D01*
X125219460Y-73517340D01*
X125337710Y-73635590D01*
X125337710Y-73676090D01*
X125378210Y-73676090D01*
X125496460Y-73794340D01*
X126212460Y-73794340D01*
X126330710Y-73676090D01*
X126371210Y-73676090D01*
X126371210Y-73635590D01*
X126489460Y-73517340D01*
X126489460Y-72801340D01*
X126506960Y-72801340D01*
X126506960Y-73517340D01*
X126625210Y-73635590D01*
X126625210Y-73676090D01*
X126665710Y-73676090D01*
X126783960Y-73794340D01*
X127499960Y-73794340D01*
X127618210Y-73676090D01*
X127658710Y-73676090D01*
X127658710Y-73635590D01*
X127776960Y-73517340D01*
X127776960Y-72801340D01*
X127658710Y-72683090D01*
X127658710Y-72642590D01*
X127618210Y-72642590D01*
X127499960Y-72524340D01*
X126783960Y-72524340D01*
X126665710Y-72642590D01*
X126625210Y-72642590D01*
X126625210Y-72683090D01*
X126506960Y-72801340D01*
X126489460Y-72801340D01*
X126371210Y-72683090D01*
X126371210Y-72642590D01*
X126330710Y-72642590D01*
X126212460Y-72524340D01*
X125496460Y-72524340D01*
X125378210Y-72642590D01*
X125337710Y-72642590D01*
X125337710Y-72683090D01*
X125219460Y-72801340D01*
X125201960Y-72801340D01*
X125083710Y-72683090D01*
X125083710Y-72642590D01*
X125043210Y-72642590D01*
X124924960Y-72524340D01*
X124208960Y-72524340D01*
X124090710Y-72642590D01*
X124050210Y-72642590D01*
X124050210Y-72683090D01*
X123931960Y-72801340D01*
X123796210Y-72801340D01*
X123796210Y-72642590D01*
X123776210Y-72642590D01*
X123776210Y-72388590D01*
X123796210Y-72388590D01*
X123796210Y-71513840D01*
X123931960Y-71513840D01*
X123931960Y-72229840D01*
X124050210Y-72348090D01*
X124050210Y-72388590D01*
X124090710Y-72388590D01*
X124208960Y-72506840D01*
X124924960Y-72506840D01*
X125043210Y-72388590D01*
X125083710Y-72388590D01*
X125083710Y-72348090D01*
X125201960Y-72229840D01*
X125201960Y-71513840D01*
X125219460Y-71513840D01*
X125219460Y-72229840D01*
X125337710Y-72348090D01*
X125337710Y-72388590D01*
X125378210Y-72388590D01*
X125496460Y-72506840D01*
X126212460Y-72506840D01*
X126330710Y-72388590D01*
X126371210Y-72388590D01*
X126371210Y-72348090D01*
X126489460Y-72229840D01*
X126489460Y-71513840D01*
X126506960Y-71513840D01*
X126506960Y-72229840D01*
X126625210Y-72348090D01*
X126625210Y-72388590D01*
X126665710Y-72388590D01*
X126783960Y-72506840D01*
X127499960Y-72506840D01*
X127618210Y-72388590D01*
X127658710Y-72388590D01*
X127658710Y-72348090D01*
X127776960Y-72229840D01*
X127776960Y-71513840D01*
X127658710Y-71395590D01*
X127658710Y-71355090D01*
X127618210Y-71355090D01*
X127499960Y-71236840D01*
X126783960Y-71236840D01*
X126665710Y-71355090D01*
X126625210Y-71355090D01*
X126625210Y-71395590D01*
X126506960Y-71513840D01*
X126489460Y-71513840D01*
X126371210Y-71395590D01*
X126371210Y-71355090D01*
X126330710Y-71355090D01*
X126212460Y-71236840D01*
X125496460Y-71236840D01*
X125378210Y-71355090D01*
X125337710Y-71355090D01*
X125337710Y-71395590D01*
X125219460Y-71513840D01*
X125201960Y-71513840D01*
X125083710Y-71395590D01*
X125083710Y-71355090D01*
X125043210Y-71355090D01*
X124924960Y-71236840D01*
X124208960Y-71236840D01*
X124090710Y-71355090D01*
X124050210Y-71355090D01*
X124050210Y-71395590D01*
X123931960Y-71513840D01*
X123796210Y-71513840D01*
X123796210Y-71355090D01*
X123776210Y-71355090D01*
X123776210Y-71101090D01*
X123796210Y-71101090D01*
X123796210Y-70226340D01*
X123931960Y-70226340D01*
X123931960Y-70942340D01*
X124050210Y-71060590D01*
X124050210Y-71101090D01*
X124090710Y-71101090D01*
X124208960Y-71219340D01*
X124924960Y-71219340D01*
X125043210Y-71101090D01*
X125083710Y-71101090D01*
X125083710Y-71060590D01*
X125201960Y-70942340D01*
X125201960Y-70226340D01*
X125219460Y-70226340D01*
X125219460Y-70942340D01*
X125337710Y-71060590D01*
X125337710Y-71101090D01*
X125378210Y-71101090D01*
X125496460Y-71219340D01*
X126212460Y-71219340D01*
X126330710Y-71101090D01*
X126371210Y-71101090D01*
X126371210Y-71060590D01*
X126489460Y-70942340D01*
X126489460Y-70226340D01*
X126506960Y-70226340D01*
X126506960Y-70942340D01*
X126625210Y-71060590D01*
X126625210Y-71101090D01*
X126665710Y-71101090D01*
X126783960Y-71219340D01*
X127499960Y-71219340D01*
X127618210Y-71101090D01*
X127658710Y-71101090D01*
X127658710Y-71060590D01*
X127776960Y-70942340D01*
X127776960Y-70226340D01*
X127658710Y-70108090D01*
X127658710Y-70067590D01*
X127618210Y-70067590D01*
X127499960Y-69949340D01*
X126783960Y-69949340D01*
X126665710Y-70067590D01*
X126625210Y-70067590D01*
X126625210Y-70108090D01*
X126506960Y-70226340D01*
X126489460Y-70226340D01*
X126371210Y-70108090D01*
X126371210Y-70067590D01*
X126330710Y-70067590D01*
X126212460Y-69949340D01*
X125496460Y-69949340D01*
X125378210Y-70067590D01*
X125337710Y-70067590D01*
X125337710Y-70108090D01*
X125219460Y-70226340D01*
X125201960Y-70226340D01*
X125083710Y-70108090D01*
X125083710Y-70067590D01*
X125043210Y-70067590D01*
X124924960Y-69949340D01*
X124208960Y-69949340D01*
X124090710Y-70067590D01*
X124050210Y-70067590D01*
X124050210Y-70108090D01*
X123931960Y-70226340D01*
X123796210Y-70226340D01*
X123796210Y-70067590D01*
X123776210Y-70067590D01*
X123776210Y-69813590D01*
X123796210Y-69813590D01*
X123796210Y-69793590D01*
X124050210Y-69793590D01*
X124050210Y-69813590D01*
X124050210Y-69813590D01*
G37*
X124050210Y-69813590D02*
X125083710Y-69813590D01*
X125083710Y-69793590D01*
X125337710Y-69793590D01*
X125337710Y-69813590D01*
X126371210Y-69813590D01*
X126371210Y-69793590D01*
X126625210Y-69793590D01*
X126625210Y-69813590D01*
X127658710Y-69813590D01*
X127658710Y-69793590D01*
X127912710Y-69793590D01*
X127912710Y-69813590D01*
X127932710Y-69813590D01*
X127932710Y-70067590D01*
X127912710Y-70067590D01*
X127912710Y-71101090D01*
X127932710Y-71101090D01*
X127932710Y-71355090D01*
X127912710Y-71355090D01*
X127912710Y-72388590D01*
X127932710Y-72388590D01*
X127932710Y-72642590D01*
X127912710Y-72642590D01*
X127912710Y-73676090D01*
X127932710Y-73676090D01*
X127932710Y-73930090D01*
X127912710Y-73930090D01*
X127912710Y-73950090D01*
X127658710Y-73950090D01*
X127658710Y-73930090D01*
X126625210Y-73930090D01*
X126625210Y-73950090D01*
X126371210Y-73950090D01*
X126371210Y-73930090D01*
X125337710Y-73930090D01*
X125337710Y-73950090D01*
X125083710Y-73950090D01*
X125083710Y-73930090D01*
X124050210Y-73930090D01*
X124050210Y-73950090D01*
X123796210Y-73950090D01*
X123796210Y-73930090D01*
X123776210Y-73930090D01*
X123776210Y-73676090D01*
X123796210Y-73676090D01*
X123796210Y-72801340D01*
X123931960Y-72801340D01*
X123931960Y-73517340D01*
X124050210Y-73635590D01*
X124050210Y-73676090D01*
X124090710Y-73676090D01*
X124208960Y-73794340D01*
X124924960Y-73794340D01*
X125043210Y-73676090D01*
X125083710Y-73676090D01*
X125083710Y-73635590D01*
X125201960Y-73517340D01*
X125201960Y-72801340D01*
X125219460Y-72801340D01*
X125219460Y-73517340D01*
X125337710Y-73635590D01*
X125337710Y-73676090D01*
X125378210Y-73676090D01*
X125496460Y-73794340D01*
X126212460Y-73794340D01*
X126330710Y-73676090D01*
X126371210Y-73676090D01*
X126371210Y-73635590D01*
X126489460Y-73517340D01*
X126489460Y-72801340D01*
X126506960Y-72801340D01*
X126506960Y-73517340D01*
X126625210Y-73635590D01*
X126625210Y-73676090D01*
X126665710Y-73676090D01*
X126783960Y-73794340D01*
X127499960Y-73794340D01*
X127618210Y-73676090D01*
X127658710Y-73676090D01*
X127658710Y-73635590D01*
X127776960Y-73517340D01*
X127776960Y-72801340D01*
X127658710Y-72683090D01*
X127658710Y-72642590D01*
X127618210Y-72642590D01*
X127499960Y-72524340D01*
X126783960Y-72524340D01*
X126665710Y-72642590D01*
X126625210Y-72642590D01*
X126625210Y-72683090D01*
X126506960Y-72801340D01*
X126489460Y-72801340D01*
X126371210Y-72683090D01*
X126371210Y-72642590D01*
X126330710Y-72642590D01*
X126212460Y-72524340D01*
X125496460Y-72524340D01*
X125378210Y-72642590D01*
X125337710Y-72642590D01*
X125337710Y-72683090D01*
X125219460Y-72801340D01*
X125201960Y-72801340D01*
X125083710Y-72683090D01*
X125083710Y-72642590D01*
X125043210Y-72642590D01*
X124924960Y-72524340D01*
X124208960Y-72524340D01*
X124090710Y-72642590D01*
X124050210Y-72642590D01*
X124050210Y-72683090D01*
X123931960Y-72801340D01*
X123796210Y-72801340D01*
X123796210Y-72642590D01*
X123776210Y-72642590D01*
X123776210Y-72388590D01*
X123796210Y-72388590D01*
X123796210Y-71513840D01*
X123931960Y-71513840D01*
X123931960Y-72229840D01*
X124050210Y-72348090D01*
X124050210Y-72388590D01*
X124090710Y-72388590D01*
X124208960Y-72506840D01*
X124924960Y-72506840D01*
X125043210Y-72388590D01*
X125083710Y-72388590D01*
X125083710Y-72348090D01*
X125201960Y-72229840D01*
X125201960Y-71513840D01*
X125219460Y-71513840D01*
X125219460Y-72229840D01*
X125337710Y-72348090D01*
X125337710Y-72388590D01*
X125378210Y-72388590D01*
X125496460Y-72506840D01*
X126212460Y-72506840D01*
X126330710Y-72388590D01*
X126371210Y-72388590D01*
X126371210Y-72348090D01*
X126489460Y-72229840D01*
X126489460Y-71513840D01*
X126506960Y-71513840D01*
X126506960Y-72229840D01*
X126625210Y-72348090D01*
X126625210Y-72388590D01*
X126665710Y-72388590D01*
X126783960Y-72506840D01*
X127499960Y-72506840D01*
X127618210Y-72388590D01*
X127658710Y-72388590D01*
X127658710Y-72348090D01*
X127776960Y-72229840D01*
X127776960Y-71513840D01*
X127658710Y-71395590D01*
X127658710Y-71355090D01*
X127618210Y-71355090D01*
X127499960Y-71236840D01*
X126783960Y-71236840D01*
X126665710Y-71355090D01*
X126625210Y-71355090D01*
X126625210Y-71395590D01*
X126506960Y-71513840D01*
X126489460Y-71513840D01*
X126371210Y-71395590D01*
X126371210Y-71355090D01*
X126330710Y-71355090D01*
X126212460Y-71236840D01*
X125496460Y-71236840D01*
X125378210Y-71355090D01*
X125337710Y-71355090D01*
X125337710Y-71395590D01*
X125219460Y-71513840D01*
X125201960Y-71513840D01*
X125083710Y-71395590D01*
X125083710Y-71355090D01*
X125043210Y-71355090D01*
X124924960Y-71236840D01*
X124208960Y-71236840D01*
X124090710Y-71355090D01*
X124050210Y-71355090D01*
X124050210Y-71395590D01*
X123931960Y-71513840D01*
X123796210Y-71513840D01*
X123796210Y-71355090D01*
X123776210Y-71355090D01*
X123776210Y-71101090D01*
X123796210Y-71101090D01*
X123796210Y-70226340D01*
X123931960Y-70226340D01*
X123931960Y-70942340D01*
X124050210Y-71060590D01*
X124050210Y-71101090D01*
X124090710Y-71101090D01*
X124208960Y-71219340D01*
X124924960Y-71219340D01*
X125043210Y-71101090D01*
X125083710Y-71101090D01*
X125083710Y-71060590D01*
X125201960Y-70942340D01*
X125201960Y-70226340D01*
X125219460Y-70226340D01*
X125219460Y-70942340D01*
X125337710Y-71060590D01*
X125337710Y-71101090D01*
X125378210Y-71101090D01*
X125496460Y-71219340D01*
X126212460Y-71219340D01*
X126330710Y-71101090D01*
X126371210Y-71101090D01*
X126371210Y-71060590D01*
X126489460Y-70942340D01*
X126489460Y-70226340D01*
X126506960Y-70226340D01*
X126506960Y-70942340D01*
X126625210Y-71060590D01*
X126625210Y-71101090D01*
X126665710Y-71101090D01*
X126783960Y-71219340D01*
X127499960Y-71219340D01*
X127618210Y-71101090D01*
X127658710Y-71101090D01*
X127658710Y-71060590D01*
X127776960Y-70942340D01*
X127776960Y-70226340D01*
X127658710Y-70108090D01*
X127658710Y-70067590D01*
X127618210Y-70067590D01*
X127499960Y-69949340D01*
X126783960Y-69949340D01*
X126665710Y-70067590D01*
X126625210Y-70067590D01*
X126625210Y-70108090D01*
X126506960Y-70226340D01*
X126489460Y-70226340D01*
X126371210Y-70108090D01*
X126371210Y-70067590D01*
X126330710Y-70067590D01*
X126212460Y-69949340D01*
X125496460Y-69949340D01*
X125378210Y-70067590D01*
X125337710Y-70067590D01*
X125337710Y-70108090D01*
X125219460Y-70226340D01*
X125201960Y-70226340D01*
X125083710Y-70108090D01*
X125083710Y-70067590D01*
X125043210Y-70067590D01*
X124924960Y-69949340D01*
X124208960Y-69949340D01*
X124090710Y-70067590D01*
X124050210Y-70067590D01*
X124050210Y-70108090D01*
X123931960Y-70226340D01*
X123796210Y-70226340D01*
X123796210Y-70067590D01*
X123776210Y-70067590D01*
X123776210Y-69813590D01*
X123796210Y-69813590D01*
X123796210Y-69793590D01*
X124050210Y-69793590D01*
X124050210Y-69813590D01*
G36*
X111567126Y-70909899D02*
X111651334Y-71035926D01*
X111777361Y-71120134D01*
X111926020Y-71149704D01*
X112259376Y-71149704D01*
X111628682Y-71780398D01*
X110860838Y-71780398D01*
X110676155Y-71817134D01*
X110519588Y-71921748D01*
X109994812Y-72446524D01*
X109808494Y-72369158D01*
X109475037Y-72368867D01*
X109166852Y-72496207D01*
X108930857Y-72731790D01*
X108859688Y-72903185D01*
X108828979Y-72882666D01*
X108644296Y-72845930D01*
X107839909Y-72845930D01*
X107839904Y-72845929D01*
X107655221Y-72882666D01*
X107498654Y-72987280D01*
X107498652Y-72987283D01*
X107030404Y-73455530D01*
X106875380Y-73455530D01*
X106841050Y-73421200D01*
X105841800Y-73421200D01*
X105841800Y-73441200D01*
X105587800Y-73441200D01*
X105587800Y-73421200D01*
X104588550Y-73421200D01*
X104429800Y-73579950D01*
X104429800Y-73583800D01*
X104206434Y-73583800D01*
X104021751Y-73620536D01*
X103873064Y-73719885D01*
X103873064Y-73289236D01*
X104490181Y-72672119D01*
X104429800Y-72817891D01*
X104429800Y-73008450D01*
X104588550Y-73167200D01*
X105587800Y-73167200D01*
X105587800Y-72467950D01*
X105429050Y-72309200D01*
X104938490Y-72309200D01*
X104792720Y-72369580D01*
X105395253Y-71767047D01*
X105395224Y-71800791D01*
X105522564Y-72108976D01*
X105758147Y-72344971D01*
X105904152Y-72405598D01*
X105841800Y-72467950D01*
X105841800Y-73167200D01*
X106841050Y-73167200D01*
X106999800Y-73008450D01*
X106999800Y-72817891D01*
X106903127Y-72584502D01*
X106724499Y-72405873D01*
X106643530Y-72372335D01*
X106707751Y-72345799D01*
X106911111Y-72142794D01*
X109395566Y-72142794D01*
X109589969Y-72104125D01*
X109754776Y-71994004D01*
X110637236Y-71111544D01*
X110957280Y-71111544D01*
X111105939Y-71081974D01*
X111231966Y-70997766D01*
X111316174Y-70871739D01*
X111316671Y-70869240D01*
X111559038Y-70869240D01*
X111567126Y-70909899D01*
X111567126Y-70909899D01*
G37*
X111567126Y-70909899D02*
X111651334Y-71035926D01*
X111777361Y-71120134D01*
X111926020Y-71149704D01*
X112259376Y-71149704D01*
X111628682Y-71780398D01*
X110860838Y-71780398D01*
X110676155Y-71817134D01*
X110519588Y-71921748D01*
X109994812Y-72446524D01*
X109808494Y-72369158D01*
X109475037Y-72368867D01*
X109166852Y-72496207D01*
X108930857Y-72731790D01*
X108859688Y-72903185D01*
X108828979Y-72882666D01*
X108644296Y-72845930D01*
X107839909Y-72845930D01*
X107839904Y-72845929D01*
X107655221Y-72882666D01*
X107498654Y-72987280D01*
X107498652Y-72987283D01*
X107030404Y-73455530D01*
X106875380Y-73455530D01*
X106841050Y-73421200D01*
X105841800Y-73421200D01*
X105841800Y-73441200D01*
X105587800Y-73441200D01*
X105587800Y-73421200D01*
X104588550Y-73421200D01*
X104429800Y-73579950D01*
X104429800Y-73583800D01*
X104206434Y-73583800D01*
X104021751Y-73620536D01*
X103873064Y-73719885D01*
X103873064Y-73289236D01*
X104490181Y-72672119D01*
X104429800Y-72817891D01*
X104429800Y-73008450D01*
X104588550Y-73167200D01*
X105587800Y-73167200D01*
X105587800Y-72467950D01*
X105429050Y-72309200D01*
X104938490Y-72309200D01*
X104792720Y-72369580D01*
X105395253Y-71767047D01*
X105395224Y-71800791D01*
X105522564Y-72108976D01*
X105758147Y-72344971D01*
X105904152Y-72405598D01*
X105841800Y-72467950D01*
X105841800Y-73167200D01*
X106841050Y-73167200D01*
X106999800Y-73008450D01*
X106999800Y-72817891D01*
X106903127Y-72584502D01*
X106724499Y-72405873D01*
X106643530Y-72372335D01*
X106707751Y-72345799D01*
X106911111Y-72142794D01*
X109395566Y-72142794D01*
X109589969Y-72104125D01*
X109754776Y-71994004D01*
X110637236Y-71111544D01*
X110957280Y-71111544D01*
X111105939Y-71081974D01*
X111231966Y-70997766D01*
X111316174Y-70871739D01*
X111316671Y-70869240D01*
X111559038Y-70869240D01*
X111567126Y-70909899D01*
G36*
X102336600Y-73398200D02*
X102356600Y-73398200D01*
X102356600Y-73652200D01*
X102336600Y-73652200D01*
X102336600Y-73672200D01*
X102082600Y-73672200D01*
X102082600Y-73652200D01*
X102062600Y-73652200D01*
X102062600Y-73398200D01*
X102082600Y-73398200D01*
X102082600Y-73378200D01*
X102336600Y-73378200D01*
X102336600Y-73398200D01*
X102336600Y-73398200D01*
G37*
X102336600Y-73398200D02*
X102356600Y-73398200D01*
X102356600Y-73652200D01*
X102336600Y-73652200D01*
X102336600Y-73672200D01*
X102082600Y-73672200D01*
X102082600Y-73652200D01*
X102062600Y-73652200D01*
X102062600Y-73398200D01*
X102082600Y-73398200D01*
X102082600Y-73378200D01*
X102336600Y-73378200D01*
X102336600Y-73398200D01*
G36*
X103086600Y-71805800D02*
X103106600Y-71805800D01*
X103106600Y-72059800D01*
X103086600Y-72059800D01*
X103086600Y-72079800D01*
X102832600Y-72079800D01*
X102832600Y-72059800D01*
X102812600Y-72059800D01*
X102812600Y-71805800D01*
X102832600Y-71805800D01*
X102832600Y-71785800D01*
X103086600Y-71785800D01*
X103086600Y-71805800D01*
X103086600Y-71805800D01*
G37*
X103086600Y-71805800D02*
X103106600Y-71805800D01*
X103106600Y-72059800D01*
X103086600Y-72059800D01*
X103086600Y-72079800D01*
X102832600Y-72079800D01*
X102832600Y-72059800D01*
X102812600Y-72059800D01*
X102812600Y-71805800D01*
X102832600Y-71805800D01*
X102832600Y-71785800D01*
X103086600Y-71785800D01*
X103086600Y-71805800D01*
G36*
X108542736Y-66225840D02*
X108569143Y-66358597D01*
X108391030Y-66536710D01*
X108286416Y-66693277D01*
X108249680Y-66877960D01*
X108249680Y-67110160D01*
X108132594Y-67188394D01*
X108048386Y-67314421D01*
X108018816Y-67463080D01*
X108018816Y-68523080D01*
X108048386Y-68671739D01*
X108132594Y-68797766D01*
X108258621Y-68881974D01*
X108281557Y-68886536D01*
X108286416Y-68910963D01*
X108391030Y-69067530D01*
X108598116Y-69274616D01*
X108407280Y-69274616D01*
X108258621Y-69304186D01*
X108132594Y-69388394D01*
X108048386Y-69514421D01*
X108018816Y-69663080D01*
X108018816Y-70723080D01*
X108048386Y-70871739D01*
X108132594Y-70997766D01*
X108258621Y-71081974D01*
X108407280Y-71111544D01*
X109057280Y-71111544D01*
X109205939Y-71081974D01*
X109278347Y-71033593D01*
X109185146Y-71126794D01*
X106910815Y-71126794D01*
X106708991Y-70924617D01*
X106401029Y-70796740D01*
X106067865Y-70796449D01*
X106068005Y-70636503D01*
X105940665Y-70328318D01*
X105705082Y-70092323D01*
X105397120Y-69964446D01*
X105063663Y-69964155D01*
X104755478Y-70091495D01*
X104519483Y-70327078D01*
X104391606Y-70635040D01*
X104391315Y-70968497D01*
X104518655Y-71276682D01*
X104519636Y-71277664D01*
X103991502Y-71805798D01*
X103835852Y-71805798D01*
X103994600Y-71647050D01*
X103994600Y-71431490D01*
X103897927Y-71198101D01*
X103753289Y-71053464D01*
X103862000Y-71053464D01*
X104010659Y-71023894D01*
X104136686Y-70939686D01*
X104220894Y-70813659D01*
X104250464Y-70665000D01*
X104250464Y-69688750D01*
X104293772Y-69732134D01*
X104601734Y-69860011D01*
X104935191Y-69860302D01*
X105243376Y-69732962D01*
X105479371Y-69497379D01*
X105607248Y-69189417D01*
X105607539Y-68855960D01*
X105480199Y-68547775D01*
X105407735Y-68475185D01*
X108542736Y-65340184D01*
X108542736Y-66225840D01*
X108542736Y-66225840D01*
G37*
X108542736Y-66225840D02*
X108569143Y-66358597D01*
X108391030Y-66536710D01*
X108286416Y-66693277D01*
X108249680Y-66877960D01*
X108249680Y-67110160D01*
X108132594Y-67188394D01*
X108048386Y-67314421D01*
X108018816Y-67463080D01*
X108018816Y-68523080D01*
X108048386Y-68671739D01*
X108132594Y-68797766D01*
X108258621Y-68881974D01*
X108281557Y-68886536D01*
X108286416Y-68910963D01*
X108391030Y-69067530D01*
X108598116Y-69274616D01*
X108407280Y-69274616D01*
X108258621Y-69304186D01*
X108132594Y-69388394D01*
X108048386Y-69514421D01*
X108018816Y-69663080D01*
X108018816Y-70723080D01*
X108048386Y-70871739D01*
X108132594Y-70997766D01*
X108258621Y-71081974D01*
X108407280Y-71111544D01*
X109057280Y-71111544D01*
X109205939Y-71081974D01*
X109278347Y-71033593D01*
X109185146Y-71126794D01*
X106910815Y-71126794D01*
X106708991Y-70924617D01*
X106401029Y-70796740D01*
X106067865Y-70796449D01*
X106068005Y-70636503D01*
X105940665Y-70328318D01*
X105705082Y-70092323D01*
X105397120Y-69964446D01*
X105063663Y-69964155D01*
X104755478Y-70091495D01*
X104519483Y-70327078D01*
X104391606Y-70635040D01*
X104391315Y-70968497D01*
X104518655Y-71276682D01*
X104519636Y-71277664D01*
X103991502Y-71805798D01*
X103835852Y-71805798D01*
X103994600Y-71647050D01*
X103994600Y-71431490D01*
X103897927Y-71198101D01*
X103753289Y-71053464D01*
X103862000Y-71053464D01*
X104010659Y-71023894D01*
X104136686Y-70939686D01*
X104220894Y-70813659D01*
X104250464Y-70665000D01*
X104250464Y-69688750D01*
X104293772Y-69732134D01*
X104601734Y-69860011D01*
X104935191Y-69860302D01*
X105243376Y-69732962D01*
X105479371Y-69497379D01*
X105607248Y-69189417D01*
X105607539Y-68855960D01*
X105480199Y-68547775D01*
X105407735Y-68475185D01*
X108542736Y-65340184D01*
X108542736Y-66225840D01*
G36*
X112400080Y-67023680D02*
X112420080Y-67023680D01*
X112420080Y-67277680D01*
X112400080Y-67277680D01*
X112400080Y-68026930D01*
X112428020Y-68054870D01*
X112428020Y-68734240D01*
X112448020Y-68734240D01*
X112448020Y-68988240D01*
X112428020Y-68988240D01*
X112428020Y-69008240D01*
X112174020Y-69008240D01*
X112174020Y-68988240D01*
X112154020Y-68988240D01*
X112154020Y-68734240D01*
X112174020Y-68734240D01*
X112174020Y-67984990D01*
X112146080Y-67957050D01*
X112146080Y-67277680D01*
X112126080Y-67277680D01*
X112126080Y-67023680D01*
X112146080Y-67023680D01*
X112146080Y-67003680D01*
X112400080Y-67003680D01*
X112400080Y-67023680D01*
X112400080Y-67023680D01*
G37*
X112400080Y-67023680D02*
X112420080Y-67023680D01*
X112420080Y-67277680D01*
X112400080Y-67277680D01*
X112400080Y-68026930D01*
X112428020Y-68054870D01*
X112428020Y-68734240D01*
X112448020Y-68734240D01*
X112448020Y-68988240D01*
X112428020Y-68988240D01*
X112428020Y-69008240D01*
X112174020Y-69008240D01*
X112174020Y-68988240D01*
X112154020Y-68988240D01*
X112154020Y-68734240D01*
X112174020Y-68734240D01*
X112174020Y-67984990D01*
X112146080Y-67957050D01*
X112146080Y-67277680D01*
X112126080Y-67277680D01*
X112126080Y-67023680D01*
X112146080Y-67023680D01*
X112146080Y-67003680D01*
X112400080Y-67003680D01*
X112400080Y-67023680D01*
G36*
X121190670Y-66873820D02*
X121914920Y-66873820D01*
X121914920Y-66853820D01*
X122168920Y-66853820D01*
X122168920Y-66873820D01*
X122188920Y-66873820D01*
X122188920Y-67127820D01*
X122168920Y-67127820D01*
X122168920Y-67877070D01*
X122327670Y-68035820D01*
X122543230Y-68035820D01*
X122613932Y-68006534D01*
X122590996Y-68121840D01*
X122590996Y-68608376D01*
X122104460Y-68608376D01*
X121955801Y-68637946D01*
X121953864Y-68639240D01*
X121126648Y-68639240D01*
X121233886Y-68567586D01*
X121318094Y-68441559D01*
X121347664Y-68292900D01*
X121347664Y-67955899D01*
X121540610Y-68035820D01*
X121756170Y-68035820D01*
X121914920Y-67877070D01*
X121914920Y-67127820D01*
X121190670Y-67127820D01*
X121046658Y-67271832D01*
X120959200Y-67254436D01*
X119899200Y-67254436D01*
X119783860Y-67277378D01*
X119783860Y-66758422D01*
X119899200Y-66781364D01*
X120959200Y-66781364D01*
X121075150Y-66758300D01*
X121190670Y-66873820D01*
X121190670Y-66873820D01*
G37*
X121190670Y-66873820D02*
X121914920Y-66873820D01*
X121914920Y-66853820D01*
X122168920Y-66853820D01*
X122168920Y-66873820D01*
X122188920Y-66873820D01*
X122188920Y-67127820D01*
X122168920Y-67127820D01*
X122168920Y-67877070D01*
X122327670Y-68035820D01*
X122543230Y-68035820D01*
X122613932Y-68006534D01*
X122590996Y-68121840D01*
X122590996Y-68608376D01*
X122104460Y-68608376D01*
X121955801Y-68637946D01*
X121953864Y-68639240D01*
X121126648Y-68639240D01*
X121233886Y-68567586D01*
X121318094Y-68441559D01*
X121347664Y-68292900D01*
X121347664Y-67955899D01*
X121540610Y-68035820D01*
X121756170Y-68035820D01*
X121914920Y-67877070D01*
X121914920Y-67127820D01*
X121190670Y-67127820D01*
X121046658Y-67271832D01*
X120959200Y-67254436D01*
X119899200Y-67254436D01*
X119783860Y-67277378D01*
X119783860Y-66758422D01*
X119899200Y-66781364D01*
X120959200Y-66781364D01*
X121075150Y-66758300D01*
X121190670Y-66873820D01*
G36*
X128778700Y-65275460D02*
X128798700Y-65275460D01*
X128798700Y-65529460D01*
X128778700Y-65529460D01*
X128778700Y-66776600D01*
X129527950Y-66776600D01*
X129686700Y-66617850D01*
X129686700Y-66402290D01*
X129590027Y-66168901D01*
X129574156Y-66153030D01*
X129590027Y-66137159D01*
X129686700Y-65903770D01*
X129686700Y-65688210D01*
X129527952Y-65529462D01*
X129582992Y-65529462D01*
X129701150Y-65647827D01*
X130009112Y-65775704D01*
X130289326Y-65775949D01*
X130214173Y-65851102D01*
X130117500Y-66084491D01*
X130117500Y-66325050D01*
X130276250Y-66483800D01*
X131000500Y-66483800D01*
X131000500Y-65734550D01*
X130841750Y-65575800D01*
X130723736Y-65575800D01*
X130854114Y-65445650D01*
X131242210Y-65445650D01*
X131392805Y-65596245D01*
X131254500Y-65734550D01*
X131254500Y-66483800D01*
X131274500Y-66483800D01*
X131274500Y-66737800D01*
X131254500Y-66737800D01*
X131254500Y-66757800D01*
X131000500Y-66757800D01*
X131000500Y-66737800D01*
X130276250Y-66737800D01*
X130117500Y-66896550D01*
X130117500Y-67137109D01*
X130214173Y-67370498D01*
X130392801Y-67549127D01*
X130400242Y-67552209D01*
X130393606Y-67562141D01*
X130383914Y-67610865D01*
X130230057Y-67641469D01*
X130065250Y-67751590D01*
X129658201Y-68158639D01*
X129117924Y-68158639D01*
X129117924Y-68121840D01*
X129088354Y-67973181D01*
X129048544Y-67913600D01*
X129178009Y-67913600D01*
X129411398Y-67816927D01*
X129590027Y-67638299D01*
X129686700Y-67404910D01*
X129686700Y-67189350D01*
X129527950Y-67030600D01*
X128778700Y-67030600D01*
X128778700Y-67050600D01*
X128524700Y-67050600D01*
X128524700Y-67030600D01*
X128504700Y-67030600D01*
X128504700Y-66776600D01*
X128524700Y-66776600D01*
X128524700Y-65529460D01*
X128504700Y-65529460D01*
X128504700Y-65275460D01*
X128524700Y-65275460D01*
X128524700Y-65255460D01*
X128778700Y-65255460D01*
X128778700Y-65275460D01*
X128778700Y-65275460D01*
G37*
X128778700Y-65275460D02*
X128798700Y-65275460D01*
X128798700Y-65529460D01*
X128778700Y-65529460D01*
X128778700Y-66776600D01*
X129527950Y-66776600D01*
X129686700Y-66617850D01*
X129686700Y-66402290D01*
X129590027Y-66168901D01*
X129574156Y-66153030D01*
X129590027Y-66137159D01*
X129686700Y-65903770D01*
X129686700Y-65688210D01*
X129527952Y-65529462D01*
X129582992Y-65529462D01*
X129701150Y-65647827D01*
X130009112Y-65775704D01*
X130289326Y-65775949D01*
X130214173Y-65851102D01*
X130117500Y-66084491D01*
X130117500Y-66325050D01*
X130276250Y-66483800D01*
X131000500Y-66483800D01*
X131000500Y-65734550D01*
X130841750Y-65575800D01*
X130723736Y-65575800D01*
X130854114Y-65445650D01*
X131242210Y-65445650D01*
X131392805Y-65596245D01*
X131254500Y-65734550D01*
X131254500Y-66483800D01*
X131274500Y-66483800D01*
X131274500Y-66737800D01*
X131254500Y-66737800D01*
X131254500Y-66757800D01*
X131000500Y-66757800D01*
X131000500Y-66737800D01*
X130276250Y-66737800D01*
X130117500Y-66896550D01*
X130117500Y-67137109D01*
X130214173Y-67370498D01*
X130392801Y-67549127D01*
X130400242Y-67552209D01*
X130393606Y-67562141D01*
X130383914Y-67610865D01*
X130230057Y-67641469D01*
X130065250Y-67751590D01*
X129658201Y-68158639D01*
X129117924Y-68158639D01*
X129117924Y-68121840D01*
X129088354Y-67973181D01*
X129048544Y-67913600D01*
X129178009Y-67913600D01*
X129411398Y-67816927D01*
X129590027Y-67638299D01*
X129686700Y-67404910D01*
X129686700Y-67189350D01*
X129527950Y-67030600D01*
X128778700Y-67030600D01*
X128778700Y-67050600D01*
X128524700Y-67050600D01*
X128524700Y-67030600D01*
X128504700Y-67030600D01*
X128504700Y-66776600D01*
X128524700Y-66776600D01*
X128524700Y-65529460D01*
X128504700Y-65529460D01*
X128504700Y-65275460D01*
X128524700Y-65275460D01*
X128524700Y-65255460D01*
X128778700Y-65255460D01*
X128778700Y-65275460D01*
G36*
X110042736Y-66225840D02*
X110072306Y-66374499D01*
X110156514Y-66500526D01*
X110173200Y-66511675D01*
X110173200Y-66844487D01*
X110133590Y-66828080D01*
X109968030Y-66828080D01*
X109809280Y-66986830D01*
X109809280Y-67866080D01*
X109829280Y-67866080D01*
X109829280Y-68120080D01*
X109809280Y-68120080D01*
X109809280Y-68140080D01*
X109555280Y-68140080D01*
X109555280Y-68120080D01*
X109535280Y-68120080D01*
X109535280Y-67866080D01*
X109555280Y-67866080D01*
X109555280Y-66986830D01*
X109430595Y-66862145D01*
X109522450Y-66770290D01*
X109627064Y-66613723D01*
X109640950Y-66543914D01*
X109705886Y-66500526D01*
X109790094Y-66374499D01*
X109819664Y-66225840D01*
X109819664Y-65619876D01*
X110042736Y-65396804D01*
X110042736Y-66225840D01*
X110042736Y-66225840D01*
G37*
X110042736Y-66225840D02*
X110072306Y-66374499D01*
X110156514Y-66500526D01*
X110173200Y-66511675D01*
X110173200Y-66844487D01*
X110133590Y-66828080D01*
X109968030Y-66828080D01*
X109809280Y-66986830D01*
X109809280Y-67866080D01*
X109829280Y-67866080D01*
X109829280Y-68120080D01*
X109809280Y-68120080D01*
X109809280Y-68140080D01*
X109555280Y-68140080D01*
X109555280Y-68120080D01*
X109535280Y-68120080D01*
X109535280Y-67866080D01*
X109555280Y-67866080D01*
X109555280Y-66986830D01*
X109430595Y-66862145D01*
X109522450Y-66770290D01*
X109627064Y-66613723D01*
X109640950Y-66543914D01*
X109705886Y-66500526D01*
X109790094Y-66374499D01*
X109819664Y-66225840D01*
X109819664Y-65619876D01*
X110042736Y-65396804D01*
X110042736Y-66225840D01*
G36*
X118356200Y-66890900D02*
X118376200Y-66890900D01*
X118376200Y-67144900D01*
X118356200Y-67144900D01*
X118356200Y-67164900D01*
X118102200Y-67164900D01*
X118102200Y-67144900D01*
X118082200Y-67144900D01*
X118082200Y-66890900D01*
X118102200Y-66890900D01*
X118102200Y-66870900D01*
X118356200Y-66870900D01*
X118356200Y-66890900D01*
X118356200Y-66890900D01*
G37*
X118356200Y-66890900D02*
X118376200Y-66890900D01*
X118376200Y-67144900D01*
X118356200Y-67144900D01*
X118356200Y-67164900D01*
X118102200Y-67164900D01*
X118102200Y-67144900D01*
X118082200Y-67144900D01*
X118082200Y-66890900D01*
X118102200Y-66890900D01*
X118102200Y-66870900D01*
X118356200Y-66870900D01*
X118356200Y-66890900D01*
G36*
X117310736Y-66072856D02*
X117310736Y-66183339D01*
X117160873Y-66333201D01*
X117064200Y-66566590D01*
X117064200Y-66688846D01*
X116902146Y-66526792D01*
X116745579Y-66422178D01*
X116560896Y-66385442D01*
X116321078Y-66385442D01*
X116207538Y-66271902D01*
X116207538Y-66032084D01*
X116170802Y-65847401D01*
X116066188Y-65690834D01*
X116066185Y-65690832D01*
X115536501Y-65161147D01*
X116399027Y-65161147D01*
X117310736Y-66072856D01*
X117310736Y-66072856D01*
G37*
X117310736Y-66072856D02*
X117310736Y-66183339D01*
X117160873Y-66333201D01*
X117064200Y-66566590D01*
X117064200Y-66688846D01*
X116902146Y-66526792D01*
X116745579Y-66422178D01*
X116560896Y-66385442D01*
X116321078Y-66385442D01*
X116207538Y-66271902D01*
X116207538Y-66032084D01*
X116170802Y-65847401D01*
X116066188Y-65690834D01*
X116066185Y-65690832D01*
X115536501Y-65161147D01*
X116399027Y-65161147D01*
X117310736Y-66072856D01*
M02*
