G04 #@! TF.GenerationSoftware,KiCad,Pcbnew,(2017-09-09 revision 8c7175b)-master*
G04 #@! TF.CreationDate,2017-09-11T12:48:41-07:00*
G04 #@! TF.ProjectId,feather_ice40,666561746865725F69636534302E6B69,rev?*
G04 #@! TF.SameCoordinates,Original*
G04 #@! TF.FileFunction,Legend,Top*
G04 #@! TF.FilePolarity,Positive*
%FSLAX46Y46*%
G04 Gerber Fmt 4.6, Leading zero omitted, Abs format (unit mm)*
G04 Created by KiCad (PCBNEW (2017-09-09 revision 8c7175b)-master) date Monday, September 11, 2017 'PMt' 12:48:41 PM*
%MOMM*%
%LPD*%
G01*
G04 APERTURE LIST*
%ADD10C,0.200000*%
%ADD11C,0.150000*%
%ADD12C,0.100000*%
%ADD13C,0.120000*%
G04 APERTURE END LIST*
D10*
X130217692Y-67335400D02*
G75*
G03X130217692Y-67335400I-317012J0D01*
G01*
X108883354Y-80850740D02*
G75*
G03X108883354Y-80850740I-209454J0D01*
G01*
X121685858Y-73330796D02*
X120535858Y-73330796D01*
X121576334Y-72126034D02*
X121631096Y-72180796D01*
X121685858Y-72345081D01*
X121685858Y-72454605D01*
X121631096Y-72618891D01*
X121521572Y-72728415D01*
X121412048Y-72783177D01*
X121193000Y-72837939D01*
X121028715Y-72837939D01*
X120809667Y-72783177D01*
X120700143Y-72728415D01*
X120590620Y-72618891D01*
X120535858Y-72454605D01*
X120535858Y-72345081D01*
X120590620Y-72180796D01*
X120645381Y-72126034D01*
X121083477Y-71633177D02*
X121083477Y-71249843D01*
X121685858Y-71085558D02*
X121685858Y-71633177D01*
X120535858Y-71633177D01*
X120535858Y-71085558D01*
X120919191Y-70099843D02*
X121685858Y-70099843D01*
X120481096Y-70373653D02*
X121302524Y-70647462D01*
X121302524Y-69935558D01*
X120535858Y-69278415D02*
X120535858Y-69168891D01*
X120590620Y-69059367D01*
X120645381Y-69004605D01*
X120754905Y-68949843D01*
X120973953Y-68895081D01*
X121247762Y-68895081D01*
X121466810Y-68949843D01*
X121576334Y-69004605D01*
X121631096Y-69059367D01*
X121685858Y-69168891D01*
X121685858Y-69278415D01*
X121631096Y-69387939D01*
X121576334Y-69442700D01*
X121466810Y-69497462D01*
X121247762Y-69552224D01*
X120973953Y-69552224D01*
X120754905Y-69497462D01*
X120645381Y-69442700D01*
X120590620Y-69387939D01*
X120535858Y-69278415D01*
D11*
X139101461Y-76751749D02*
X139149080Y-76608892D01*
X139149080Y-76370797D01*
X139101461Y-76275559D01*
X139053842Y-76227940D01*
X138958604Y-76180320D01*
X138863366Y-76180320D01*
X138768128Y-76227940D01*
X138720509Y-76275559D01*
X138672890Y-76370797D01*
X138625271Y-76561273D01*
X138577652Y-76656511D01*
X138530033Y-76704130D01*
X138434795Y-76751749D01*
X138339557Y-76751749D01*
X138244319Y-76704130D01*
X138196700Y-76656511D01*
X138149080Y-76561273D01*
X138149080Y-76323178D01*
X138196700Y-76180320D01*
X139149080Y-75751749D02*
X138149080Y-75751749D01*
X138959862Y-73666646D02*
X139007481Y-73714265D01*
X139055100Y-73857122D01*
X139055100Y-73952360D01*
X139007481Y-74095218D01*
X138912243Y-74190456D01*
X138817005Y-74238075D01*
X138626529Y-74285694D01*
X138483672Y-74285694D01*
X138293196Y-74238075D01*
X138197958Y-74190456D01*
X138102720Y-74095218D01*
X138055100Y-73952360D01*
X138055100Y-73857122D01*
X138102720Y-73714265D01*
X138150339Y-73666646D01*
X139007481Y-73285694D02*
X139055100Y-73142837D01*
X139055100Y-72904741D01*
X139007481Y-72809503D01*
X138959862Y-72761884D01*
X138864624Y-72714265D01*
X138769386Y-72714265D01*
X138674148Y-72761884D01*
X138626529Y-72809503D01*
X138578910Y-72904741D01*
X138531291Y-73095218D01*
X138483672Y-73190456D01*
X138436053Y-73238075D01*
X138340815Y-73285694D01*
X138245577Y-73285694D01*
X138150339Y-73238075D01*
X138102720Y-73190456D01*
X138055100Y-73095218D01*
X138055100Y-72857122D01*
X138102720Y-72714265D01*
X139030982Y-71173316D02*
X139078601Y-71220935D01*
X139126220Y-71363792D01*
X139126220Y-71459030D01*
X139078601Y-71601887D01*
X138983363Y-71697125D01*
X138888125Y-71744744D01*
X138697649Y-71792363D01*
X138554792Y-71792363D01*
X138364316Y-71744744D01*
X138269078Y-71697125D01*
X138173840Y-71601887D01*
X138126220Y-71459030D01*
X138126220Y-71363792D01*
X138173840Y-71220935D01*
X138221459Y-71173316D01*
X139126220Y-70744744D02*
X138126220Y-70744744D01*
X139126220Y-70173316D02*
X138554792Y-70601887D01*
X138126220Y-70173316D02*
X138697649Y-70744744D01*
X139055741Y-69323483D02*
X139103360Y-69180626D01*
X139103360Y-68942531D01*
X139055741Y-68847293D01*
X139008122Y-68799674D01*
X138912884Y-68752055D01*
X138817646Y-68752055D01*
X138722408Y-68799674D01*
X138674789Y-68847293D01*
X138627170Y-68942531D01*
X138579551Y-69133007D01*
X138531932Y-69228245D01*
X138484313Y-69275864D01*
X138389075Y-69323483D01*
X138293837Y-69323483D01*
X138198599Y-69275864D01*
X138150980Y-69228245D01*
X138103360Y-69133007D01*
X138103360Y-68894912D01*
X138150980Y-68752055D01*
X138103360Y-68133007D02*
X138103360Y-67942531D01*
X138150980Y-67847293D01*
X138246218Y-67752055D01*
X138436694Y-67704436D01*
X138770027Y-67704436D01*
X138960503Y-67752055D01*
X139055741Y-67847293D01*
X139103360Y-67942531D01*
X139103360Y-68133007D01*
X139055741Y-68228245D01*
X138960503Y-68323483D01*
X138770027Y-68371102D01*
X138436694Y-68371102D01*
X138246218Y-68323483D01*
X138150980Y-68228245D01*
X138103360Y-68133007D01*
X140102032Y-66966102D02*
X140054413Y-67013721D01*
X139911556Y-67061340D01*
X139816318Y-67061340D01*
X139673460Y-67013721D01*
X139578222Y-66918483D01*
X139530603Y-66823245D01*
X139482984Y-66632769D01*
X139482984Y-66489912D01*
X139530603Y-66299436D01*
X139578222Y-66204198D01*
X139673460Y-66108960D01*
X139816318Y-66061340D01*
X139911556Y-66061340D01*
X140054413Y-66108960D01*
X140102032Y-66156579D01*
X140863937Y-66537531D02*
X140530603Y-66537531D01*
X140530603Y-67061340D02*
X140530603Y-66061340D01*
X141006794Y-66061340D01*
X141911556Y-66108960D02*
X141816318Y-66061340D01*
X141673460Y-66061340D01*
X141530603Y-66108960D01*
X141435365Y-66204198D01*
X141387746Y-66299436D01*
X141340127Y-66489912D01*
X141340127Y-66632769D01*
X141387746Y-66823245D01*
X141435365Y-66918483D01*
X141530603Y-67013721D01*
X141673460Y-67061340D01*
X141768699Y-67061340D01*
X141911556Y-67013721D01*
X141959175Y-66966102D01*
X141959175Y-66632769D01*
X141768699Y-66632769D01*
X140147752Y-78716142D02*
X140100133Y-78763761D01*
X139957276Y-78811380D01*
X139862038Y-78811380D01*
X139719180Y-78763761D01*
X139623942Y-78668523D01*
X139576323Y-78573285D01*
X139528704Y-78382809D01*
X139528704Y-78239952D01*
X139576323Y-78049476D01*
X139623942Y-77954238D01*
X139719180Y-77859000D01*
X139862038Y-77811380D01*
X139957276Y-77811380D01*
X140100133Y-77859000D01*
X140147752Y-77906619D01*
X140909657Y-78287571D02*
X140576323Y-78287571D01*
X140576323Y-78811380D02*
X140576323Y-77811380D01*
X141052514Y-77811380D01*
X141957276Y-77859000D02*
X141862038Y-77811380D01*
X141719180Y-77811380D01*
X141576323Y-77859000D01*
X141481085Y-77954238D01*
X141433466Y-78049476D01*
X141385847Y-78239952D01*
X141385847Y-78382809D01*
X141433466Y-78573285D01*
X141481085Y-78668523D01*
X141576323Y-78763761D01*
X141719180Y-78811380D01*
X141814419Y-78811380D01*
X141957276Y-78763761D01*
X142004895Y-78716142D01*
X142004895Y-78382809D01*
X141814419Y-78382809D01*
D12*
X109949128Y-64142388D02*
X110199128Y-64142388D01*
X110306271Y-64535245D02*
X109949128Y-64535245D01*
X109949128Y-63785245D01*
X110306271Y-63785245D01*
X110627700Y-64535245D02*
X110627700Y-63785245D01*
X111056271Y-64535245D01*
X111056271Y-63785245D01*
D11*
X110252688Y-74465440D02*
X110252688Y-73465440D01*
X110586021Y-74179726D01*
X110919355Y-73465440D01*
X110919355Y-74465440D01*
X111586021Y-73465440D02*
X111681260Y-73465440D01*
X111776498Y-73513060D01*
X111824117Y-73560679D01*
X111871736Y-73655917D01*
X111919355Y-73846393D01*
X111919355Y-74084488D01*
X111871736Y-74274964D01*
X111824117Y-74370202D01*
X111776498Y-74417821D01*
X111681260Y-74465440D01*
X111586021Y-74465440D01*
X111490783Y-74417821D01*
X111443164Y-74370202D01*
X111395545Y-74274964D01*
X111347926Y-74084488D01*
X111347926Y-73846393D01*
X111395545Y-73655917D01*
X111443164Y-73560679D01*
X111490783Y-73513060D01*
X111586021Y-73465440D01*
X112347926Y-74084488D02*
X113109831Y-74084488D01*
X112728879Y-74465440D02*
X112728879Y-73703536D01*
D12*
X92774965Y-67669534D02*
X92024965Y-67669534D01*
X92024965Y-67490962D01*
X92060680Y-67383820D01*
X92132108Y-67312391D01*
X92203537Y-67276677D01*
X92346394Y-67240962D01*
X92453537Y-67240962D01*
X92596394Y-67276677D01*
X92667822Y-67312391D01*
X92739251Y-67383820D01*
X92774965Y-67490962D01*
X92774965Y-67669534D01*
X92774965Y-66526677D02*
X92774965Y-66955248D01*
X92774965Y-66740962D02*
X92024965Y-66740962D01*
X92132108Y-66812391D01*
X92203537Y-66883820D01*
X92239251Y-66955248D01*
X92024965Y-66276677D02*
X92024965Y-65812391D01*
X92310680Y-66062391D01*
X92310680Y-65955248D01*
X92346394Y-65883820D01*
X92382108Y-65848105D01*
X92453537Y-65812391D01*
X92632108Y-65812391D01*
X92703537Y-65848105D01*
X92739251Y-65883820D01*
X92774965Y-65955248D01*
X92774965Y-66169534D01*
X92739251Y-66240962D01*
X92703537Y-66276677D01*
X92784817Y-78777874D02*
X92820531Y-78813588D01*
X92856245Y-78920731D01*
X92856245Y-78992160D01*
X92820531Y-79099302D01*
X92749102Y-79170731D01*
X92677674Y-79206445D01*
X92534817Y-79242160D01*
X92427674Y-79242160D01*
X92284817Y-79206445D01*
X92213388Y-79170731D01*
X92141960Y-79099302D01*
X92106245Y-78992160D01*
X92106245Y-78920731D01*
X92141960Y-78813588D01*
X92177674Y-78777874D01*
X92856245Y-78456445D02*
X92106245Y-78456445D01*
X92463388Y-78456445D02*
X92463388Y-78027874D01*
X92856245Y-78027874D02*
X92106245Y-78027874D01*
X92141960Y-77277874D02*
X92106245Y-77349302D01*
X92106245Y-77456445D01*
X92141960Y-77563588D01*
X92213388Y-77635017D01*
X92284817Y-77670731D01*
X92427674Y-77706445D01*
X92534817Y-77706445D01*
X92677674Y-77670731D01*
X92749102Y-77635017D01*
X92820531Y-77563588D01*
X92856245Y-77456445D01*
X92856245Y-77385017D01*
X92820531Y-77277874D01*
X92784817Y-77242160D01*
X92534817Y-77242160D01*
X92534817Y-77385017D01*
X96498605Y-80014314D02*
X96141462Y-80264314D01*
X96498605Y-80442885D02*
X95748605Y-80442885D01*
X95748605Y-80157171D01*
X95784320Y-80085742D01*
X95820034Y-80050028D01*
X95891462Y-80014314D01*
X95998605Y-80014314D01*
X96070034Y-80050028D01*
X96105748Y-80085742D01*
X96141462Y-80157171D01*
X96141462Y-80442885D01*
X96462891Y-79728600D02*
X96498605Y-79621457D01*
X96498605Y-79442885D01*
X96462891Y-79371457D01*
X96427177Y-79335742D01*
X96355748Y-79300028D01*
X96284320Y-79300028D01*
X96212891Y-79335742D01*
X96177177Y-79371457D01*
X96141462Y-79442885D01*
X96105748Y-79585742D01*
X96070034Y-79657171D01*
X96034320Y-79692885D01*
X95962891Y-79728600D01*
X95891462Y-79728600D01*
X95820034Y-79692885D01*
X95784320Y-79657171D01*
X95748605Y-79585742D01*
X95748605Y-79407171D01*
X95784320Y-79300028D01*
X95748605Y-79085742D02*
X95748605Y-78657171D01*
X96498605Y-78871457D02*
X95748605Y-78871457D01*
X97437705Y-81390685D02*
X97187705Y-81033542D01*
X97009134Y-81390685D02*
X97009134Y-80640685D01*
X97294848Y-80640685D01*
X97366277Y-80676400D01*
X97401991Y-80712114D01*
X97437705Y-80783542D01*
X97437705Y-80890685D01*
X97401991Y-80962114D01*
X97366277Y-80997828D01*
X97294848Y-81033542D01*
X97009134Y-81033542D01*
X97723420Y-81354971D02*
X97830562Y-81390685D01*
X98009134Y-81390685D01*
X98080562Y-81354971D01*
X98116277Y-81319257D01*
X98151991Y-81247828D01*
X98151991Y-81176400D01*
X98116277Y-81104971D01*
X98080562Y-81069257D01*
X98009134Y-81033542D01*
X97866277Y-80997828D01*
X97794848Y-80962114D01*
X97759134Y-80926400D01*
X97723420Y-80854971D01*
X97723420Y-80783542D01*
X97759134Y-80712114D01*
X97794848Y-80676400D01*
X97866277Y-80640685D01*
X98044848Y-80640685D01*
X98151991Y-80676400D01*
X98366277Y-80640685D02*
X98794848Y-80640685D01*
X98580562Y-81390685D02*
X98580562Y-80640685D01*
X99852551Y-80465425D02*
X100316837Y-80465425D01*
X100066837Y-80751140D01*
X100173980Y-80751140D01*
X100245408Y-80786854D01*
X100281122Y-80822568D01*
X100316837Y-80893997D01*
X100316837Y-81072568D01*
X100281122Y-81143997D01*
X100245408Y-81179711D01*
X100173980Y-81215425D01*
X99959694Y-81215425D01*
X99888265Y-81179711D01*
X99852551Y-81143997D01*
X100531122Y-80465425D02*
X100781122Y-81215425D01*
X101031122Y-80465425D01*
X102328974Y-81050325D02*
X102328974Y-80300325D01*
X102757545Y-81050325D01*
X102757545Y-80300325D01*
X103543260Y-80978897D02*
X103507545Y-81014611D01*
X103400402Y-81050325D01*
X103328974Y-81050325D01*
X103221831Y-81014611D01*
X103150402Y-80943182D01*
X103114688Y-80871754D01*
X103078974Y-80728897D01*
X103078974Y-80621754D01*
X103114688Y-80478897D01*
X103150402Y-80407468D01*
X103221831Y-80336040D01*
X103328974Y-80300325D01*
X103400402Y-80300325D01*
X103507545Y-80336040D01*
X103543260Y-80371754D01*
X104810631Y-80351280D02*
X104739202Y-80315565D01*
X104632060Y-80315565D01*
X104524917Y-80351280D01*
X104453488Y-80422708D01*
X104417774Y-80494137D01*
X104382060Y-80636994D01*
X104382060Y-80744137D01*
X104417774Y-80886994D01*
X104453488Y-80958422D01*
X104524917Y-81029851D01*
X104632060Y-81065565D01*
X104703488Y-81065565D01*
X104810631Y-81029851D01*
X104846345Y-80994137D01*
X104846345Y-80744137D01*
X104703488Y-80744137D01*
X105167774Y-81065565D02*
X105167774Y-80315565D01*
X105596345Y-81065565D01*
X105596345Y-80315565D01*
X105953488Y-81065565D02*
X105953488Y-80315565D01*
X106132060Y-80315565D01*
X106239202Y-80351280D01*
X106310631Y-80422708D01*
X106346345Y-80494137D01*
X106382060Y-80636994D01*
X106382060Y-80744137D01*
X106346345Y-80886994D01*
X106310631Y-80958422D01*
X106239202Y-81029851D01*
X106132060Y-81065565D01*
X105953488Y-81065565D01*
X106799605Y-80863980D02*
X107156748Y-80863980D01*
X106728177Y-81078265D02*
X106978177Y-80328265D01*
X107228177Y-81078265D01*
X107621034Y-80328265D02*
X107692462Y-80328265D01*
X107763891Y-80363980D01*
X107799605Y-80399694D01*
X107835320Y-80471122D01*
X107871034Y-80613980D01*
X107871034Y-80792551D01*
X107835320Y-80935408D01*
X107799605Y-81006837D01*
X107763891Y-81042551D01*
X107692462Y-81078265D01*
X107621034Y-81078265D01*
X107549605Y-81042551D01*
X107513891Y-81006837D01*
X107478177Y-80935408D01*
X107442462Y-80792551D01*
X107442462Y-80613980D01*
X107478177Y-80471122D01*
X107513891Y-80399694D01*
X107549605Y-80363980D01*
X107621034Y-80328265D01*
X115085085Y-80312800D02*
X115442228Y-80312800D01*
X115013657Y-80527085D02*
X115263657Y-79777085D01*
X115513657Y-80527085D01*
X115692228Y-79777085D02*
X116156514Y-79777085D01*
X115906514Y-80062800D01*
X116013657Y-80062800D01*
X116085085Y-80098514D01*
X116120800Y-80134228D01*
X116156514Y-80205657D01*
X116156514Y-80384228D01*
X116120800Y-80455657D01*
X116085085Y-80491371D01*
X116013657Y-80527085D01*
X115799371Y-80527085D01*
X115727942Y-80491371D01*
X115692228Y-80455657D01*
X117574285Y-80312800D02*
X117931428Y-80312800D01*
X117502857Y-80527085D02*
X117752857Y-79777085D01*
X118002857Y-80527085D01*
X118574285Y-80027085D02*
X118574285Y-80527085D01*
X118395714Y-79741371D02*
X118217142Y-80277085D01*
X118681428Y-80277085D01*
X134948805Y-64486831D02*
X135055948Y-64522545D01*
X135234520Y-64522545D01*
X135305948Y-64486831D01*
X135341662Y-64451117D01*
X135377377Y-64379688D01*
X135377377Y-64308260D01*
X135341662Y-64236831D01*
X135305948Y-64201117D01*
X135234520Y-64165402D01*
X135091662Y-64129688D01*
X135020234Y-64093974D01*
X134984520Y-64058260D01*
X134948805Y-63986831D01*
X134948805Y-63915402D01*
X134984520Y-63843974D01*
X135020234Y-63808260D01*
X135091662Y-63772545D01*
X135270234Y-63772545D01*
X135377377Y-63808260D01*
X135698805Y-64522545D02*
X135698805Y-63772545D01*
X135877377Y-63772545D01*
X135984520Y-63808260D01*
X136055948Y-63879688D01*
X136091662Y-63951117D01*
X136127377Y-64093974D01*
X136127377Y-64201117D01*
X136091662Y-64343974D01*
X136055948Y-64415402D01*
X135984520Y-64486831D01*
X135877377Y-64522545D01*
X135698805Y-64522545D01*
X136413091Y-64308260D02*
X136770234Y-64308260D01*
X136341662Y-64522545D02*
X136591662Y-63772545D01*
X136841662Y-64522545D01*
X132429202Y-64466511D02*
X132536345Y-64502225D01*
X132714917Y-64502225D01*
X132786345Y-64466511D01*
X132822060Y-64430797D01*
X132857774Y-64359368D01*
X132857774Y-64287940D01*
X132822060Y-64216511D01*
X132786345Y-64180797D01*
X132714917Y-64145082D01*
X132572060Y-64109368D01*
X132500631Y-64073654D01*
X132464917Y-64037940D01*
X132429202Y-63966511D01*
X132429202Y-63895082D01*
X132464917Y-63823654D01*
X132500631Y-63787940D01*
X132572060Y-63752225D01*
X132750631Y-63752225D01*
X132857774Y-63787940D01*
X133607774Y-64430797D02*
X133572060Y-64466511D01*
X133464917Y-64502225D01*
X133393488Y-64502225D01*
X133286345Y-64466511D01*
X133214917Y-64395082D01*
X133179202Y-64323654D01*
X133143488Y-64180797D01*
X133143488Y-64073654D01*
X133179202Y-63930797D01*
X133214917Y-63859368D01*
X133286345Y-63787940D01*
X133393488Y-63752225D01*
X133464917Y-63752225D01*
X133572060Y-63787940D01*
X133607774Y-63823654D01*
X134286345Y-64502225D02*
X133929202Y-64502225D01*
X133929202Y-63752225D01*
X130261508Y-64520005D02*
X130261508Y-63770005D01*
X130440080Y-63770005D01*
X130547222Y-63805720D01*
X130618651Y-63877148D01*
X130654365Y-63948577D01*
X130690080Y-64091434D01*
X130690080Y-64198577D01*
X130654365Y-64341434D01*
X130618651Y-64412862D01*
X130547222Y-64484291D01*
X130440080Y-64520005D01*
X130261508Y-64520005D01*
X131368651Y-63770005D02*
X131011508Y-63770005D01*
X130975794Y-64127148D01*
X131011508Y-64091434D01*
X131082937Y-64055720D01*
X131261508Y-64055720D01*
X131332937Y-64091434D01*
X131368651Y-64127148D01*
X131404365Y-64198577D01*
X131404365Y-64377148D01*
X131368651Y-64448577D01*
X131332937Y-64484291D01*
X131261508Y-64520005D01*
X131082937Y-64520005D01*
X131011508Y-64484291D01*
X130975794Y-64448577D01*
X127691028Y-64578425D02*
X127691028Y-63828425D01*
X127869600Y-63828425D01*
X127976742Y-63864140D01*
X128048171Y-63935568D01*
X128083885Y-64006997D01*
X128119600Y-64149854D01*
X128119600Y-64256997D01*
X128083885Y-64399854D01*
X128048171Y-64471282D01*
X127976742Y-64542711D01*
X127869600Y-64578425D01*
X127691028Y-64578425D01*
X128762457Y-63828425D02*
X128619600Y-63828425D01*
X128548171Y-63864140D01*
X128512457Y-63899854D01*
X128441028Y-64006997D01*
X128405314Y-64149854D01*
X128405314Y-64435568D01*
X128441028Y-64506997D01*
X128476742Y-64542711D01*
X128548171Y-64578425D01*
X128691028Y-64578425D01*
X128762457Y-64542711D01*
X128798171Y-64506997D01*
X128833885Y-64435568D01*
X128833885Y-64256997D01*
X128798171Y-64185568D01*
X128762457Y-64149854D01*
X128691028Y-64114140D01*
X128548171Y-64114140D01*
X128476742Y-64149854D01*
X128441028Y-64185568D01*
X128405314Y-64256997D01*
X125138328Y-64558105D02*
X125138328Y-63808105D01*
X125316900Y-63808105D01*
X125424042Y-63843820D01*
X125495471Y-63915248D01*
X125531185Y-63986677D01*
X125566900Y-64129534D01*
X125566900Y-64236677D01*
X125531185Y-64379534D01*
X125495471Y-64450962D01*
X125424042Y-64522391D01*
X125316900Y-64558105D01*
X125138328Y-64558105D01*
X125924042Y-64558105D02*
X126066900Y-64558105D01*
X126138328Y-64522391D01*
X126174042Y-64486677D01*
X126245471Y-64379534D01*
X126281185Y-64236677D01*
X126281185Y-63950962D01*
X126245471Y-63879534D01*
X126209757Y-63843820D01*
X126138328Y-63808105D01*
X125995471Y-63808105D01*
X125924042Y-63843820D01*
X125888328Y-63879534D01*
X125852614Y-63950962D01*
X125852614Y-64129534D01*
X125888328Y-64200962D01*
X125924042Y-64236677D01*
X125995471Y-64272391D01*
X126138328Y-64272391D01*
X126209757Y-64236677D01*
X126245471Y-64200962D01*
X126281185Y-64129534D01*
X122269125Y-64583505D02*
X122269125Y-63833505D01*
X122447697Y-63833505D01*
X122554840Y-63869220D01*
X122626268Y-63940648D01*
X122661982Y-64012077D01*
X122697697Y-64154934D01*
X122697697Y-64262077D01*
X122661982Y-64404934D01*
X122626268Y-64476362D01*
X122554840Y-64547791D01*
X122447697Y-64583505D01*
X122269125Y-64583505D01*
X123411982Y-64583505D02*
X122983411Y-64583505D01*
X123197697Y-64583505D02*
X123197697Y-63833505D01*
X123126268Y-63940648D01*
X123054840Y-64012077D01*
X122983411Y-64047791D01*
X123876268Y-63833505D02*
X123947697Y-63833505D01*
X124019125Y-63869220D01*
X124054840Y-63904934D01*
X124090554Y-63976362D01*
X124126268Y-64119220D01*
X124126268Y-64297791D01*
X124090554Y-64440648D01*
X124054840Y-64512077D01*
X124019125Y-64547791D01*
X123947697Y-64583505D01*
X123876268Y-64583505D01*
X123804840Y-64547791D01*
X123769125Y-64512077D01*
X123733411Y-64440648D01*
X123697697Y-64297791D01*
X123697697Y-64119220D01*
X123733411Y-63976362D01*
X123769125Y-63904934D01*
X123804840Y-63869220D01*
X123876268Y-63833505D01*
X119795165Y-64596205D02*
X119795165Y-63846205D01*
X119973737Y-63846205D01*
X120080880Y-63881920D01*
X120152308Y-63953348D01*
X120188022Y-64024777D01*
X120223737Y-64167634D01*
X120223737Y-64274777D01*
X120188022Y-64417634D01*
X120152308Y-64489062D01*
X120080880Y-64560491D01*
X119973737Y-64596205D01*
X119795165Y-64596205D01*
X120938022Y-64596205D02*
X120509451Y-64596205D01*
X120723737Y-64596205D02*
X120723737Y-63846205D01*
X120652308Y-63953348D01*
X120580880Y-64024777D01*
X120509451Y-64060491D01*
X121652308Y-64596205D02*
X121223737Y-64596205D01*
X121438022Y-64596205D02*
X121438022Y-63846205D01*
X121366594Y-63953348D01*
X121295165Y-64024777D01*
X121223737Y-64060491D01*
X117196745Y-64591125D02*
X117196745Y-63841125D01*
X117375317Y-63841125D01*
X117482460Y-63876840D01*
X117553888Y-63948268D01*
X117589602Y-64019697D01*
X117625317Y-64162554D01*
X117625317Y-64269697D01*
X117589602Y-64412554D01*
X117553888Y-64483982D01*
X117482460Y-64555411D01*
X117375317Y-64591125D01*
X117196745Y-64591125D01*
X118339602Y-64591125D02*
X117911031Y-64591125D01*
X118125317Y-64591125D02*
X118125317Y-63841125D01*
X118053888Y-63948268D01*
X117982460Y-64019697D01*
X117911031Y-64055411D01*
X118625317Y-63912554D02*
X118661031Y-63876840D01*
X118732460Y-63841125D01*
X118911031Y-63841125D01*
X118982460Y-63876840D01*
X119018174Y-63912554D01*
X119053888Y-63983982D01*
X119053888Y-64055411D01*
X119018174Y-64162554D01*
X118589602Y-64591125D01*
X119053888Y-64591125D01*
X114644045Y-64611445D02*
X114644045Y-63861445D01*
X114822617Y-63861445D01*
X114929760Y-63897160D01*
X115001188Y-63968588D01*
X115036902Y-64040017D01*
X115072617Y-64182874D01*
X115072617Y-64290017D01*
X115036902Y-64432874D01*
X115001188Y-64504302D01*
X114929760Y-64575731D01*
X114822617Y-64611445D01*
X114644045Y-64611445D01*
X115786902Y-64611445D02*
X115358331Y-64611445D01*
X115572617Y-64611445D02*
X115572617Y-63861445D01*
X115501188Y-63968588D01*
X115429760Y-64040017D01*
X115358331Y-64075731D01*
X116036902Y-63861445D02*
X116501188Y-63861445D01*
X116251188Y-64147160D01*
X116358331Y-64147160D01*
X116429760Y-64182874D01*
X116465474Y-64218588D01*
X116501188Y-64290017D01*
X116501188Y-64468588D01*
X116465474Y-64540017D01*
X116429760Y-64575731D01*
X116358331Y-64611445D01*
X116144045Y-64611445D01*
X116072617Y-64575731D01*
X116036902Y-64540017D01*
D11*
X107718551Y-65759555D02*
X107766170Y-65616698D01*
X107813789Y-65569079D01*
X107909027Y-65521460D01*
X108051884Y-65521460D01*
X108147122Y-65569079D01*
X108194741Y-65616698D01*
X108242360Y-65711936D01*
X108242360Y-66092888D01*
X107242360Y-66092888D01*
X107242360Y-65759555D01*
X107289980Y-65664317D01*
X107337599Y-65616698D01*
X107432837Y-65569079D01*
X107528075Y-65569079D01*
X107623313Y-65616698D01*
X107670932Y-65664317D01*
X107718551Y-65759555D01*
X107718551Y-66092888D01*
X107956646Y-65140507D02*
X107956646Y-64664317D01*
X108242360Y-65235745D02*
X107242360Y-64902412D01*
X108242360Y-64569079D01*
X107242360Y-64378602D02*
X107242360Y-63807174D01*
X108242360Y-64092888D02*
X107242360Y-64092888D01*
D12*
X112091191Y-63823345D02*
X112091191Y-64430488D01*
X112126905Y-64501917D01*
X112162620Y-64537631D01*
X112234048Y-64573345D01*
X112376905Y-64573345D01*
X112448334Y-64537631D01*
X112484048Y-64501917D01*
X112519762Y-64430488D01*
X112519762Y-63823345D01*
X112841191Y-64537631D02*
X112948334Y-64573345D01*
X113126905Y-64573345D01*
X113198334Y-64537631D01*
X113234048Y-64501917D01*
X113269762Y-64430488D01*
X113269762Y-64359060D01*
X113234048Y-64287631D01*
X113198334Y-64251917D01*
X113126905Y-64216202D01*
X112984048Y-64180488D01*
X112912620Y-64144774D01*
X112876905Y-64109060D01*
X112841191Y-64037631D01*
X112841191Y-63966202D01*
X112876905Y-63894774D01*
X112912620Y-63859060D01*
X112984048Y-63823345D01*
X113162620Y-63823345D01*
X113269762Y-63859060D01*
X113841191Y-64180488D02*
X113948334Y-64216202D01*
X113984048Y-64251917D01*
X114019762Y-64323345D01*
X114019762Y-64430488D01*
X113984048Y-64501917D01*
X113948334Y-64537631D01*
X113876905Y-64573345D01*
X113591191Y-64573345D01*
X113591191Y-63823345D01*
X113841191Y-63823345D01*
X113912620Y-63859060D01*
X113948334Y-63894774D01*
X113984048Y-63966202D01*
X113984048Y-64037631D01*
X113948334Y-64109060D01*
X113912620Y-64144774D01*
X113841191Y-64180488D01*
X113591191Y-64180488D01*
X120101585Y-80335660D02*
X120458728Y-80335660D01*
X120030157Y-80549945D02*
X120280157Y-79799945D01*
X120530157Y-80549945D01*
X121137300Y-79799945D02*
X120780157Y-79799945D01*
X120744442Y-80157088D01*
X120780157Y-80121374D01*
X120851585Y-80085660D01*
X121030157Y-80085660D01*
X121101585Y-80121374D01*
X121137300Y-80157088D01*
X121173014Y-80228517D01*
X121173014Y-80407088D01*
X121137300Y-80478517D01*
X121101585Y-80514231D01*
X121030157Y-80549945D01*
X120851585Y-80549945D01*
X120780157Y-80514231D01*
X120744442Y-80478517D01*
X122086014Y-80521851D02*
X122193157Y-80557565D01*
X122371728Y-80557565D01*
X122443157Y-80521851D01*
X122478871Y-80486137D01*
X122514585Y-80414708D01*
X122514585Y-80343280D01*
X122478871Y-80271851D01*
X122443157Y-80236137D01*
X122371728Y-80200422D01*
X122228871Y-80164708D01*
X122157442Y-80128994D01*
X122121728Y-80093280D01*
X122086014Y-80021851D01*
X122086014Y-79950422D01*
X122121728Y-79878994D01*
X122157442Y-79843280D01*
X122228871Y-79807565D01*
X122407442Y-79807565D01*
X122514585Y-79843280D01*
X123264585Y-80486137D02*
X123228871Y-80521851D01*
X123121728Y-80557565D01*
X123050300Y-80557565D01*
X122943157Y-80521851D01*
X122871728Y-80450422D01*
X122836014Y-80378994D01*
X122800300Y-80236137D01*
X122800300Y-80128994D01*
X122836014Y-79986137D01*
X122871728Y-79914708D01*
X122943157Y-79843280D01*
X123050300Y-79807565D01*
X123121728Y-79807565D01*
X123228871Y-79843280D01*
X123264585Y-79878994D01*
X123586014Y-80557565D02*
X123586014Y-79807565D01*
X124014585Y-80557565D02*
X123693157Y-80128994D01*
X124014585Y-79807565D02*
X123586014Y-80236137D01*
D11*
X125721217Y-80660500D02*
X125721217Y-79660500D01*
X126054550Y-80374786D01*
X126387883Y-79660500D01*
X126387883Y-80660500D01*
X127054550Y-79660500D02*
X127245026Y-79660500D01*
X127340264Y-79708120D01*
X127435502Y-79803358D01*
X127483121Y-79993834D01*
X127483121Y-80327167D01*
X127435502Y-80517643D01*
X127340264Y-80612881D01*
X127245026Y-80660500D01*
X127054550Y-80660500D01*
X126959312Y-80612881D01*
X126864074Y-80517643D01*
X126816455Y-80327167D01*
X126816455Y-79993834D01*
X126864074Y-79803358D01*
X126959312Y-79708120D01*
X127054550Y-79660500D01*
X128102431Y-80670660D02*
X128102431Y-79670660D01*
X128435764Y-80384946D01*
X128769098Y-79670660D01*
X128769098Y-80670660D01*
X129245288Y-80670660D02*
X129245288Y-79670660D01*
X132562695Y-79665580D02*
X133134123Y-79665580D01*
X132848409Y-80665580D02*
X132848409Y-79665580D01*
X133372219Y-79665580D02*
X134038885Y-80665580D01*
X134038885Y-79665580D02*
X133372219Y-80665580D01*
X130617933Y-80665580D02*
X130284600Y-80189390D01*
X130046504Y-80665580D02*
X130046504Y-79665580D01*
X130427457Y-79665580D01*
X130522695Y-79713200D01*
X130570314Y-79760819D01*
X130617933Y-79856057D01*
X130617933Y-79998914D01*
X130570314Y-80094152D01*
X130522695Y-80141771D01*
X130427457Y-80189390D01*
X130046504Y-80189390D01*
X130951266Y-79665580D02*
X131617933Y-80665580D01*
X131617933Y-79665580D02*
X130951266Y-80665580D01*
X135432895Y-79687800D02*
X135337657Y-79640180D01*
X135194800Y-79640180D01*
X135051942Y-79687800D01*
X134956704Y-79783038D01*
X134909085Y-79878276D01*
X134861466Y-80068752D01*
X134861466Y-80211609D01*
X134909085Y-80402085D01*
X134956704Y-80497323D01*
X135051942Y-80592561D01*
X135194800Y-80640180D01*
X135290038Y-80640180D01*
X135432895Y-80592561D01*
X135480514Y-80544942D01*
X135480514Y-80211609D01*
X135290038Y-80211609D01*
X135909085Y-80640180D02*
X135909085Y-79640180D01*
X136480514Y-80640180D01*
X136480514Y-79640180D01*
X136956704Y-80640180D02*
X136956704Y-79640180D01*
X137194800Y-79640180D01*
X137337657Y-79687800D01*
X137432895Y-79783038D01*
X137480514Y-79878276D01*
X137528133Y-80068752D01*
X137528133Y-80211609D01*
X137480514Y-80402085D01*
X137432895Y-80497323D01*
X137337657Y-80592561D01*
X137194800Y-80640180D01*
X136956704Y-80640180D01*
D13*
X97434040Y-78962720D02*
X97434040Y-78862720D01*
X101834040Y-77362720D02*
X97434040Y-77362720D01*
X97434040Y-80462720D02*
X101834040Y-80462720D01*
X101834040Y-78962720D02*
X101834040Y-78862720D01*
X137424040Y-79249580D02*
X137424040Y-78249580D01*
X130424040Y-79249580D02*
X137424040Y-79249580D01*
X130424040Y-74049580D02*
X137424040Y-74049580D01*
X139568880Y-67280480D02*
X140898880Y-67280480D01*
X139568880Y-68610480D02*
X139568880Y-67280480D01*
X139568880Y-69880480D02*
X142228880Y-69880480D01*
X142228880Y-69880480D02*
X142228880Y-77560480D01*
X139568880Y-69880480D02*
X139568880Y-77560480D01*
X139568880Y-77560480D02*
X142228880Y-77560480D01*
X137220000Y-83880000D02*
X137220000Y-81220000D01*
X99060000Y-83880000D02*
X137220000Y-83880000D01*
X99060000Y-81220000D02*
X137220000Y-81220000D01*
X99060000Y-83880000D02*
X99060000Y-81220000D01*
X97790000Y-83880000D02*
X96460000Y-83880000D01*
X96460000Y-83880000D02*
X96460000Y-82550000D01*
X137220000Y-63560000D02*
X137220000Y-60900000D01*
X109220000Y-63560000D02*
X137220000Y-63560000D01*
X109220000Y-60900000D02*
X137220000Y-60900000D01*
X109220000Y-63560000D02*
X109220000Y-60900000D01*
X107950000Y-63560000D02*
X106620000Y-63560000D01*
X106620000Y-63560000D02*
X106620000Y-62230000D01*
D11*
X132514100Y-71869120D02*
X132514100Y-73269120D01*
X137614100Y-71869120D02*
X137614100Y-67719120D01*
X132464100Y-71869120D02*
X132464100Y-67719120D01*
X137614100Y-71869120D02*
X137469100Y-71869120D01*
X137614100Y-67719120D02*
X137469100Y-67719120D01*
X132464100Y-67719120D02*
X132609100Y-67719120D01*
X132464100Y-71869120D02*
X132514100Y-71869120D01*
D13*
X113825400Y-68263220D02*
X114825400Y-68263220D01*
X114825400Y-69623220D02*
X113825400Y-69623220D01*
X118074820Y-75159320D02*
X119074820Y-75159320D01*
X119074820Y-76519320D02*
X118074820Y-76519320D01*
X121515420Y-75913360D02*
X121515420Y-76913360D01*
X120155420Y-76913360D02*
X120155420Y-75913360D01*
X130527500Y-67710800D02*
X130527500Y-67010800D01*
X131727500Y-67010800D02*
X131727500Y-67710800D01*
X119903760Y-73636580D02*
X120603760Y-73636580D01*
X120603760Y-74836580D02*
X119903760Y-74836580D01*
X128754620Y-77612800D02*
X128054620Y-77612800D01*
X128054620Y-76412800D02*
X128754620Y-76412800D01*
X125534980Y-78918320D02*
X125534980Y-79618320D01*
X124334980Y-79618320D02*
X124334980Y-78918320D01*
X127741160Y-79238400D02*
X127041160Y-79238400D01*
X127041160Y-78038400D02*
X127741160Y-78038400D01*
X127551700Y-66303600D02*
X128251700Y-66303600D01*
X128251700Y-67503600D02*
X127551700Y-67503600D01*
X128251700Y-66002460D02*
X127551700Y-66002460D01*
X127551700Y-64802460D02*
X128251700Y-64802460D01*
D11*
X129479460Y-75496840D02*
X129479460Y-74971840D01*
X122229460Y-75496840D02*
X122229460Y-74971840D01*
X122229460Y-68246840D02*
X122229460Y-68771840D01*
X129479460Y-68246840D02*
X129479460Y-68771840D01*
X122229460Y-75496840D02*
X122754460Y-75496840D01*
X122229460Y-68246840D02*
X122754460Y-68246840D01*
X129479460Y-75496840D02*
X128954460Y-75496840D01*
D13*
X114825400Y-67837600D02*
X113825400Y-67837600D01*
X113825400Y-66477600D02*
X114825400Y-66477600D01*
X126039500Y-77728360D02*
X125039500Y-77728360D01*
X125039500Y-76368360D02*
X126039500Y-76368360D01*
X104834800Y-74844200D02*
X104834800Y-73644200D01*
X106594800Y-73644200D02*
X106594800Y-74844200D01*
X107461600Y-78367000D02*
X107461600Y-79367000D01*
X106101600Y-79367000D02*
X106101600Y-78367000D01*
X112901020Y-69261240D02*
X112901020Y-69961240D01*
X111701020Y-69961240D02*
X111701020Y-69261240D01*
X121441920Y-66600820D02*
X121441920Y-65900820D01*
X122641920Y-65900820D02*
X122641920Y-66600820D01*
X104276600Y-77769200D02*
X104276600Y-77069200D01*
X105476600Y-77069200D02*
X105476600Y-77769200D01*
X112873080Y-66050680D02*
X112873080Y-66750680D01*
X111673080Y-66750680D02*
X111673080Y-66050680D01*
X102559600Y-72532800D02*
X101859600Y-72532800D01*
X101859600Y-71332800D02*
X102559600Y-71332800D01*
X109431200Y-65095840D02*
X110431200Y-65095840D01*
X110431200Y-66455840D02*
X109431200Y-66455840D01*
X96500400Y-76192000D02*
X96500400Y-75192000D01*
X97860400Y-75192000D02*
X97860400Y-76192000D01*
X96348000Y-67810000D02*
X96348000Y-66810000D01*
X97708000Y-66810000D02*
X97708000Y-67810000D01*
X111292280Y-69993080D02*
X111292280Y-67543080D01*
X108072280Y-68193080D02*
X108072280Y-69993080D01*
X118429200Y-68627900D02*
X120229200Y-68627900D01*
X120229200Y-65407900D02*
X117779200Y-65407900D01*
X103819600Y-75525200D02*
X103819600Y-73075200D01*
X100599600Y-73725200D02*
X100599600Y-75525200D01*
X95940400Y-67626000D02*
X95940400Y-66486000D01*
X95940400Y-66486000D02*
X93840400Y-66486000D01*
X95940400Y-67626000D02*
X93840400Y-67626000D01*
X95940400Y-78294000D02*
X93840400Y-78294000D01*
X95940400Y-77154000D02*
X93840400Y-77154000D01*
X95940400Y-78294000D02*
X95940400Y-77154000D01*
X104137000Y-67765000D02*
X104137000Y-70665000D01*
X104687000Y-61565000D02*
X100037000Y-61565000D01*
X99312000Y-67765000D02*
X100587000Y-67765000D01*
X99312000Y-69365000D02*
X99312000Y-67765000D01*
X98312000Y-69365000D02*
X99312000Y-69365000D01*
X98312000Y-65140000D02*
X98312000Y-69365000D01*
X106412000Y-69365000D02*
X106412000Y-65140000D01*
X105412000Y-69365000D02*
X106412000Y-69365000D01*
X105412000Y-67765000D02*
X105412000Y-69365000D01*
X104137000Y-67765000D02*
X105412000Y-67765000D01*
X98161600Y-75910000D02*
X98161600Y-72010000D01*
X100161600Y-75910000D02*
X100161600Y-72010000D01*
X98161600Y-75910000D02*
X100161600Y-75910000D01*
D11*
X108259000Y-75045600D02*
X108259000Y-75570600D01*
X113509000Y-75045600D02*
X113509000Y-75570600D01*
X113509000Y-80295600D02*
X113509000Y-79770600D01*
X108259000Y-80295600D02*
X108259000Y-79770600D01*
X113509000Y-75045600D02*
X112984000Y-75045600D01*
X113509000Y-80295600D02*
X112984000Y-80295600D01*
X108259000Y-75045600D02*
X108784000Y-75045600D01*
M02*
